<ttFont>
    <TTGlyph name=".notdef" xMin="228" yMin="0" xMax="1644" yMax="1416">
      <contour>
        <pt x="228" y="1416" on="1"/>
        <pt x="1644" y="1416" on="1"/>
        <pt x="1644" y="0" on="1"/>
        <pt x="228" y="0" on="1"/>
      </contour>
      <contour>
        <pt x="586" y="219" on="1"/>
        <pt x="933" y="587" on="1"/>
        <pt x="1295" y="219" on="1"/>
        <pt x="1417" y="341" on="1"/>
        <pt x="1054" y="709" on="1"/>
        <pt x="1417" y="1067" on="1"/>
        <pt x="1289" y="1191" on="1"/>
        <pt x="937" y="825" on="1"/>
        <pt x="580" y="1193" on="1"/>
        <pt x="457" y="1068" on="1"/>
        <pt x="816" y="705" on="1"/>
        <pt x="458" y="363" on="1"/>
      </contour>
    </TTGlyph>
    <TTGlyph name="A" xMin="-161" yMin="0" xMax="1395" yMax="1522">
      <contour>
        <pt x="640" y="1522" on="1"/>
        <pt x="987" y="1522" on="1"/>
        <pt x="1234" y="138" on="1"/>
        <pt x="1395" y="106" on="1"/>
        <pt x="1389" y="0" on="1"/>
        <pt x="700" y="0" on="1"/>
        <pt x="705" y="106" on="1"/>
        <pt x="862" y="135" on="1"/>
        <pt x="822" y="416" on="1"/>
        <pt x="335" y="416" on="1"/>
        <pt x="217" y="136" on="1"/>
        <pt x="405" y="106" on="1"/>
        <pt x="397" y="0" on="1"/>
        <pt x="-161" y="0" on="1"/>
        <pt x="-153" y="106" on="1"/>
        <pt x="-15" y="135" on="1"/>
      </contour>
      <contour>
        <pt x="399" y="567" on="1"/>
        <pt x="801" y="567" on="1"/>
        <pt x="723" y="1117" on="1"/>
        <pt x="714" y="1308" on="1"/>
      </contour>
    </TTGlyph>
    <TTGlyph name="AE" xMin="-206" yMin="0" xMax="1972" yMax="1522">
      <contour>
        <pt x="664" y="106" on="1"/>
        <pt x="824" y="136" on="1"/>
        <pt x="860" y="416" on="1"/>
        <pt x="386" y="416" on="1"/>
        <pt x="239" y="136" on="1"/>
        <pt x="429" y="106" on="1"/>
        <pt x="421" y="0" on="1"/>
        <pt x="-206" y="0" on="1"/>
        <pt x="-198" y="106" on="1"/>
        <pt x="-41" y="136" on="1"/>
        <pt x="686" y="1376" on="1"/>
        <pt x="394" y="1402" on="1"/>
        <pt x="409" y="1522" on="1"/>
        <pt x="1972" y="1522" on="1"/>
        <pt x="1936" y="1152" on="1"/>
        <pt x="1714" y="1152" on="1"/>
        <pt x="1680" y="1376" on="1"/>
        <pt x="1341" y="1402" on="1"/>
        <pt x="1268" y="868" on="1"/>
        <pt x="1723" y="909" on="1"/>
        <pt x="1688" y="680" on="1"/>
        <pt x="1249" y="712" on="1"/>
        <pt x="1171" y="136" on="1"/>
        <pt x="1634" y="171" on="1"/>
        <pt x="1751" y="468" on="1"/>
        <pt x="1964" y="454" on="1"/>
        <pt x="1894" y="0" on="1"/>
        <pt x="650" y="0" on="1"/>
      </contour>
      <contour>
        <pt x="904" y="1402" on="1"/>
        <pt x="465" y="567" on="1"/>
        <pt x="880" y="567" on="1"/>
        <pt x="989" y="1402" on="1"/>
      </contour>
    </TTGlyph>
    <TTGlyph name="AEacute" xMin="-206" yMin="0" xMax="1972" yMax="2014">
      <contour>
        <pt x="1183" y="1672" on="1"/>
        <pt x="1459" y="2014" on="1"/>
        <pt x="1646" y="1829" on="1"/>
        <pt x="1626" y="1791" on="0"/>
        <pt x="1540" y="1711" on="0"/>
        <pt x="1438" y="1639" on="0"/>
        <pt x="1335" y="1583" on="0"/>
        <pt x="1299" y="1570" on="1"/>
      </contour>
      <contour>
        <pt x="664" y="106" on="1"/>
        <pt x="824" y="136" on="1"/>
        <pt x="860" y="416" on="1"/>
        <pt x="386" y="416" on="1"/>
        <pt x="239" y="136" on="1"/>
        <pt x="429" y="106" on="1"/>
        <pt x="421" y="0" on="1"/>
        <pt x="-206" y="0" on="1"/>
        <pt x="-198" y="106" on="1"/>
        <pt x="-41" y="136" on="1"/>
        <pt x="686" y="1376" on="1"/>
        <pt x="394" y="1402" on="1"/>
        <pt x="409" y="1522" on="1"/>
        <pt x="1972" y="1522" on="1"/>
        <pt x="1936" y="1152" on="1"/>
        <pt x="1714" y="1152" on="1"/>
        <pt x="1680" y="1376" on="1"/>
        <pt x="1341" y="1402" on="1"/>
        <pt x="1268" y="868" on="1"/>
        <pt x="1723" y="909" on="1"/>
        <pt x="1688" y="680" on="1"/>
        <pt x="1249" y="712" on="1"/>
        <pt x="1171" y="136" on="1"/>
        <pt x="1634" y="171" on="1"/>
        <pt x="1751" y="468" on="1"/>
        <pt x="1964" y="454" on="1"/>
        <pt x="1894" y="0" on="1"/>
        <pt x="650" y="0" on="1"/>
      </contour>
      <contour>
        <pt x="904" y="1402" on="1"/>
        <pt x="465" y="567" on="1"/>
        <pt x="880" y="567" on="1"/>
        <pt x="989" y="1402" on="1"/>
      </contour>
    </TTGlyph>
    <TTGlyph name="Aacute" xMin="-161" yMin="0" xMax="1395" yMax="2014">
      <contour>
        <pt x="640" y="1522" on="1"/>
        <pt x="987" y="1522" on="1"/>
        <pt x="1234" y="138" on="1"/>
        <pt x="1395" y="106" on="1"/>
        <pt x="1389" y="0" on="1"/>
        <pt x="700" y="0" on="1"/>
        <pt x="705" y="106" on="1"/>
        <pt x="862" y="135" on="1"/>
        <pt x="822" y="416" on="1"/>
        <pt x="335" y="416" on="1"/>
        <pt x="217" y="136" on="1"/>
        <pt x="405" y="106" on="1"/>
        <pt x="397" y="0" on="1"/>
        <pt x="-161" y="0" on="1"/>
        <pt x="-153" y="106" on="1"/>
        <pt x="-15" y="135" on="1"/>
      </contour>
      <contour>
        <pt x="399" y="567" on="1"/>
        <pt x="801" y="567" on="1"/>
        <pt x="723" y="1117" on="1"/>
        <pt x="714" y="1308" on="1"/>
      </contour>
      <contour>
        <pt x="723" y="1672" on="1"/>
        <pt x="999" y="2014" on="1"/>
        <pt x="1186" y="1829" on="1"/>
        <pt x="1166" y="1791" on="0"/>
        <pt x="1080" y="1711" on="0"/>
        <pt x="978" y="1639" on="0"/>
        <pt x="875" y="1583" on="0"/>
        <pt x="839" y="1570" on="1"/>
      </contour>
    </TTGlyph>
    <TTGlyph name="Abreve" xMin="-161" yMin="0" xMax="1395" yMax="2014">
      <contour>
        <pt x="640" y="1522" on="1"/>
        <pt x="987" y="1522" on="1"/>
        <pt x="1234" y="138" on="1"/>
        <pt x="1395" y="106" on="1"/>
        <pt x="1389" y="0" on="1"/>
        <pt x="700" y="0" on="1"/>
        <pt x="705" y="106" on="1"/>
        <pt x="862" y="135" on="1"/>
        <pt x="822" y="416" on="1"/>
        <pt x="335" y="416" on="1"/>
        <pt x="217" y="136" on="1"/>
        <pt x="405" y="106" on="1"/>
        <pt x="397" y="0" on="1"/>
        <pt x="-161" y="0" on="1"/>
        <pt x="-153" y="106" on="1"/>
        <pt x="-15" y="135" on="1"/>
      </contour>
      <contour>
        <pt x="399" y="567" on="1"/>
        <pt x="801" y="567" on="1"/>
        <pt x="723" y="1117" on="1"/>
        <pt x="714" y="1308" on="1"/>
      </contour>
      <contour>
        <pt x="829" y="1633" on="1"/>
        <pt x="725" y="1633" on="0"/>
        <pt x="601" y="1694" on="0"/>
        <pt x="535" y="1787" on="0"/>
        <pt x="515" y="1897" on="0"/>
        <pt x="515" y="1946" on="1"/>
        <pt x="515" y="1981" on="0"/>
        <pt x="521" y="2014" on="1"/>
        <pt x="706" y="2014" on="1"/>
        <pt x="706" y="1979" on="0"/>
        <pt x="710" y="1919" on="0"/>
        <pt x="734" y="1875" on="0"/>
        <pt x="786" y="1850" on="0"/>
        <pt x="834" y="1850" on="1"/>
        <pt x="889" y="1850" on="0"/>
        <pt x="954" y="1884" on="0"/>
        <pt x="988" y="1933" on="0"/>
        <pt x="998" y="1990" on="0"/>
        <pt x="998" y="2014" on="1"/>
        <pt x="1178" y="2014" on="1"/>
        <pt x="1178" y="1929" on="0"/>
        <pt x="1131" y="1789" on="0"/>
        <pt x="1041" y="1688" on="0"/>
        <pt x="911" y="1633" on="0"/>
      </contour>
    </TTGlyph>
    <TTGlyph name="Acircumflex" xMin="-161" yMin="0" xMax="1395" yMax="2014">
      <contour>
        <pt x="640" y="1522" on="1"/>
        <pt x="987" y="1522" on="1"/>
        <pt x="1234" y="138" on="1"/>
        <pt x="1395" y="106" on="1"/>
        <pt x="1389" y="0" on="1"/>
        <pt x="700" y="0" on="1"/>
        <pt x="705" y="106" on="1"/>
        <pt x="862" y="135" on="1"/>
        <pt x="822" y="416" on="1"/>
        <pt x="335" y="416" on="1"/>
        <pt x="217" y="136" on="1"/>
        <pt x="405" y="106" on="1"/>
        <pt x="397" y="0" on="1"/>
        <pt x="-161" y="0" on="1"/>
        <pt x="-153" y="106" on="1"/>
        <pt x="-15" y="135" on="1"/>
      </contour>
      <contour>
        <pt x="399" y="567" on="1"/>
        <pt x="801" y="567" on="1"/>
        <pt x="723" y="1117" on="1"/>
        <pt x="714" y="1308" on="1"/>
      </contour>
      <contour>
        <pt x="456" y="1657" on="1"/>
        <pt x="823" y="2014" on="1"/>
        <pt x="1001" y="2014" on="1"/>
        <pt x="1211" y="1657" on="1"/>
        <pt x="1087" y="1599" on="1"/>
        <pt x="886" y="1806" on="1"/>
        <pt x="563" y="1600" on="1"/>
      </contour>
    </TTGlyph>
    <TTGlyph name="Adieresis" xMin="-161" yMin="0" xMax="1395" yMax="1984">
      <contour>
        <pt x="640" y="1522" on="1"/>
        <pt x="987" y="1522" on="1"/>
        <pt x="1234" y="138" on="1"/>
        <pt x="1395" y="106" on="1"/>
        <pt x="1389" y="0" on="1"/>
        <pt x="700" y="0" on="1"/>
        <pt x="705" y="106" on="1"/>
        <pt x="862" y="135" on="1"/>
        <pt x="822" y="416" on="1"/>
        <pt x="335" y="416" on="1"/>
        <pt x="217" y="136" on="1"/>
        <pt x="405" y="106" on="1"/>
        <pt x="397" y="0" on="1"/>
        <pt x="-161" y="0" on="1"/>
        <pt x="-153" y="106" on="1"/>
        <pt x="-15" y="135" on="1"/>
      </contour>
      <contour>
        <pt x="399" y="567" on="1"/>
        <pt x="801" y="567" on="1"/>
        <pt x="723" y="1117" on="1"/>
        <pt x="714" y="1308" on="1"/>
      </contour>
      <contour>
        <pt x="591" y="1661" on="1"/>
        <pt x="561" y="1661" on="0"/>
        <pt x="511" y="1684" on="0"/>
        <pt x="475" y="1723" on="0"/>
        <pt x="455" y="1777" on="0"/>
        <pt x="456" y="1808" on="1"/>
        <pt x="458" y="1890" on="0"/>
        <pt x="547" y="1984" on="0"/>
        <pt x="624" y="1984" on="1"/>
        <pt x="695" y="1984" on="0"/>
        <pt x="767" y="1903" on="0"/>
        <pt x="766" y="1843" on="1"/>
        <pt x="764" y="1759" on="0"/>
        <pt x="680" y="1661" on="0"/>
      </contour>
      <contour>
        <pt x="1043" y="1661" on="1"/>
        <pt x="1013" y="1661" on="0"/>
        <pt x="963" y="1684" on="0"/>
        <pt x="927" y="1723" on="0"/>
        <pt x="907" y="1777" on="0"/>
        <pt x="908" y="1808" on="1"/>
        <pt x="910" y="1890" on="0"/>
        <pt x="999" y="1984" on="0"/>
        <pt x="1076" y="1984" on="1"/>
        <pt x="1147" y="1984" on="0"/>
        <pt x="1219" y="1903" on="0"/>
        <pt x="1218" y="1843" on="1"/>
        <pt x="1216" y="1759" on="0"/>
        <pt x="1132" y="1661" on="0"/>
      </contour>
    </TTGlyph>
    <TTGlyph name="Agrave" xMin="-161" yMin="0" xMax="1395" yMax="2014">
      <contour>
        <pt x="640" y="1522" on="1"/>
        <pt x="987" y="1522" on="1"/>
        <pt x="1234" y="138" on="1"/>
        <pt x="1395" y="106" on="1"/>
        <pt x="1389" y="0" on="1"/>
        <pt x="700" y="0" on="1"/>
        <pt x="705" y="106" on="1"/>
        <pt x="862" y="135" on="1"/>
        <pt x="822" y="416" on="1"/>
        <pt x="335" y="416" on="1"/>
        <pt x="217" y="136" on="1"/>
        <pt x="405" y="106" on="1"/>
        <pt x="397" y="0" on="1"/>
        <pt x="-161" y="0" on="1"/>
        <pt x="-153" y="106" on="1"/>
        <pt x="-15" y="135" on="1"/>
      </contour>
      <contour>
        <pt x="399" y="567" on="1"/>
        <pt x="801" y="567" on="1"/>
        <pt x="723" y="1117" on="1"/>
        <pt x="714" y="1308" on="1"/>
      </contour>
      <contour>
        <pt x="830" y="1570" on="1"/>
        <pt x="794" y="1583" on="0"/>
        <pt x="693" y="1638" on="0"/>
        <pt x="592" y="1708" on="0"/>
        <pt x="505" y="1789" on="0"/>
        <pt x="483" y="1829" on="1"/>
        <pt x="670" y="2014" on="1"/>
        <pt x="946" y="1672" on="1"/>
        <pt x="830" y="1570" on="1"/>
      </contour>
    </TTGlyph>
    <TTGlyph name="Amacron" xMin="-161" yMin="0" xMax="1395" yMax="1916">
      <contour>
        <pt x="640" y="1522" on="1"/>
        <pt x="987" y="1522" on="1"/>
        <pt x="1234" y="138" on="1"/>
        <pt x="1395" y="106" on="1"/>
        <pt x="1389" y="0" on="1"/>
        <pt x="700" y="0" on="1"/>
        <pt x="705" y="106" on="1"/>
        <pt x="862" y="135" on="1"/>
        <pt x="822" y="416" on="1"/>
        <pt x="335" y="416" on="1"/>
        <pt x="217" y="136" on="1"/>
        <pt x="405" y="106" on="1"/>
        <pt x="397" y="0" on="1"/>
        <pt x="-161" y="0" on="1"/>
        <pt x="-153" y="106" on="1"/>
        <pt x="-15" y="135" on="1"/>
      </contour>
      <contour>
        <pt x="399" y="567" on="1"/>
        <pt x="801" y="567" on="1"/>
        <pt x="723" y="1117" on="1"/>
        <pt x="714" y="1308" on="1"/>
      </contour>
      <contour>
        <pt x="561" y="1916" on="1"/>
        <pt x="1132" y="1916" on="1"/>
        <pt x="1112" y="1707" on="1"/>
        <pt x="541" y="1707" on="1"/>
      </contour>
    </TTGlyph>
    <TTGlyph name="Aogonek" xMin="-161" yMin="-480" xMax="1395" yMax="1522">
      <contour>
        <pt x="640" y="1522" on="1"/>
        <pt x="987" y="1522" on="1"/>
        <pt x="1234" y="138" on="1"/>
        <pt x="1395" y="106" on="1"/>
        <pt x="1389" y="0" on="1"/>
        <pt x="1158" y="0" on="1"/>
        <pt x="1117" y="-28" on="0"/>
        <pt x="1046" y="-84" on="0"/>
        <pt x="994" y="-139" on="0"/>
        <pt x="964" y="-191" on="0"/>
        <pt x="964" y="-215" on="1"/>
        <pt x="964" y="-258" on="0"/>
        <pt x="1002" y="-287" on="0"/>
        <pt x="1031" y="-287" on="1"/>
        <pt x="1072" y="-287" on="0"/>
        <pt x="1142" y="-245" on="0"/>
        <pt x="1184" y="-212" on="1"/>
        <pt x="1220" y="-326" on="1"/>
        <pt x="1190" y="-357" on="0"/>
        <pt x="1115" y="-413" on="0"/>
        <pt x="1029" y="-455" on="0"/>
        <pt x="930" y="-480" on="0"/>
        <pt x="876" y="-480" on="1"/>
        <pt x="779" y="-480" on="0"/>
        <pt x="683" y="-385" on="0"/>
        <pt x="683" y="-306" on="1"/>
        <pt x="683" y="-281" on="0"/>
        <pt x="708" y="-211" on="0"/>
        <pt x="728" y="-182" on="1"/>
        <pt x="754" y="-144" on="0"/>
        <pt x="807" y="-87" on="0"/>
        <pt x="861" y="-44" on="0"/>
        <pt x="913" y="-13" on="0"/>
        <pt x="939" y="0" on="1"/>
        <pt x="700" y="0" on="1"/>
        <pt x="705" y="106" on="1"/>
        <pt x="862" y="135" on="1"/>
        <pt x="822" y="416" on="1"/>
        <pt x="335" y="416" on="1"/>
        <pt x="217" y="136" on="1"/>
        <pt x="405" y="106" on="1"/>
        <pt x="397" y="0" on="1"/>
        <pt x="-161" y="0" on="1"/>
        <pt x="-153" y="106" on="1"/>
        <pt x="-15" y="135" on="1"/>
      </contour>
      <contour>
        <pt x="399" y="567" on="1"/>
        <pt x="801" y="567" on="1"/>
        <pt x="723" y="1117" on="1"/>
        <pt x="714" y="1308" on="1"/>
      </contour>
    </TTGlyph>
    <TTGlyph name="Aring" xMin="-161" yMin="0" xMax="1395" yMax="2014">
      <contour>
        <pt x="637" y="1515" on="1"/>
        <pt x="563" y="1540" on="0"/>
        <pt x="476" y="1641" on="0"/>
        <pt x="476" y="1721" on="1"/>
        <pt x="476" y="1780" on="0"/>
        <pt x="513" y="1869" on="0"/>
        <pt x="575" y="1934" on="0"/>
        <pt x="656" y="1977" on="0"/>
        <pt x="744" y="2003" on="0"/>
        <pt x="833" y="2014" on="0"/>
        <pt x="872" y="2014" on="1"/>
        <pt x="938" y="2014" on="0"/>
        <pt x="1052" y="1986" on="0"/>
        <pt x="1136" y="1931" on="0"/>
        <pt x="1185" y="1847" on="0"/>
        <pt x="1185" y="1791" on="1"/>
        <pt x="1185" y="1738" on="0"/>
        <pt x="1154" y="1652" on="0"/>
        <pt x="1101" y="1586" on="0"/>
        <pt x="1028" y="1538" on="0"/>
        <pt x="986" y="1522" on="1"/>
        <pt x="987" y="1522" on="1"/>
        <pt x="1234" y="138" on="1"/>
        <pt x="1395" y="106" on="1"/>
        <pt x="1389" y="0" on="1"/>
        <pt x="700" y="0" on="1"/>
        <pt x="705" y="106" on="1"/>
        <pt x="862" y="135" on="1"/>
        <pt x="822" y="416" on="1"/>
        <pt x="335" y="416" on="1"/>
        <pt x="217" y="136" on="1"/>
        <pt x="405" y="106" on="1"/>
        <pt x="397" y="0" on="1"/>
        <pt x="-161" y="0" on="1"/>
        <pt x="-153" y="106" on="1"/>
        <pt x="-15" y="135" on="1"/>
      </contour>
      <contour>
        <pt x="399" y="567" on="1"/>
        <pt x="801" y="567" on="1"/>
        <pt x="723" y="1117" on="1"/>
        <pt x="714" y="1308" on="1"/>
      </contour>
      <contour>
        <pt x="817" y="1630" on="1"/>
        <pt x="846" y="1630" on="0"/>
        <pt x="908" y="1639" on="0"/>
        <pt x="959" y="1668" on="0"/>
        <pt x="992" y="1720" on="0"/>
        <pt x="992" y="1763" on="1"/>
        <pt x="992" y="1790" on="0"/>
        <pt x="966" y="1833" on="0"/>
        <pt x="925" y="1863" on="0"/>
        <pt x="873" y="1878" on="0"/>
        <pt x="847" y="1878" on="1"/>
        <pt x="818" y="1878" on="0"/>
        <pt x="756" y="1866" on="0"/>
        <pt x="704" y="1836" on="0"/>
        <pt x="670" y="1784" on="0"/>
        <pt x="670" y="1744" on="1"/>
        <pt x="670" y="1717" on="0"/>
        <pt x="697" y="1675" on="0"/>
        <pt x="740" y="1646" on="0"/>
        <pt x="792" y="1630" on="0"/>
      </contour>
    </TTGlyph>
    <TTGlyph name="Atilde" xMin="-161" yMin="0" xMax="1395" yMax="1970">
      <contour>
        <pt x="640" y="1522" on="1"/>
        <pt x="987" y="1522" on="1"/>
        <pt x="1234" y="138" on="1"/>
        <pt x="1395" y="106" on="1"/>
        <pt x="1389" y="0" on="1"/>
        <pt x="700" y="0" on="1"/>
        <pt x="705" y="106" on="1"/>
        <pt x="862" y="135" on="1"/>
        <pt x="822" y="416" on="1"/>
        <pt x="335" y="416" on="1"/>
        <pt x="217" y="136" on="1"/>
        <pt x="405" y="106" on="1"/>
        <pt x="397" y="0" on="1"/>
        <pt x="-161" y="0" on="1"/>
        <pt x="-153" y="106" on="1"/>
        <pt x="-15" y="135" on="1"/>
      </contour>
      <contour>
        <pt x="399" y="567" on="1"/>
        <pt x="801" y="567" on="1"/>
        <pt x="723" y="1117" on="1"/>
        <pt x="714" y="1308" on="1"/>
      </contour>
      <contour>
        <pt x="469" y="1801" on="1"/>
        <pt x="481" y="1832" on="0"/>
        <pt x="527" y="1893" on="0"/>
        <pt x="593" y="1941" on="0"/>
        <pt x="677" y="1970" on="0"/>
        <pt x="726" y="1970" on="1"/>
        <pt x="765" y="1970" on="0"/>
        <pt x="822" y="1948" on="0"/>
        <pt x="868" y="1914" on="0"/>
        <pt x="905" y="1876" on="0"/>
        <pt x="941" y="1842" on="0"/>
        <pt x="980" y="1820" on="0"/>
        <pt x="1005" y="1820" on="1"/>
        <pt x="1033" y="1820" on="0"/>
        <pt x="1079" y="1841" on="0"/>
        <pt x="1117" y="1871" on="0"/>
        <pt x="1146" y="1906" on="0"/>
        <pt x="1157" y="1920" on="1"/>
        <pt x="1245" y="1789" on="1"/>
        <pt x="1232" y="1756" on="0"/>
        <pt x="1183" y="1692" on="0"/>
        <pt x="1116" y="1640" on="0"/>
        <pt x="1037" y="1608" on="0"/>
        <pt x="994" y="1608" on="1"/>
        <pt x="950" y="1608" on="0"/>
        <pt x="887" y="1630" on="0"/>
        <pt x="841" y="1663" on="0"/>
        <pt x="804" y="1701" on="0"/>
        <pt x="766" y="1734" on="0"/>
        <pt x="723" y="1757" on="0"/>
        <pt x="693" y="1758" on="1"/>
        <pt x="670" y="1758" on="0"/>
        <pt x="629" y="1744" on="0"/>
        <pt x="592" y="1721" on="0"/>
        <pt x="560" y="1692" on="0"/>
        <pt x="546" y="1677" on="1"/>
      </contour>
    </TTGlyph>
    <TTGlyph name="B" xMin="-13" yMin="-20" xMax="1350" yMax="1538">
      <contour>
        <pt x="-4" y="106" on="1"/>
        <pt x="136" y="136" on="1"/>
        <pt x="303" y="1386" on="1"/>
        <pt x="158" y="1412" on="1"/>
        <pt x="171" y="1522" on="1"/>
        <pt x="507" y="1522" on="1"/>
        <pt x="551" y="1522" on="0"/>
        <pt x="637" y="1527" on="0"/>
        <pt x="726" y="1533" on="0"/>
        <pt x="817" y="1538" on="0"/>
        <pt x="866" y="1538" on="1"/>
        <pt x="1013" y="1538" on="0"/>
        <pt x="1197" y="1482" on="0"/>
        <pt x="1302" y="1390" on="0"/>
        <pt x="1342" y="1272" on="0"/>
        <pt x="1344" y="1210" on="1"/>
        <pt x="1350" y="1046" on="0"/>
        <pt x="1160" y="849" on="0"/>
        <pt x="968" y="803" on="1"/>
        <pt x="1055" y="805" on="0"/>
        <pt x="1191" y="756" on="0"/>
        <pt x="1286" y="672" on="0"/>
        <pt x="1336" y="561" on="0"/>
        <pt x="1336" y="500" on="1"/>
        <pt x="1336" y="359" on="0"/>
        <pt x="1242" y="161" on="0"/>
        <pt x="1057" y="37" on="0"/>
        <pt x="784" y="-20" on="0"/>
        <pt x="604" y="-20" on="1"/>
        <pt x="568" y="-20" on="0"/>
        <pt x="484" y="-14" on="0"/>
        <pt x="399" y="-6" on="0"/>
        <pt x="318" y="0" on="0"/>
        <pt x="284" y="0" on="1"/>
        <pt x="-13" y="0" on="1"/>
      </contour>
      <contour>
        <pt x="674" y="719" on="1"/>
        <pt x="645" y="719" on="0"/>
        <pt x="606" y="718" on="0"/>
        <pt x="578" y="717" on="0"/>
        <pt x="558" y="715" on="0"/>
        <pt x="549" y="714" on="1"/>
        <pt x="470" y="128" on="1"/>
        <pt x="489" y="123" on="0"/>
        <pt x="538" y="115" on="0"/>
        <pt x="587" y="109" on="0"/>
        <pt x="631" y="105" on="0"/>
        <pt x="647" y="105" on="1"/>
        <pt x="812" y="105" on="0"/>
        <pt x="976" y="279" on="0"/>
        <pt x="969" y="466" on="1"/>
        <pt x="967" y="530" on="0"/>
        <pt x="932" y="625" on="0"/>
        <pt x="862" y="688" on="0"/>
        <pt x="752" y="719" on="0"/>
      </contour>
      <contour>
        <pt x="787" y="1412" on="1"/>
        <pt x="775" y="1412" on="0"/>
        <pt x="740" y="1410" on="0"/>
        <pt x="699" y="1407" on="0"/>
        <pt x="658" y="1402" on="0"/>
        <pt x="641" y="1398" on="1"/>
        <pt x="568" y="856" on="1"/>
        <pt x="600" y="854" on="0"/>
        <pt x="656" y="856" on="0"/>
        <pt x="692" y="856" on="1"/>
        <pt x="757" y="856" on="0"/>
        <pt x="876" y="892" on="0"/>
        <pt x="966" y="970" on="0"/>
        <pt x="1017" y="1095" on="0"/>
        <pt x="1014" y="1184" on="1"/>
        <pt x="1009" y="1296" on="0"/>
        <pt x="895" y="1412" on="0"/>
      </contour>
    </TTGlyph>
    <TTGlyph name="C" xMin="60" yMin="-16" xMax="1341" yMax="1541">
      <contour>
        <pt x="60" y="637" on="1"/>
        <pt x="60" y="851" on="0"/>
        <pt x="187" y="1187" on="0"/>
        <pt x="419" y="1419" on="0"/>
        <pt x="748" y="1541" on="0"/>
        <pt x="949" y="1541" on="1"/>
        <pt x="1033" y="1541" on="0"/>
        <pt x="1145" y="1531" on="0"/>
        <pt x="1224" y="1516" on="0"/>
        <pt x="1280" y="1499" on="0"/>
        <pt x="1308" y="1493" on="1"/>
        <pt x="1341" y="1484" on="1"/>
        <pt x="1280" y="1084" on="1"/>
        <pt x="1027" y="1084" on="1"/>
        <pt x="987" y="1394" on="1"/>
        <pt x="966" y="1402" on="0"/>
        <pt x="918" y="1412" on="0"/>
        <pt x="892" y="1412" on="1"/>
        <pt x="813" y="1412" on="0"/>
        <pt x="684" y="1347" on="0"/>
        <pt x="585" y="1234" on="0"/>
        <pt x="513" y="1085" on="0"/>
        <pt x="468" y="917" on="0"/>
        <pt x="449" y="740" on="0"/>
        <pt x="451" y="657" on="1"/>
        <pt x="454" y="531" on="0"/>
        <pt x="489" y="339" on="0"/>
        <pt x="557" y="210" on="0"/>
        <pt x="660" y="145" on="0"/>
        <pt x="731" y="145" on="1"/>
        <pt x="747" y="145" on="0"/>
        <pt x="798" y="147" on="0"/>
        <pt x="857" y="161" on="0"/>
        <pt x="919" y="191" on="0"/>
        <pt x="948" y="219" on="1"/>
        <pt x="961" y="234" on="0"/>
        <pt x="984" y="279" on="0"/>
        <pt x="1003" y="332" on="0"/>
        <pt x="1020" y="390" on="0"/>
        <pt x="1028" y="419" on="1"/>
        <pt x="1229" y="420" on="1"/>
        <pt x="1186" y="136" on="1"/>
        <pt x="1157" y="112" on="0"/>
        <pt x="1075" y="59" on="0"/>
        <pt x="954" y="14" on="0"/>
        <pt x="789" y="-16" on="0"/>
        <pt x="677" y="-16" on="1"/>
        <pt x="507" y="-16" on="0"/>
        <pt x="272" y="90" on="0"/>
        <pt x="126" y="269" on="0"/>
        <pt x="60" y="506" on="0"/>
      </contour>
    </TTGlyph>
    <TTGlyph name="Cacute" xMin="60" yMin="-16" xMax="1341" yMax="2014">
      <contour>
        <pt x="60" y="637" on="1"/>
        <pt x="60" y="851" on="0"/>
        <pt x="187" y="1187" on="0"/>
        <pt x="419" y="1419" on="0"/>
        <pt x="748" y="1541" on="0"/>
        <pt x="949" y="1541" on="1"/>
        <pt x="1033" y="1541" on="0"/>
        <pt x="1145" y="1531" on="0"/>
        <pt x="1224" y="1516" on="0"/>
        <pt x="1280" y="1499" on="0"/>
        <pt x="1308" y="1493" on="1"/>
        <pt x="1341" y="1484" on="1"/>
        <pt x="1280" y="1084" on="1"/>
        <pt x="1027" y="1084" on="1"/>
        <pt x="987" y="1394" on="1"/>
        <pt x="966" y="1402" on="0"/>
        <pt x="918" y="1412" on="0"/>
        <pt x="892" y="1412" on="1"/>
        <pt x="813" y="1412" on="0"/>
        <pt x="684" y="1347" on="0"/>
        <pt x="585" y="1234" on="0"/>
        <pt x="513" y="1085" on="0"/>
        <pt x="468" y="917" on="0"/>
        <pt x="449" y="740" on="0"/>
        <pt x="451" y="657" on="1"/>
        <pt x="454" y="531" on="0"/>
        <pt x="489" y="339" on="0"/>
        <pt x="557" y="210" on="0"/>
        <pt x="660" y="145" on="0"/>
        <pt x="731" y="145" on="1"/>
        <pt x="747" y="145" on="0"/>
        <pt x="798" y="147" on="0"/>
        <pt x="857" y="161" on="0"/>
        <pt x="919" y="191" on="0"/>
        <pt x="948" y="219" on="1"/>
        <pt x="961" y="234" on="0"/>
        <pt x="984" y="279" on="0"/>
        <pt x="1003" y="332" on="0"/>
        <pt x="1020" y="390" on="0"/>
        <pt x="1028" y="419" on="1"/>
        <pt x="1229" y="420" on="1"/>
        <pt x="1186" y="136" on="1"/>
        <pt x="1157" y="112" on="0"/>
        <pt x="1075" y="59" on="0"/>
        <pt x="954" y="14" on="0"/>
        <pt x="789" y="-16" on="0"/>
        <pt x="677" y="-16" on="1"/>
        <pt x="507" y="-16" on="0"/>
        <pt x="272" y="90" on="0"/>
        <pt x="126" y="269" on="0"/>
        <pt x="60" y="506" on="0"/>
      </contour>
      <contour>
        <pt x="833" y="1672" on="1"/>
        <pt x="1109" y="2014" on="1"/>
        <pt x="1296" y="1829" on="1"/>
        <pt x="1276" y="1791" on="0"/>
        <pt x="1190" y="1711" on="0"/>
        <pt x="1088" y="1639" on="0"/>
        <pt x="985" y="1583" on="0"/>
        <pt x="949" y="1570" on="1"/>
      </contour>
    </TTGlyph>
    <TTGlyph name="Ccaron" xMin="60" yMin="-16" xMax="1383" yMax="2014">
      <contour>
        <pt x="60" y="637" on="1"/>
        <pt x="60" y="851" on="0"/>
        <pt x="187" y="1187" on="0"/>
        <pt x="419" y="1419" on="0"/>
        <pt x="748" y="1541" on="0"/>
        <pt x="949" y="1541" on="1"/>
        <pt x="1033" y="1541" on="0"/>
        <pt x="1145" y="1531" on="0"/>
        <pt x="1224" y="1516" on="0"/>
        <pt x="1280" y="1499" on="0"/>
        <pt x="1308" y="1493" on="1"/>
        <pt x="1341" y="1484" on="1"/>
        <pt x="1280" y="1084" on="1"/>
        <pt x="1027" y="1084" on="1"/>
        <pt x="987" y="1394" on="1"/>
        <pt x="966" y="1402" on="0"/>
        <pt x="918" y="1412" on="0"/>
        <pt x="892" y="1412" on="1"/>
        <pt x="813" y="1412" on="0"/>
        <pt x="684" y="1347" on="0"/>
        <pt x="585" y="1234" on="0"/>
        <pt x="513" y="1085" on="0"/>
        <pt x="468" y="917" on="0"/>
        <pt x="449" y="740" on="0"/>
        <pt x="451" y="657" on="1"/>
        <pt x="454" y="531" on="0"/>
        <pt x="489" y="339" on="0"/>
        <pt x="557" y="210" on="0"/>
        <pt x="660" y="145" on="0"/>
        <pt x="731" y="145" on="1"/>
        <pt x="747" y="145" on="0"/>
        <pt x="798" y="147" on="0"/>
        <pt x="857" y="161" on="0"/>
        <pt x="919" y="191" on="0"/>
        <pt x="948" y="219" on="1"/>
        <pt x="961" y="234" on="0"/>
        <pt x="984" y="279" on="0"/>
        <pt x="1003" y="332" on="0"/>
        <pt x="1020" y="390" on="0"/>
        <pt x="1028" y="419" on="1"/>
        <pt x="1229" y="420" on="1"/>
        <pt x="1186" y="136" on="1"/>
        <pt x="1157" y="112" on="0"/>
        <pt x="1075" y="59" on="0"/>
        <pt x="954" y="14" on="0"/>
        <pt x="789" y="-16" on="0"/>
        <pt x="677" y="-16" on="1"/>
        <pt x="507" y="-16" on="0"/>
        <pt x="272" y="90" on="0"/>
        <pt x="126" y="269" on="0"/>
        <pt x="60" y="506" on="0"/>
      </contour>
      <contour>
        <pt x="628" y="1956" on="1"/>
        <pt x="752" y="2014" on="1"/>
        <pt x="953" y="1842" on="1"/>
        <pt x="1276" y="2014" on="1"/>
        <pt x="1383" y="1957" on="1"/>
        <pt x="1015" y="1599" on="1"/>
        <pt x="838" y="1599" on="1"/>
      </contour>
    </TTGlyph>
    <TTGlyph name="Ccedilla" xMin="60" yMin="-482" xMax="1341" yMax="1541">
      <contour>
        <pt x="60" y="637" on="1"/>
        <pt x="60" y="851" on="0"/>
        <pt x="187" y="1187" on="0"/>
        <pt x="419" y="1419" on="0"/>
        <pt x="748" y="1541" on="0"/>
        <pt x="949" y="1541" on="1"/>
        <pt x="1033" y="1541" on="0"/>
        <pt x="1145" y="1531" on="0"/>
        <pt x="1224" y="1516" on="0"/>
        <pt x="1280" y="1499" on="0"/>
        <pt x="1308" y="1493" on="1"/>
        <pt x="1341" y="1484" on="1"/>
        <pt x="1280" y="1084" on="1"/>
        <pt x="1027" y="1084" on="1"/>
        <pt x="987" y="1394" on="1"/>
        <pt x="966" y="1402" on="0"/>
        <pt x="918" y="1412" on="0"/>
        <pt x="892" y="1412" on="1"/>
        <pt x="813" y="1412" on="0"/>
        <pt x="684" y="1347" on="0"/>
        <pt x="585" y="1234" on="0"/>
        <pt x="513" y="1085" on="0"/>
        <pt x="468" y="917" on="0"/>
        <pt x="449" y="740" on="0"/>
        <pt x="451" y="657" on="1"/>
        <pt x="454" y="531" on="0"/>
        <pt x="489" y="339" on="0"/>
        <pt x="557" y="210" on="0"/>
        <pt x="660" y="145" on="0"/>
        <pt x="731" y="145" on="1"/>
        <pt x="747" y="145" on="0"/>
        <pt x="798" y="147" on="0"/>
        <pt x="857" y="161" on="0"/>
        <pt x="919" y="191" on="0"/>
        <pt x="948" y="219" on="1"/>
        <pt x="961" y="234" on="0"/>
        <pt x="984" y="279" on="0"/>
        <pt x="1003" y="332" on="0"/>
        <pt x="1020" y="390" on="0"/>
        <pt x="1028" y="419" on="1"/>
        <pt x="1229" y="420" on="1"/>
        <pt x="1186" y="136" on="1"/>
        <pt x="1162" y="116" on="0"/>
        <pt x="1098" y="73" on="0"/>
        <pt x="1010" y="33" on="0"/>
        <pt x="895" y="0" on="0"/>
        <pt x="820" y="-8" on="1"/>
        <pt x="827" y="-30" on="0"/>
        <pt x="841" y="-87" on="0"/>
        <pt x="850" y="-149" on="0"/>
        <pt x="856" y="-210" on="0"/>
        <pt x="856" y="-236" on="1"/>
        <pt x="856" y="-292" on="0"/>
        <pt x="824" y="-383" on="0"/>
        <pt x="753" y="-447" on="0"/>
        <pt x="640" y="-482" on="0"/>
        <pt x="558" y="-482" on="1"/>
        <pt x="538" y="-482" on="0"/>
        <pt x="477" y="-478" on="0"/>
        <pt x="417" y="-470" on="0"/>
        <pt x="368" y="-460" on="0"/>
        <pt x="360" y="-454" on="1"/>
        <pt x="395" y="-301" on="1"/>
        <pt x="408" y="-308" on="0"/>
        <pt x="450" y="-317" on="0"/>
        <pt x="473" y="-317" on="1"/>
        <pt x="511" y="-317" on="0"/>
        <pt x="576" y="-301" on="0"/>
        <pt x="625" y="-264" on="0"/>
        <pt x="654" y="-200" on="0"/>
        <pt x="656" y="-152" on="1"/>
        <pt x="658" y="-113" on="0"/>
        <pt x="653" y="-43" on="0"/>
        <pt x="649" y="-15" on="1"/>
        <pt x="541" y="-12" on="0"/>
        <pt x="370" y="39" on="0"/>
        <pt x="239" y="127" on="0"/>
        <pt x="146" y="247" on="0"/>
        <pt x="87" y="390" on="0"/>
        <pt x="60" y="551" on="0"/>
      </contour>
    </TTGlyph>
    <TTGlyph name="Ccircumflex" xMin="60" yMin="-16" xMax="1341" yMax="2014">
      <contour>
        <pt x="60" y="637" on="1"/>
        <pt x="60" y="851" on="0"/>
        <pt x="187" y="1187" on="0"/>
        <pt x="419" y="1419" on="0"/>
        <pt x="748" y="1541" on="0"/>
        <pt x="949" y="1541" on="1"/>
        <pt x="1033" y="1541" on="0"/>
        <pt x="1145" y="1531" on="0"/>
        <pt x="1224" y="1516" on="0"/>
        <pt x="1280" y="1499" on="0"/>
        <pt x="1308" y="1493" on="1"/>
        <pt x="1341" y="1484" on="1"/>
        <pt x="1280" y="1084" on="1"/>
        <pt x="1027" y="1084" on="1"/>
        <pt x="987" y="1394" on="1"/>
        <pt x="966" y="1402" on="0"/>
        <pt x="918" y="1412" on="0"/>
        <pt x="892" y="1412" on="1"/>
        <pt x="813" y="1412" on="0"/>
        <pt x="684" y="1347" on="0"/>
        <pt x="585" y="1234" on="0"/>
        <pt x="513" y="1085" on="0"/>
        <pt x="468" y="917" on="0"/>
        <pt x="449" y="740" on="0"/>
        <pt x="451" y="657" on="1"/>
        <pt x="454" y="531" on="0"/>
        <pt x="489" y="339" on="0"/>
        <pt x="557" y="210" on="0"/>
        <pt x="660" y="145" on="0"/>
        <pt x="731" y="145" on="1"/>
        <pt x="747" y="145" on="0"/>
        <pt x="798" y="147" on="0"/>
        <pt x="857" y="161" on="0"/>
        <pt x="919" y="191" on="0"/>
        <pt x="948" y="219" on="1"/>
        <pt x="961" y="234" on="0"/>
        <pt x="984" y="279" on="0"/>
        <pt x="1003" y="332" on="0"/>
        <pt x="1020" y="390" on="0"/>
        <pt x="1028" y="419" on="1"/>
        <pt x="1229" y="420" on="1"/>
        <pt x="1186" y="136" on="1"/>
        <pt x="1157" y="112" on="0"/>
        <pt x="1075" y="59" on="0"/>
        <pt x="954" y="14" on="0"/>
        <pt x="789" y="-16" on="0"/>
        <pt x="677" y="-16" on="1"/>
        <pt x="507" y="-16" on="0"/>
        <pt x="272" y="90" on="0"/>
        <pt x="126" y="269" on="0"/>
        <pt x="60" y="506" on="0"/>
      </contour>
      <contour>
        <pt x="566" y="1657" on="1"/>
        <pt x="933" y="2014" on="1"/>
        <pt x="1111" y="2014" on="1"/>
        <pt x="1321" y="1657" on="1"/>
        <pt x="1197" y="1599" on="1"/>
        <pt x="996" y="1806" on="1"/>
        <pt x="673" y="1600" on="1"/>
      </contour>
    </TTGlyph>
    <TTGlyph name="Cdotaccent" xMin="60" yMin="-16" xMax="1341" yMax="1975">
      <contour>
        <pt x="924" y="1612" on="1"/>
        <pt x="891" y="1612" on="0"/>
        <pt x="828" y="1641" on="0"/>
        <pt x="780" y="1688" on="0"/>
        <pt x="751" y="1748" on="0"/>
        <pt x="752" y="1779" on="1"/>
        <pt x="753" y="1820" on="0"/>
        <pt x="784" y="1891" on="0"/>
        <pt x="838" y="1944" on="0"/>
        <pt x="914" y="1975" on="0"/>
        <pt x="960" y="1975" on="1"/>
        <pt x="1000" y="1975" on="0"/>
        <pt x="1066" y="1947" on="0"/>
        <pt x="1114" y="1902" on="0"/>
        <pt x="1141" y="1844" on="0"/>
        <pt x="1140" y="1814" on="1"/>
        <pt x="1139" y="1772" on="0"/>
        <pt x="1111" y="1699" on="0"/>
        <pt x="1057" y="1644" on="0"/>
        <pt x="977" y="1612" on="0"/>
      </contour>
      <contour>
        <pt x="60" y="637" on="1"/>
        <pt x="60" y="851" on="0"/>
        <pt x="187" y="1187" on="0"/>
        <pt x="419" y="1419" on="0"/>
        <pt x="748" y="1541" on="0"/>
        <pt x="949" y="1541" on="1"/>
        <pt x="1033" y="1541" on="0"/>
        <pt x="1145" y="1531" on="0"/>
        <pt x="1224" y="1516" on="0"/>
        <pt x="1280" y="1499" on="0"/>
        <pt x="1308" y="1493" on="1"/>
        <pt x="1341" y="1484" on="1"/>
        <pt x="1280" y="1084" on="1"/>
        <pt x="1027" y="1084" on="1"/>
        <pt x="987" y="1394" on="1"/>
        <pt x="966" y="1402" on="0"/>
        <pt x="918" y="1412" on="0"/>
        <pt x="892" y="1412" on="1"/>
        <pt x="813" y="1412" on="0"/>
        <pt x="684" y="1347" on="0"/>
        <pt x="585" y="1234" on="0"/>
        <pt x="513" y="1085" on="0"/>
        <pt x="468" y="917" on="0"/>
        <pt x="449" y="740" on="0"/>
        <pt x="451" y="657" on="1"/>
        <pt x="454" y="531" on="0"/>
        <pt x="489" y="339" on="0"/>
        <pt x="557" y="210" on="0"/>
        <pt x="660" y="145" on="0"/>
        <pt x="731" y="145" on="1"/>
        <pt x="747" y="145" on="0"/>
        <pt x="798" y="147" on="0"/>
        <pt x="857" y="161" on="0"/>
        <pt x="919" y="191" on="0"/>
        <pt x="948" y="219" on="1"/>
        <pt x="961" y="234" on="0"/>
        <pt x="984" y="279" on="0"/>
        <pt x="1003" y="332" on="0"/>
        <pt x="1020" y="390" on="0"/>
        <pt x="1028" y="419" on="1"/>
        <pt x="1229" y="420" on="1"/>
        <pt x="1186" y="136" on="1"/>
        <pt x="1157" y="112" on="0"/>
        <pt x="1075" y="59" on="0"/>
        <pt x="954" y="14" on="0"/>
        <pt x="789" y="-16" on="0"/>
        <pt x="677" y="-16" on="1"/>
        <pt x="507" y="-16" on="0"/>
        <pt x="272" y="90" on="0"/>
        <pt x="126" y="269" on="0"/>
        <pt x="60" y="506" on="0"/>
      </contour>
    </TTGlyph>
    <TTGlyph name="D" xMin="-35" yMin="-16" xMax="1497" yMax="1539">
      <contour>
        <pt x="-23" y="106" on="1"/>
        <pt x="135" y="136" on="1"/>
        <pt x="303" y="1386" on="1"/>
        <pt x="159" y="1412" on="1"/>
        <pt x="170" y="1522" on="1"/>
        <pt x="487" y="1522" on="1"/>
        <pt x="572" y="1523" on="0"/>
        <pt x="755" y="1538" on="0"/>
        <pt x="844" y="1538" on="1"/>
        <pt x="1025" y="1539" on="0"/>
        <pt x="1274" y="1445" on="0"/>
        <pt x="1429" y="1278" on="0"/>
        <pt x="1497" y="1052" on="0"/>
        <pt x="1497" y="921" on="1"/>
        <pt x="1497" y="715" on="0"/>
        <pt x="1396" y="370" on="0"/>
        <pt x="1179" y="122" on="0"/>
        <pt x="839" y="-16" on="0"/>
        <pt x="601" y="-16" on="1"/>
        <pt x="587" y="-16" on="0"/>
        <pt x="540" y="-11" on="0"/>
        <pt x="526" y="-9" on="1"/>
        <pt x="509" y="-8" on="0"/>
        <pt x="463" y="-5" on="0"/>
        <pt x="410" y="-2" on="0"/>
        <pt x="357" y="0" on="0"/>
        <pt x="333" y="0" on="1"/>
        <pt x="-35" y="0" on="1"/>
      </contour>
      <contour>
        <pt x="811" y="1412" on="1"/>
        <pt x="751" y="1412" on="0"/>
        <pt x="666" y="1394" on="0"/>
        <pt x="652" y="1386" on="1"/>
        <pt x="486" y="136" on="1"/>
        <pt x="515" y="125" on="0"/>
        <pt x="593" y="111" on="0"/>
        <pt x="622" y="111" on="1"/>
        <pt x="714" y="111" on="0"/>
        <pt x="860" y="179" on="0"/>
        <pt x="971" y="294" on="0"/>
        <pt x="1049" y="448" on="0"/>
        <pt x="1098" y="621" on="0"/>
        <pt x="1120" y="801" on="0"/>
        <pt x="1120" y="886" on="1"/>
        <pt x="1120" y="1028" on="0"/>
        <pt x="1083" y="1228" on="0"/>
        <pt x="1007" y="1354" on="0"/>
        <pt x="890" y="1412" on="0"/>
      </contour>
    </TTGlyph>
    <TTGlyph name="Dcaron" xMin="-35" yMin="-16" xMax="1497" yMax="2014">
      <contour>
        <pt x="599" y="1956" on="1"/>
        <pt x="723" y="2014" on="1"/>
        <pt x="924" y="1842" on="1"/>
        <pt x="1247" y="2014" on="1"/>
        <pt x="1354" y="1957" on="1"/>
        <pt x="986" y="1599" on="1"/>
        <pt x="809" y="1599" on="1"/>
      </contour>
      <contour>
        <pt x="-23" y="106" on="1"/>
        <pt x="135" y="136" on="1"/>
        <pt x="303" y="1386" on="1"/>
        <pt x="159" y="1412" on="1"/>
        <pt x="170" y="1522" on="1"/>
        <pt x="487" y="1522" on="1"/>
        <pt x="572" y="1523" on="0"/>
        <pt x="755" y="1538" on="0"/>
        <pt x="844" y="1538" on="1"/>
        <pt x="1025" y="1539" on="0"/>
        <pt x="1274" y="1445" on="0"/>
        <pt x="1429" y="1278" on="0"/>
        <pt x="1497" y="1052" on="0"/>
        <pt x="1497" y="921" on="1"/>
        <pt x="1497" y="715" on="0"/>
        <pt x="1396" y="370" on="0"/>
        <pt x="1179" y="122" on="0"/>
        <pt x="839" y="-16" on="0"/>
        <pt x="601" y="-16" on="1"/>
        <pt x="587" y="-16" on="0"/>
        <pt x="540" y="-11" on="0"/>
        <pt x="526" y="-9" on="1"/>
        <pt x="509" y="-8" on="0"/>
        <pt x="463" y="-5" on="0"/>
        <pt x="410" y="-2" on="0"/>
        <pt x="357" y="0" on="0"/>
        <pt x="333" y="0" on="1"/>
        <pt x="-35" y="0" on="1"/>
      </contour>
      <contour>
        <pt x="811" y="1412" on="1"/>
        <pt x="751" y="1412" on="0"/>
        <pt x="666" y="1394" on="0"/>
        <pt x="652" y="1386" on="1"/>
        <pt x="486" y="136" on="1"/>
        <pt x="515" y="125" on="0"/>
        <pt x="593" y="111" on="0"/>
        <pt x="622" y="111" on="1"/>
        <pt x="714" y="111" on="0"/>
        <pt x="860" y="179" on="0"/>
        <pt x="971" y="294" on="0"/>
        <pt x="1049" y="448" on="0"/>
        <pt x="1098" y="621" on="0"/>
        <pt x="1120" y="801" on="0"/>
        <pt x="1120" y="886" on="1"/>
        <pt x="1120" y="1028" on="0"/>
        <pt x="1083" y="1228" on="0"/>
        <pt x="1007" y="1354" on="0"/>
        <pt x="890" y="1412" on="0"/>
      </contour>
    </TTGlyph>
    <TTGlyph name="Dcroat" xMin="-35" yMin="-14" xMax="1497" yMax="1541">
      <contour>
        <pt x="100" y="872" on="1"/>
        <pt x="234" y="872" on="1"/>
        <pt x="303" y="1388" on="1"/>
        <pt x="159" y="1414" on="1"/>
        <pt x="170" y="1524" on="1"/>
        <pt x="470" y="1524" on="1"/>
        <pt x="558" y="1524" on="0"/>
        <pt x="750" y="1540" on="0"/>
        <pt x="844" y="1540" on="1"/>
        <pt x="1025" y="1541" on="0"/>
        <pt x="1274" y="1447" on="0"/>
        <pt x="1429" y="1280" on="0"/>
        <pt x="1497" y="1054" on="0"/>
        <pt x="1497" y="923" on="1"/>
        <pt x="1497" y="717" on="0"/>
        <pt x="1396" y="372" on="0"/>
        <pt x="1179" y="124" on="0"/>
        <pt x="839" y="-14" on="0"/>
        <pt x="601" y="-14" on="1"/>
        <pt x="587" y="-14" on="0"/>
        <pt x="540" y="-9" on="0"/>
        <pt x="526" y="-7" on="1"/>
        <pt x="507" y="-6" on="0"/>
        <pt x="452" y="-2" on="0"/>
        <pt x="392" y="0" on="0"/>
        <pt x="332" y="2" on="0"/>
        <pt x="308" y="2" on="1"/>
        <pt x="-35" y="2" on="1"/>
        <pt x="-23" y="108" on="1"/>
        <pt x="135" y="138" on="1"/>
        <pt x="211" y="702" on="1"/>
        <pt x="74" y="702" on="1"/>
      </contour>
      <contour>
        <pt x="561" y="702" on="1"/>
        <pt x="486" y="138" on="1"/>
        <pt x="515" y="127" on="0"/>
        <pt x="593" y="113" on="0"/>
        <pt x="622" y="113" on="1"/>
        <pt x="714" y="113" on="0"/>
        <pt x="860" y="181" on="0"/>
        <pt x="971" y="296" on="0"/>
        <pt x="1049" y="450" on="0"/>
        <pt x="1098" y="623" on="0"/>
        <pt x="1120" y="803" on="0"/>
        <pt x="1120" y="888" on="1"/>
        <pt x="1120" y="1030" on="0"/>
        <pt x="1083" y="1230" on="0"/>
        <pt x="1007" y="1356" on="0"/>
        <pt x="890" y="1414" on="0"/>
        <pt x="811" y="1414" on="1"/>
        <pt x="751" y="1414" on="0"/>
        <pt x="666" y="1396" on="0"/>
        <pt x="652" y="1388" on="1"/>
        <pt x="583" y="872" on="1"/>
        <pt x="879" y="872" on="1"/>
        <pt x="853" y="702" on="1"/>
      </contour>
    </TTGlyph>
    <TTGlyph name="Delta" xMin="-53" yMin="0" xMax="1352" yMax="1530">
      <contour>
        <pt x="-53" y="22" on="1"/>
        <pt x="711" y="1530" on="1"/>
        <pt x="783" y="1530" on="1"/>
        <pt x="1352" y="27" on="1"/>
        <pt x="1335" y="0" on="1"/>
        <pt x="-41" y="0" on="1"/>
      </contour>
      <contour>
        <pt x="960" y="252" on="1"/>
        <pt x="666" y="1075" on="1"/>
        <pt x="268" y="252" on="1"/>
      </contour>
    </TTGlyph>
    <TTGlyph name="Deltagreek" xMin="-53" yMin="0" xMax="1352" yMax="1530">
      <contour>
        <pt x="-53" y="22" on="1"/>
        <pt x="711" y="1530" on="1"/>
        <pt x="783" y="1530" on="1"/>
        <pt x="1352" y="27" on="1"/>
        <pt x="1335" y="0" on="1"/>
        <pt x="-41" y="0" on="1"/>
      </contour>
      <contour>
        <pt x="960" y="252" on="1"/>
        <pt x="666" y="1075" on="1"/>
        <pt x="268" y="252" on="1"/>
      </contour>
    </TTGlyph>
    <TTGlyph name="E" xMin="-37" yMin="0" xMax="1285" yMax="1522">
      <contour>
        <pt x="-23" y="106" on="1"/>
        <pt x="137" y="136" on="1"/>
        <pt x="301" y="1386" on="1"/>
        <pt x="156" y="1412" on="1"/>
        <pt x="167" y="1522" on="1"/>
        <pt x="1285" y="1522" on="1"/>
        <pt x="1249" y="1152" on="1"/>
        <pt x="1027" y="1152" on="1"/>
        <pt x="993" y="1376" on="1"/>
        <pt x="654" y="1402" on="1"/>
        <pt x="581" y="868" on="1"/>
        <pt x="1040" y="914" on="1"/>
        <pt x="1003" y="683" on="1"/>
        <pt x="562" y="712" on="1"/>
        <pt x="484" y="136" on="1"/>
        <pt x="947" y="171" on="1"/>
        <pt x="1064" y="468" on="1"/>
        <pt x="1277" y="454" on="1"/>
        <pt x="1207" y="0" on="1"/>
        <pt x="-37" y="0" on="1"/>
      </contour>
    </TTGlyph>
    <TTGlyph name="Eacute" xMin="-37" yMin="0" xMax="1285" yMax="2014">
      <contour>
        <pt x="730" y="1672" on="1"/>
        <pt x="1006" y="2014" on="1"/>
        <pt x="1193" y="1829" on="1"/>
        <pt x="1173" y="1791" on="0"/>
        <pt x="1087" y="1711" on="0"/>
        <pt x="985" y="1639" on="0"/>
        <pt x="882" y="1583" on="0"/>
        <pt x="846" y="1570" on="1"/>
      </contour>
      <contour>
        <pt x="-23" y="106" on="1"/>
        <pt x="137" y="136" on="1"/>
        <pt x="301" y="1386" on="1"/>
        <pt x="156" y="1412" on="1"/>
        <pt x="167" y="1522" on="1"/>
        <pt x="1285" y="1522" on="1"/>
        <pt x="1249" y="1152" on="1"/>
        <pt x="1027" y="1152" on="1"/>
        <pt x="993" y="1376" on="1"/>
        <pt x="654" y="1402" on="1"/>
        <pt x="581" y="868" on="1"/>
        <pt x="1040" y="914" on="1"/>
        <pt x="1003" y="683" on="1"/>
        <pt x="562" y="712" on="1"/>
        <pt x="484" y="136" on="1"/>
        <pt x="947" y="171" on="1"/>
        <pt x="1064" y="468" on="1"/>
        <pt x="1277" y="454" on="1"/>
        <pt x="1207" y="0" on="1"/>
        <pt x="-37" y="0" on="1"/>
      </contour>
    </TTGlyph>
    <TTGlyph name="Ebreve" xMin="-37" yMin="0" xMax="1285" yMax="2014">
      <contour>
        <pt x="836" y="1633" on="1"/>
        <pt x="732" y="1633" on="0"/>
        <pt x="608" y="1694" on="0"/>
        <pt x="542" y="1787" on="0"/>
        <pt x="522" y="1897" on="0"/>
        <pt x="522" y="1946" on="1"/>
        <pt x="522" y="1981" on="0"/>
        <pt x="528" y="2014" on="1"/>
        <pt x="713" y="2014" on="1"/>
        <pt x="713" y="1979" on="0"/>
        <pt x="717" y="1919" on="0"/>
        <pt x="741" y="1875" on="0"/>
        <pt x="793" y="1850" on="0"/>
        <pt x="841" y="1850" on="1"/>
        <pt x="896" y="1850" on="0"/>
        <pt x="961" y="1884" on="0"/>
        <pt x="995" y="1933" on="0"/>
        <pt x="1005" y="1990" on="0"/>
        <pt x="1005" y="2014" on="1"/>
        <pt x="1185" y="2014" on="1"/>
        <pt x="1185" y="1929" on="0"/>
        <pt x="1138" y="1789" on="0"/>
        <pt x="1048" y="1688" on="0"/>
        <pt x="918" y="1633" on="0"/>
      </contour>
      <contour>
        <pt x="-23" y="106" on="1"/>
        <pt x="137" y="136" on="1"/>
        <pt x="301" y="1386" on="1"/>
        <pt x="156" y="1412" on="1"/>
        <pt x="167" y="1522" on="1"/>
        <pt x="1285" y="1522" on="1"/>
        <pt x="1249" y="1152" on="1"/>
        <pt x="1027" y="1152" on="1"/>
        <pt x="993" y="1376" on="1"/>
        <pt x="654" y="1402" on="1"/>
        <pt x="581" y="868" on="1"/>
        <pt x="1040" y="914" on="1"/>
        <pt x="1003" y="683" on="1"/>
        <pt x="562" y="712" on="1"/>
        <pt x="484" y="136" on="1"/>
        <pt x="947" y="171" on="1"/>
        <pt x="1064" y="468" on="1"/>
        <pt x="1277" y="454" on="1"/>
        <pt x="1207" y="0" on="1"/>
        <pt x="-37" y="0" on="1"/>
      </contour>
    </TTGlyph>
    <TTGlyph name="Ecaron" xMin="-37" yMin="0" xMax="1285" yMax="2014">
      <contour>
        <pt x="525" y="1956" on="1"/>
        <pt x="649" y="2014" on="1"/>
        <pt x="850" y="1842" on="1"/>
        <pt x="1173" y="2014" on="1"/>
        <pt x="1280" y="1957" on="1"/>
        <pt x="912" y="1599" on="1"/>
        <pt x="735" y="1599" on="1"/>
      </contour>
      <contour>
        <pt x="-23" y="106" on="1"/>
        <pt x="137" y="136" on="1"/>
        <pt x="301" y="1386" on="1"/>
        <pt x="156" y="1412" on="1"/>
        <pt x="167" y="1522" on="1"/>
        <pt x="1285" y="1522" on="1"/>
        <pt x="1249" y="1152" on="1"/>
        <pt x="1027" y="1152" on="1"/>
        <pt x="993" y="1376" on="1"/>
        <pt x="654" y="1402" on="1"/>
        <pt x="581" y="868" on="1"/>
        <pt x="1040" y="914" on="1"/>
        <pt x="1003" y="683" on="1"/>
        <pt x="562" y="712" on="1"/>
        <pt x="484" y="136" on="1"/>
        <pt x="947" y="171" on="1"/>
        <pt x="1064" y="468" on="1"/>
        <pt x="1277" y="454" on="1"/>
        <pt x="1207" y="0" on="1"/>
        <pt x="-37" y="0" on="1"/>
      </contour>
    </TTGlyph>
    <TTGlyph name="Ecircumflex" xMin="-37" yMin="0" xMax="1285" yMax="2014">
      <contour>
        <pt x="-23" y="106" on="1"/>
        <pt x="137" y="136" on="1"/>
        <pt x="301" y="1386" on="1"/>
        <pt x="156" y="1412" on="1"/>
        <pt x="167" y="1522" on="1"/>
        <pt x="1285" y="1522" on="1"/>
        <pt x="1249" y="1152" on="1"/>
        <pt x="1027" y="1152" on="1"/>
        <pt x="993" y="1376" on="1"/>
        <pt x="654" y="1402" on="1"/>
        <pt x="581" y="868" on="1"/>
        <pt x="1040" y="914" on="1"/>
        <pt x="1003" y="683" on="1"/>
        <pt x="562" y="712" on="1"/>
        <pt x="484" y="136" on="1"/>
        <pt x="947" y="171" on="1"/>
        <pt x="1064" y="468" on="1"/>
        <pt x="1277" y="454" on="1"/>
        <pt x="1207" y="0" on="1"/>
        <pt x="-37" y="0" on="1"/>
      </contour>
      <contour>
        <pt x="463" y="1657" on="1"/>
        <pt x="830" y="2014" on="1"/>
        <pt x="1008" y="2014" on="1"/>
        <pt x="1218" y="1657" on="1"/>
        <pt x="1094" y="1599" on="1"/>
        <pt x="893" y="1806" on="1"/>
        <pt x="570" y="1600" on="1"/>
      </contour>
    </TTGlyph>
    <TTGlyph name="Edieresis" xMin="-37" yMin="0" xMax="1285" yMax="1984">
      <contour>
        <pt x="598" y="1661" on="1"/>
        <pt x="568" y="1661" on="0"/>
        <pt x="518" y="1684" on="0"/>
        <pt x="482" y="1723" on="0"/>
        <pt x="462" y="1777" on="0"/>
        <pt x="463" y="1808" on="1"/>
        <pt x="465" y="1890" on="0"/>
        <pt x="554" y="1984" on="0"/>
        <pt x="631" y="1984" on="1"/>
        <pt x="702" y="1984" on="0"/>
        <pt x="774" y="1903" on="0"/>
        <pt x="773" y="1843" on="1"/>
        <pt x="771" y="1759" on="0"/>
        <pt x="687" y="1661" on="0"/>
      </contour>
      <contour>
        <pt x="1050" y="1661" on="1"/>
        <pt x="1020" y="1661" on="0"/>
        <pt x="970" y="1684" on="0"/>
        <pt x="934" y="1723" on="0"/>
        <pt x="914" y="1777" on="0"/>
        <pt x="915" y="1808" on="1"/>
        <pt x="917" y="1890" on="0"/>
        <pt x="1006" y="1984" on="0"/>
        <pt x="1083" y="1984" on="1"/>
        <pt x="1154" y="1984" on="0"/>
        <pt x="1226" y="1903" on="0"/>
        <pt x="1225" y="1843" on="1"/>
        <pt x="1223" y="1759" on="0"/>
        <pt x="1139" y="1661" on="0"/>
      </contour>
      <contour>
        <pt x="-23" y="106" on="1"/>
        <pt x="137" y="136" on="1"/>
        <pt x="301" y="1386" on="1"/>
        <pt x="156" y="1412" on="1"/>
        <pt x="167" y="1522" on="1"/>
        <pt x="1285" y="1522" on="1"/>
        <pt x="1249" y="1152" on="1"/>
        <pt x="1027" y="1152" on="1"/>
        <pt x="993" y="1376" on="1"/>
        <pt x="654" y="1402" on="1"/>
        <pt x="581" y="868" on="1"/>
        <pt x="1040" y="914" on="1"/>
        <pt x="1003" y="683" on="1"/>
        <pt x="562" y="712" on="1"/>
        <pt x="484" y="136" on="1"/>
        <pt x="947" y="171" on="1"/>
        <pt x="1064" y="468" on="1"/>
        <pt x="1277" y="454" on="1"/>
        <pt x="1207" y="0" on="1"/>
        <pt x="-37" y="0" on="1"/>
      </contour>
    </TTGlyph>
    <TTGlyph name="Edotaccent" xMin="-37" yMin="0" xMax="1285" yMax="1975">
      <contour>
        <pt x="821" y="1612" on="1"/>
        <pt x="788" y="1612" on="0"/>
        <pt x="725" y="1641" on="0"/>
        <pt x="677" y="1688" on="0"/>
        <pt x="648" y="1748" on="0"/>
        <pt x="649" y="1779" on="1"/>
        <pt x="650" y="1820" on="0"/>
        <pt x="681" y="1891" on="0"/>
        <pt x="735" y="1944" on="0"/>
        <pt x="811" y="1975" on="0"/>
        <pt x="857" y="1975" on="1"/>
        <pt x="897" y="1975" on="0"/>
        <pt x="963" y="1947" on="0"/>
        <pt x="1011" y="1902" on="0"/>
        <pt x="1038" y="1844" on="0"/>
        <pt x="1037" y="1814" on="1"/>
        <pt x="1036" y="1772" on="0"/>
        <pt x="1008" y="1699" on="0"/>
        <pt x="954" y="1644" on="0"/>
        <pt x="874" y="1612" on="0"/>
      </contour>
      <contour>
        <pt x="-23" y="106" on="1"/>
        <pt x="137" y="136" on="1"/>
        <pt x="301" y="1386" on="1"/>
        <pt x="156" y="1412" on="1"/>
        <pt x="167" y="1522" on="1"/>
        <pt x="1285" y="1522" on="1"/>
        <pt x="1249" y="1152" on="1"/>
        <pt x="1027" y="1152" on="1"/>
        <pt x="993" y="1376" on="1"/>
        <pt x="654" y="1402" on="1"/>
        <pt x="581" y="868" on="1"/>
        <pt x="1040" y="914" on="1"/>
        <pt x="1003" y="683" on="1"/>
        <pt x="562" y="712" on="1"/>
        <pt x="484" y="136" on="1"/>
        <pt x="947" y="171" on="1"/>
        <pt x="1064" y="468" on="1"/>
        <pt x="1277" y="454" on="1"/>
        <pt x="1207" y="0" on="1"/>
        <pt x="-37" y="0" on="1"/>
      </contour>
    </TTGlyph>
    <TTGlyph name="Egrave" xMin="-37" yMin="0" xMax="1285" yMax="2014">
      <contour>
        <pt x="837" y="1570" on="1"/>
        <pt x="801" y="1583" on="0"/>
        <pt x="700" y="1638" on="0"/>
        <pt x="599" y="1708" on="0"/>
        <pt x="512" y="1789" on="0"/>
        <pt x="490" y="1829" on="1"/>
        <pt x="677" y="2014" on="1"/>
        <pt x="953" y="1672" on="1"/>
        <pt x="837" y="1570" on="1"/>
      </contour>
      <contour>
        <pt x="-23" y="106" on="1"/>
        <pt x="137" y="136" on="1"/>
        <pt x="301" y="1386" on="1"/>
        <pt x="156" y="1412" on="1"/>
        <pt x="167" y="1522" on="1"/>
        <pt x="1285" y="1522" on="1"/>
        <pt x="1249" y="1152" on="1"/>
        <pt x="1027" y="1152" on="1"/>
        <pt x="993" y="1376" on="1"/>
        <pt x="654" y="1402" on="1"/>
        <pt x="581" y="868" on="1"/>
        <pt x="1040" y="914" on="1"/>
        <pt x="1003" y="683" on="1"/>
        <pt x="562" y="712" on="1"/>
        <pt x="484" y="136" on="1"/>
        <pt x="947" y="171" on="1"/>
        <pt x="1064" y="468" on="1"/>
        <pt x="1277" y="454" on="1"/>
        <pt x="1207" y="0" on="1"/>
        <pt x="-37" y="0" on="1"/>
      </contour>
    </TTGlyph>
    <TTGlyph name="Emacron" xMin="-37" yMin="0" xMax="1285" yMax="1916">
      <contour>
        <pt x="568" y="1916" on="1"/>
        <pt x="1139" y="1916" on="1"/>
        <pt x="1119" y="1707" on="1"/>
        <pt x="548" y="1707" on="1"/>
      </contour>
      <contour>
        <pt x="-23" y="106" on="1"/>
        <pt x="137" y="136" on="1"/>
        <pt x="301" y="1386" on="1"/>
        <pt x="156" y="1412" on="1"/>
        <pt x="167" y="1522" on="1"/>
        <pt x="1285" y="1522" on="1"/>
        <pt x="1249" y="1152" on="1"/>
        <pt x="1027" y="1152" on="1"/>
        <pt x="993" y="1376" on="1"/>
        <pt x="654" y="1402" on="1"/>
        <pt x="581" y="868" on="1"/>
        <pt x="1040" y="914" on="1"/>
        <pt x="1003" y="683" on="1"/>
        <pt x="562" y="712" on="1"/>
        <pt x="484" y="136" on="1"/>
        <pt x="947" y="171" on="1"/>
        <pt x="1064" y="468" on="1"/>
        <pt x="1277" y="454" on="1"/>
        <pt x="1207" y="0" on="1"/>
        <pt x="-37" y="0" on="1"/>
      </contour>
    </TTGlyph>
    <TTGlyph name="Eng" xMin="-22" yMin="-485" xMax="1645" yMax="1530">
      <contour>
        <pt x="-14" y="106" on="1"/>
        <pt x="135" y="136" on="1"/>
        <pt x="316" y="1394" on="1"/>
        <pt x="146" y="1420" on="1"/>
        <pt x="162" y="1530" on="1"/>
        <pt x="719" y="1530" on="1"/>
        <pt x="1110" y="620" on="1"/>
        <pt x="1181" y="370" on="1"/>
        <pt x="1304" y="1394" on="1"/>
        <pt x="1132" y="1420" on="1"/>
        <pt x="1143" y="1530" on="1"/>
        <pt x="1645" y="1530" on="1"/>
        <pt x="1634" y="1420" on="1"/>
        <pt x="1511" y="1394" on="1"/>
        <pt x="1304" y="0" on="1"/>
        <pt x="1291" y="-90" on="0"/>
        <pt x="1209" y="-259" on="0"/>
        <pt x="1075" y="-392" on="0"/>
        <pt x="890" y="-478" on="0"/>
        <pt x="773" y="-485" on="1"/>
        <pt x="725" y="-367" on="1"/>
        <pt x="773" y="-358" on="0"/>
        <pt x="880" y="-298" on="0"/>
        <pt x="968" y="-202" on="0"/>
        <pt x="1022" y="-75" on="0"/>
        <pt x="1017" y="0" on="1"/>
        <pt x="550" y="1028" on="1"/>
        <pt x="472" y="1282" on="1"/>
        <pt x="352" y="136" on="1"/>
        <pt x="542" y="106" on="1"/>
        <pt x="531" y="0" on="1"/>
        <pt x="-22" y="0" on="1"/>
      </contour>
    </TTGlyph>
    <TTGlyph name="Eogonek" xMin="-37" yMin="-480" xMax="1285" yMax="1522">
      <contour>
        <pt x="-23" y="106" on="1"/>
        <pt x="137" y="136" on="1"/>
        <pt x="301" y="1386" on="1"/>
        <pt x="156" y="1412" on="1"/>
        <pt x="167" y="1522" on="1"/>
        <pt x="1285" y="1522" on="1"/>
        <pt x="1249" y="1152" on="1"/>
        <pt x="1027" y="1152" on="1"/>
        <pt x="993" y="1376" on="1"/>
        <pt x="654" y="1402" on="1"/>
        <pt x="581" y="868" on="1"/>
        <pt x="1040" y="914" on="1"/>
        <pt x="1003" y="683" on="1"/>
        <pt x="562" y="712" on="1"/>
        <pt x="484" y="136" on="1"/>
        <pt x="947" y="171" on="1"/>
        <pt x="1064" y="468" on="1"/>
        <pt x="1277" y="454" on="1"/>
        <pt x="1207" y="0" on="1"/>
        <pt x="1119" y="0" on="1"/>
        <pt x="1078" y="-28" on="0"/>
        <pt x="1007" y="-84" on="0"/>
        <pt x="955" y="-139" on="0"/>
        <pt x="925" y="-191" on="0"/>
        <pt x="925" y="-215" on="1"/>
        <pt x="925" y="-258" on="0"/>
        <pt x="963" y="-287" on="0"/>
        <pt x="992" y="-287" on="1"/>
        <pt x="1033" y="-287" on="0"/>
        <pt x="1103" y="-245" on="0"/>
        <pt x="1145" y="-212" on="1"/>
        <pt x="1181" y="-326" on="1"/>
        <pt x="1151" y="-357" on="0"/>
        <pt x="1076" y="-413" on="0"/>
        <pt x="990" y="-455" on="0"/>
        <pt x="891" y="-480" on="0"/>
        <pt x="837" y="-480" on="1"/>
        <pt x="740" y="-480" on="0"/>
        <pt x="644" y="-385" on="0"/>
        <pt x="644" y="-306" on="1"/>
        <pt x="644" y="-281" on="0"/>
        <pt x="669" y="-211" on="0"/>
        <pt x="689" y="-182" on="1"/>
        <pt x="715" y="-144" on="0"/>
        <pt x="768" y="-87" on="0"/>
        <pt x="822" y="-44" on="0"/>
        <pt x="874" y="-13" on="0"/>
        <pt x="900" y="0" on="1"/>
        <pt x="-37" y="0" on="1"/>
      </contour>
    </TTGlyph>
    <TTGlyph name="Eth" xMin="-35" yMin="-14" xMax="1497" yMax="1541">
      <contour>
        <pt x="100" y="872" on="1"/>
        <pt x="234" y="872" on="1"/>
        <pt x="303" y="1388" on="1"/>
        <pt x="159" y="1414" on="1"/>
        <pt x="170" y="1524" on="1"/>
        <pt x="470" y="1524" on="1"/>
        <pt x="558" y="1524" on="0"/>
        <pt x="750" y="1540" on="0"/>
        <pt x="844" y="1540" on="1"/>
        <pt x="1025" y="1541" on="0"/>
        <pt x="1274" y="1447" on="0"/>
        <pt x="1429" y="1280" on="0"/>
        <pt x="1497" y="1054" on="0"/>
        <pt x="1497" y="923" on="1"/>
        <pt x="1497" y="717" on="0"/>
        <pt x="1396" y="372" on="0"/>
        <pt x="1179" y="124" on="0"/>
        <pt x="839" y="-14" on="0"/>
        <pt x="601" y="-14" on="1"/>
        <pt x="587" y="-14" on="0"/>
        <pt x="540" y="-9" on="0"/>
        <pt x="526" y="-7" on="1"/>
        <pt x="507" y="-6" on="0"/>
        <pt x="452" y="-2" on="0"/>
        <pt x="392" y="0" on="0"/>
        <pt x="332" y="2" on="0"/>
        <pt x="308" y="2" on="1"/>
        <pt x="-35" y="2" on="1"/>
        <pt x="-23" y="108" on="1"/>
        <pt x="135" y="138" on="1"/>
        <pt x="211" y="702" on="1"/>
        <pt x="74" y="702" on="1"/>
      </contour>
      <contour>
        <pt x="561" y="702" on="1"/>
        <pt x="486" y="138" on="1"/>
        <pt x="515" y="127" on="0"/>
        <pt x="593" y="113" on="0"/>
        <pt x="622" y="113" on="1"/>
        <pt x="714" y="113" on="0"/>
        <pt x="860" y="181" on="0"/>
        <pt x="971" y="296" on="0"/>
        <pt x="1049" y="450" on="0"/>
        <pt x="1098" y="623" on="0"/>
        <pt x="1120" y="803" on="0"/>
        <pt x="1120" y="888" on="1"/>
        <pt x="1120" y="1030" on="0"/>
        <pt x="1083" y="1230" on="0"/>
        <pt x="1007" y="1356" on="0"/>
        <pt x="890" y="1414" on="0"/>
        <pt x="811" y="1414" on="1"/>
        <pt x="751" y="1414" on="0"/>
        <pt x="666" y="1396" on="0"/>
        <pt x="652" y="1388" on="1"/>
        <pt x="583" y="872" on="1"/>
        <pt x="879" y="872" on="1"/>
        <pt x="853" y="702" on="1"/>
      </contour>
    </TTGlyph>
    <TTGlyph name="Euro" xMin="38" yMin="-16" xMax="1407" yMax="1546">
      <contour>
        <pt x="129" y="1054" on="1"/>
        <pt x="297" y="1054" on="1"/>
        <pt x="342" y="1181" on="0"/>
        <pt x="487" y="1367" on="0"/>
        <pt x="669" y="1488" on="0"/>
        <pt x="880" y="1546" on="0"/>
        <pt x="991" y="1546" on="1"/>
        <pt x="1049" y="1546" on="0"/>
        <pt x="1142" y="1536" on="0"/>
        <pt x="1217" y="1520" on="0"/>
        <pt x="1278" y="1501" on="0"/>
        <pt x="1305" y="1492" on="1"/>
        <pt x="1314" y="1489" on="0"/>
        <pt x="1343" y="1484" on="0"/>
        <pt x="1374" y="1478" on="0"/>
        <pt x="1401" y="1473" on="0"/>
        <pt x="1407" y="1472" on="1"/>
        <pt x="1341" y="1120" on="1"/>
        <pt x="1207" y="1120" on="1"/>
        <pt x="1187" y="1328" on="1"/>
        <pt x="1167" y="1346" on="0"/>
        <pt x="1122" y="1375" on="0"/>
        <pt x="1064" y="1395" on="0"/>
        <pt x="992" y="1406" on="0"/>
        <pt x="947" y="1406" on="1"/>
        <pt x="891" y="1406" on="0"/>
        <pt x="795" y="1358" on="0"/>
        <pt x="715" y="1267" on="0"/>
        <pt x="651" y="1136" on="0"/>
        <pt x="628" y="1054" on="1"/>
        <pt x="1055" y="1054" on="1"/>
        <pt x="1037" y="904" on="1"/>
        <pt x="597" y="904" on="1"/>
        <pt x="589" y="855" on="0"/>
        <pt x="579" y="751" on="0"/>
        <pt x="577" y="695" on="1"/>
        <pt x="980" y="695" on="1"/>
        <pt x="967" y="544" on="1"/>
        <pt x="577" y="544" on="1"/>
        <pt x="587" y="346" on="0"/>
        <pt x="712" y="147" on="0"/>
        <pt x="813" y="147" on="1"/>
        <pt x="861" y="147" on="0"/>
        <pt x="928" y="159" on="0"/>
        <pt x="978" y="180" on="0"/>
        <pt x="1013" y="208" on="0"/>
        <pt x="1028" y="225" on="1"/>
        <pt x="1100" y="413" on="1"/>
        <pt x="1240" y="412" on="1"/>
        <pt x="1190" y="70" on="1"/>
        <pt x="1175" y="69" on="0"/>
        <pt x="1136" y="64" on="0"/>
        <pt x="1093" y="57" on="0"/>
        <pt x="1050" y="49" on="0"/>
        <pt x="1032" y="44" on="1"/>
        <pt x="1003" y="35" on="0"/>
        <pt x="945" y="14" on="0"/>
        <pt x="877" y="-4" on="0"/>
        <pt x="796" y="-16" on="0"/>
        <pt x="744" y="-16" on="1"/>
        <pt x="619" y="-16" on="0"/>
        <pt x="436" y="66" on="0"/>
        <pt x="314" y="214" on="0"/>
        <pt x="248" y="420" on="0"/>
        <pt x="239" y="544" on="1"/>
        <pt x="38" y="544" on="1"/>
        <pt x="55" y="695" on="1"/>
        <pt x="235" y="695" on="1"/>
        <pt x="237" y="752" on="0"/>
        <pt x="248" y="855" on="0"/>
        <pt x="258" y="904" on="1"/>
        <pt x="110" y="904" on="1"/>
      </contour>
    </TTGlyph>
    <TTGlyph name="F" xMin="-12" yMin="0" xMax="1303" yMax="1522">
      <contour>
        <pt x="-1" y="106" on="1"/>
        <pt x="137" y="136" on="1"/>
        <pt x="301" y="1386" on="1"/>
        <pt x="156" y="1412" on="1"/>
        <pt x="170" y="1522" on="1"/>
        <pt x="1303" y="1522" on="1"/>
        <pt x="1262" y="1139" on="1"/>
        <pt x="1041" y="1139" on="1"/>
        <pt x="1011" y="1376" on="1"/>
        <pt x="656" y="1400" on="1"/>
        <pt x="581" y="859" on="1"/>
        <pt x="1062" y="886" on="1"/>
        <pt x="1031" y="662" on="1"/>
        <pt x="561" y="701" on="1"/>
        <pt x="489" y="136" on="1"/>
        <pt x="766" y="106" on="1"/>
        <pt x="758" y="0" on="1"/>
        <pt x="-12" y="0" on="1"/>
      </contour>
    </TTGlyph>
    <TTGlyph name="G" xMin="56" yMin="-16" xMax="1395" yMax="1541">
      <contour>
        <pt x="60" y="627" on="1"/>
        <pt x="56" y="832" on="0"/>
        <pt x="160" y="1169" on="0"/>
        <pt x="371" y="1409" on="0"/>
        <pt x="689" y="1541" on="0"/>
        <pt x="900" y="1541" on="1"/>
        <pt x="993" y="1541" on="0"/>
        <pt x="1127" y="1528" on="0"/>
        <pt x="1226" y="1510" on="0"/>
        <pt x="1300" y="1490" on="0"/>
        <pt x="1333" y="1482" on="1"/>
        <pt x="1395" y="1471" on="1"/>
        <pt x="1330" y="1138" on="1"/>
        <pt x="1089" y="1138" on="1"/>
        <pt x="1079" y="1369" on="1"/>
        <pt x="1043" y="1389" on="0"/>
        <pt x="955" y="1412" on="0"/>
        <pt x="903" y="1412" on="1"/>
        <pt x="764" y="1412" on="0"/>
        <pt x="583" y="1291" on="0"/>
        <pt x="476" y="1084" on="0"/>
        <pt x="433" y="811" on="0"/>
        <pt x="433" y="658" on="1"/>
        <pt x="433" y="548" on="0"/>
        <pt x="465" y="358" on="0"/>
        <pt x="531" y="216" on="0"/>
        <pt x="633" y="135" on="0"/>
        <pt x="704" y="135" on="1"/>
        <pt x="774" y="135" on="0"/>
        <pt x="881" y="147" on="0"/>
        <pt x="925" y="163" on="1"/>
        <pt x="978" y="590" on="1"/>
        <pt x="776" y="607" on="1"/>
        <pt x="795" y="753" on="1"/>
        <pt x="1351" y="753" on="1"/>
        <pt x="1262" y="84" on="1"/>
        <pt x="1246" y="82" on="0"/>
        <pt x="1199" y="76" on="0"/>
        <pt x="1147" y="68" on="0"/>
        <pt x="1094" y="57" on="0"/>
        <pt x="1072" y="51" on="1"/>
        <pt x="1028" y="40" on="0"/>
        <pt x="933" y="16" on="0"/>
        <pt x="827" y="-4" on="0"/>
        <pt x="707" y="-16" on="0"/>
        <pt x="637" y="-16" on="1"/>
        <pt x="484" y="-16" on="0"/>
        <pt x="268" y="89" on="0"/>
        <pt x="129" y="267" on="0"/>
        <pt x="62" y="499" on="0"/>
      </contour>
      <contour>
        <pt x="1193" y="1263" on="1"/>
        <pt x="1172" y="1291" on="1"/>
        <pt x="1178" y="1284" on="0"/>
        <pt x="1188" y="1270" on="0"/>
      </contour>
    </TTGlyph>
    <TTGlyph name="Gbreve" xMin="56" yMin="-16" xMax="1395" yMax="2014">
      <contour>
        <pt x="916" y="1633" on="1"/>
        <pt x="812" y="1633" on="0"/>
        <pt x="688" y="1694" on="0"/>
        <pt x="622" y="1787" on="0"/>
        <pt x="602" y="1897" on="0"/>
        <pt x="602" y="1946" on="1"/>
        <pt x="602" y="1981" on="0"/>
        <pt x="608" y="2014" on="1"/>
        <pt x="793" y="2014" on="1"/>
        <pt x="793" y="1979" on="0"/>
        <pt x="797" y="1919" on="0"/>
        <pt x="821" y="1875" on="0"/>
        <pt x="873" y="1850" on="0"/>
        <pt x="921" y="1850" on="1"/>
        <pt x="976" y="1850" on="0"/>
        <pt x="1041" y="1884" on="0"/>
        <pt x="1075" y="1933" on="0"/>
        <pt x="1085" y="1990" on="0"/>
        <pt x="1085" y="2014" on="1"/>
        <pt x="1265" y="2014" on="1"/>
        <pt x="1265" y="1929" on="0"/>
        <pt x="1218" y="1789" on="0"/>
        <pt x="1128" y="1688" on="0"/>
        <pt x="998" y="1633" on="0"/>
      </contour>
      <contour>
        <pt x="60" y="627" on="1"/>
        <pt x="56" y="832" on="0"/>
        <pt x="160" y="1169" on="0"/>
        <pt x="371" y="1409" on="0"/>
        <pt x="689" y="1541" on="0"/>
        <pt x="900" y="1541" on="1"/>
        <pt x="993" y="1541" on="0"/>
        <pt x="1127" y="1528" on="0"/>
        <pt x="1226" y="1510" on="0"/>
        <pt x="1300" y="1490" on="0"/>
        <pt x="1333" y="1482" on="1"/>
        <pt x="1395" y="1471" on="1"/>
        <pt x="1330" y="1138" on="1"/>
        <pt x="1089" y="1138" on="1"/>
        <pt x="1079" y="1369" on="1"/>
        <pt x="1043" y="1389" on="0"/>
        <pt x="955" y="1412" on="0"/>
        <pt x="903" y="1412" on="1"/>
        <pt x="764" y="1412" on="0"/>
        <pt x="583" y="1291" on="0"/>
        <pt x="476" y="1084" on="0"/>
        <pt x="433" y="811" on="0"/>
        <pt x="433" y="658" on="1"/>
        <pt x="433" y="548" on="0"/>
        <pt x="465" y="358" on="0"/>
        <pt x="531" y="216" on="0"/>
        <pt x="633" y="135" on="0"/>
        <pt x="704" y="135" on="1"/>
        <pt x="774" y="135" on="0"/>
        <pt x="881" y="147" on="0"/>
        <pt x="925" y="163" on="1"/>
        <pt x="978" y="590" on="1"/>
        <pt x="776" y="607" on="1"/>
        <pt x="795" y="753" on="1"/>
        <pt x="1351" y="753" on="1"/>
        <pt x="1262" y="84" on="1"/>
        <pt x="1246" y="82" on="0"/>
        <pt x="1199" y="76" on="0"/>
        <pt x="1147" y="68" on="0"/>
        <pt x="1094" y="57" on="0"/>
        <pt x="1072" y="51" on="1"/>
        <pt x="1028" y="40" on="0"/>
        <pt x="933" y="16" on="0"/>
        <pt x="827" y="-4" on="0"/>
        <pt x="707" y="-16" on="0"/>
        <pt x="637" y="-16" on="1"/>
        <pt x="484" y="-16" on="0"/>
        <pt x="268" y="89" on="0"/>
        <pt x="129" y="267" on="0"/>
        <pt x="62" y="499" on="0"/>
      </contour>
      <contour>
        <pt x="1193" y="1263" on="1"/>
        <pt x="1172" y="1291" on="1"/>
        <pt x="1178" y="1284" on="0"/>
        <pt x="1188" y="1270" on="0"/>
      </contour>
    </TTGlyph>
    <TTGlyph name="Gcircumflex" xMin="56" yMin="-16" xMax="1395" yMax="2014">
      <contour>
        <pt x="60" y="627" on="1"/>
        <pt x="56" y="832" on="0"/>
        <pt x="160" y="1169" on="0"/>
        <pt x="371" y="1409" on="0"/>
        <pt x="689" y="1541" on="0"/>
        <pt x="900" y="1541" on="1"/>
        <pt x="993" y="1541" on="0"/>
        <pt x="1127" y="1528" on="0"/>
        <pt x="1226" y="1510" on="0"/>
        <pt x="1300" y="1490" on="0"/>
        <pt x="1333" y="1482" on="1"/>
        <pt x="1395" y="1471" on="1"/>
        <pt x="1330" y="1138" on="1"/>
        <pt x="1089" y="1138" on="1"/>
        <pt x="1079" y="1369" on="1"/>
        <pt x="1043" y="1389" on="0"/>
        <pt x="955" y="1412" on="0"/>
        <pt x="903" y="1412" on="1"/>
        <pt x="764" y="1412" on="0"/>
        <pt x="583" y="1291" on="0"/>
        <pt x="476" y="1084" on="0"/>
        <pt x="433" y="811" on="0"/>
        <pt x="433" y="658" on="1"/>
        <pt x="433" y="548" on="0"/>
        <pt x="465" y="358" on="0"/>
        <pt x="531" y="216" on="0"/>
        <pt x="633" y="135" on="0"/>
        <pt x="704" y="135" on="1"/>
        <pt x="774" y="135" on="0"/>
        <pt x="881" y="147" on="0"/>
        <pt x="925" y="163" on="1"/>
        <pt x="978" y="590" on="1"/>
        <pt x="776" y="607" on="1"/>
        <pt x="795" y="753" on="1"/>
        <pt x="1351" y="753" on="1"/>
        <pt x="1262" y="84" on="1"/>
        <pt x="1246" y="82" on="0"/>
        <pt x="1199" y="76" on="0"/>
        <pt x="1147" y="68" on="0"/>
        <pt x="1094" y="57" on="0"/>
        <pt x="1072" y="51" on="1"/>
        <pt x="1028" y="40" on="0"/>
        <pt x="933" y="16" on="0"/>
        <pt x="827" y="-4" on="0"/>
        <pt x="707" y="-16" on="0"/>
        <pt x="637" y="-16" on="1"/>
        <pt x="484" y="-16" on="0"/>
        <pt x="268" y="89" on="0"/>
        <pt x="129" y="267" on="0"/>
        <pt x="62" y="499" on="0"/>
      </contour>
      <contour>
        <pt x="1193" y="1263" on="1"/>
        <pt x="1172" y="1291" on="1"/>
        <pt x="1178" y="1284" on="0"/>
        <pt x="1188" y="1270" on="0"/>
      </contour>
      <contour>
        <pt x="543" y="1657" on="1"/>
        <pt x="910" y="2014" on="1"/>
        <pt x="1088" y="2014" on="1"/>
        <pt x="1298" y="1657" on="1"/>
        <pt x="1174" y="1599" on="1"/>
        <pt x="973" y="1806" on="1"/>
        <pt x="650" y="1600" on="1"/>
      </contour>
    </TTGlyph>
    <TTGlyph name="Gcommaaccent" xMin="56" yMin="-560" xMax="1395" yMax="1541">
      <contour>
        <pt x="554" y="-490" on="1"/>
        <pt x="557" y="-464" on="1"/>
        <pt x="566" y="-459" on="0"/>
        <pt x="589" y="-438" on="0"/>
        <pt x="610" y="-405" on="0"/>
        <pt x="625" y="-362" on="0"/>
        <pt x="625" y="-335" on="1"/>
        <pt x="625" y="-316" on="0"/>
        <pt x="615" y="-281" on="0"/>
        <pt x="597" y="-253" on="0"/>
        <pt x="573" y="-236" on="0"/>
        <pt x="558" y="-234" on="1"/>
        <pt x="569" y="-141" on="1"/>
        <pt x="723" y="-37" on="1"/>
        <pt x="757" y="-44" on="0"/>
        <pt x="815" y="-83" on="0"/>
        <pt x="857" y="-139" on="0"/>
        <pt x="881" y="-210" on="0"/>
        <pt x="881" y="-249" on="1"/>
        <pt x="881" y="-313" on="0"/>
        <pt x="839" y="-421" on="0"/>
        <pt x="773" y="-502" on="0"/>
        <pt x="693" y="-553" on="0"/>
        <pt x="654" y="-560" on="1"/>
      </contour>
      <contour>
        <pt x="60" y="627" on="1"/>
        <pt x="56" y="832" on="0"/>
        <pt x="160" y="1169" on="0"/>
        <pt x="371" y="1409" on="0"/>
        <pt x="689" y="1541" on="0"/>
        <pt x="900" y="1541" on="1"/>
        <pt x="993" y="1541" on="0"/>
        <pt x="1127" y="1528" on="0"/>
        <pt x="1226" y="1510" on="0"/>
        <pt x="1300" y="1490" on="0"/>
        <pt x="1333" y="1482" on="1"/>
        <pt x="1395" y="1471" on="1"/>
        <pt x="1330" y="1138" on="1"/>
        <pt x="1089" y="1138" on="1"/>
        <pt x="1079" y="1369" on="1"/>
        <pt x="1043" y="1389" on="0"/>
        <pt x="955" y="1412" on="0"/>
        <pt x="903" y="1412" on="1"/>
        <pt x="764" y="1412" on="0"/>
        <pt x="583" y="1291" on="0"/>
        <pt x="476" y="1084" on="0"/>
        <pt x="433" y="811" on="0"/>
        <pt x="433" y="658" on="1"/>
        <pt x="433" y="548" on="0"/>
        <pt x="465" y="358" on="0"/>
        <pt x="531" y="216" on="0"/>
        <pt x="633" y="135" on="0"/>
        <pt x="704" y="135" on="1"/>
        <pt x="774" y="135" on="0"/>
        <pt x="881" y="147" on="0"/>
        <pt x="925" y="163" on="1"/>
        <pt x="978" y="590" on="1"/>
        <pt x="776" y="607" on="1"/>
        <pt x="795" y="753" on="1"/>
        <pt x="1351" y="753" on="1"/>
        <pt x="1262" y="84" on="1"/>
        <pt x="1246" y="82" on="0"/>
        <pt x="1199" y="76" on="0"/>
        <pt x="1147" y="68" on="0"/>
        <pt x="1094" y="57" on="0"/>
        <pt x="1072" y="51" on="1"/>
        <pt x="1028" y="40" on="0"/>
        <pt x="933" y="16" on="0"/>
        <pt x="827" y="-4" on="0"/>
        <pt x="707" y="-16" on="0"/>
        <pt x="637" y="-16" on="1"/>
        <pt x="484" y="-16" on="0"/>
        <pt x="268" y="89" on="0"/>
        <pt x="129" y="267" on="0"/>
        <pt x="62" y="499" on="0"/>
      </contour>
      <contour>
        <pt x="1193" y="1263" on="1"/>
        <pt x="1172" y="1291" on="1"/>
        <pt x="1178" y="1284" on="0"/>
        <pt x="1188" y="1270" on="0"/>
      </contour>
    </TTGlyph>
    <TTGlyph name="Gdotaccent" xMin="56" yMin="-16" xMax="1395" yMax="1975">
      <contour>
        <pt x="901" y="1612" on="1"/>
        <pt x="868" y="1612" on="0"/>
        <pt x="805" y="1641" on="0"/>
        <pt x="757" y="1688" on="0"/>
        <pt x="728" y="1748" on="0"/>
        <pt x="729" y="1779" on="1"/>
        <pt x="730" y="1820" on="0"/>
        <pt x="761" y="1891" on="0"/>
        <pt x="815" y="1944" on="0"/>
        <pt x="891" y="1975" on="0"/>
        <pt x="937" y="1975" on="1"/>
        <pt x="977" y="1975" on="0"/>
        <pt x="1043" y="1947" on="0"/>
        <pt x="1091" y="1902" on="0"/>
        <pt x="1118" y="1844" on="0"/>
        <pt x="1117" y="1814" on="1"/>
        <pt x="1116" y="1772" on="0"/>
        <pt x="1088" y="1699" on="0"/>
        <pt x="1034" y="1644" on="0"/>
        <pt x="954" y="1612" on="0"/>
      </contour>
      <contour>
        <pt x="60" y="627" on="1"/>
        <pt x="56" y="832" on="0"/>
        <pt x="160" y="1169" on="0"/>
        <pt x="371" y="1409" on="0"/>
        <pt x="689" y="1541" on="0"/>
        <pt x="900" y="1541" on="1"/>
        <pt x="993" y="1541" on="0"/>
        <pt x="1127" y="1528" on="0"/>
        <pt x="1226" y="1510" on="0"/>
        <pt x="1300" y="1490" on="0"/>
        <pt x="1333" y="1482" on="1"/>
        <pt x="1395" y="1471" on="1"/>
        <pt x="1330" y="1138" on="1"/>
        <pt x="1089" y="1138" on="1"/>
        <pt x="1079" y="1369" on="1"/>
        <pt x="1043" y="1389" on="0"/>
        <pt x="955" y="1412" on="0"/>
        <pt x="903" y="1412" on="1"/>
        <pt x="764" y="1412" on="0"/>
        <pt x="583" y="1291" on="0"/>
        <pt x="476" y="1084" on="0"/>
        <pt x="433" y="811" on="0"/>
        <pt x="433" y="658" on="1"/>
        <pt x="433" y="548" on="0"/>
        <pt x="465" y="358" on="0"/>
        <pt x="531" y="216" on="0"/>
        <pt x="633" y="135" on="0"/>
        <pt x="704" y="135" on="1"/>
        <pt x="774" y="135" on="0"/>
        <pt x="881" y="147" on="0"/>
        <pt x="925" y="163" on="1"/>
        <pt x="978" y="590" on="1"/>
        <pt x="776" y="607" on="1"/>
        <pt x="795" y="753" on="1"/>
        <pt x="1351" y="753" on="1"/>
        <pt x="1262" y="84" on="1"/>
        <pt x="1246" y="82" on="0"/>
        <pt x="1199" y="76" on="0"/>
        <pt x="1147" y="68" on="0"/>
        <pt x="1094" y="57" on="0"/>
        <pt x="1072" y="51" on="1"/>
        <pt x="1028" y="40" on="0"/>
        <pt x="933" y="16" on="0"/>
        <pt x="827" y="-4" on="0"/>
        <pt x="707" y="-16" on="0"/>
        <pt x="637" y="-16" on="1"/>
        <pt x="484" y="-16" on="0"/>
        <pt x="268" y="89" on="0"/>
        <pt x="129" y="267" on="0"/>
        <pt x="62" y="499" on="0"/>
      </contour>
      <contour>
        <pt x="1193" y="1263" on="1"/>
        <pt x="1172" y="1291" on="1"/>
        <pt x="1178" y="1284" on="0"/>
        <pt x="1188" y="1270" on="0"/>
      </contour>
    </TTGlyph>
    <TTGlyph name="H" xMin="-8" yMin="0" xMax="1729" yMax="1522">
      <contour>
        <pt x="854" y="106" on="1"/>
        <pt x="1045" y="136" on="1"/>
        <pt x="1120" y="704" on="1"/>
        <pt x="568" y="704" on="1"/>
        <pt x="493" y="136" on="1"/>
        <pt x="667" y="106" on="1"/>
        <pt x="659" y="0" on="1"/>
        <pt x="-8" y="0" on="1"/>
        <pt x="3" y="106" on="1"/>
        <pt x="141" y="136" on="1"/>
        <pt x="307" y="1386" on="1"/>
        <pt x="162" y="1412" on="1"/>
        <pt x="176" y="1522" on="1"/>
        <pt x="851" y="1522" on="1"/>
        <pt x="839" y="1412" on="1"/>
        <pt x="659" y="1386" on="1"/>
        <pt x="587" y="844" on="1"/>
        <pt x="1139" y="844" on="1"/>
        <pt x="1211" y="1386" on="1"/>
        <pt x="1034" y="1412" on="1"/>
        <pt x="1046" y="1522" on="1"/>
        <pt x="1729" y="1522" on="1"/>
        <pt x="1717" y="1412" on="1"/>
        <pt x="1563" y="1386" on="1"/>
        <pt x="1398" y="136" on="1"/>
        <pt x="1555" y="106" on="1"/>
        <pt x="1543" y="0" on="1"/>
        <pt x="840" y="0" on="1"/>
      </contour>
    </TTGlyph>
    <TTGlyph name="Hbar" xMin="-6" yMin="0" xMax="1725" yMax="1530">
      <contour>
        <pt x="856" y="106" on="1"/>
        <pt x="1047" y="136" on="1"/>
        <pt x="1109" y="623" on="1"/>
        <pt x="557" y="623" on="1"/>
        <pt x="495" y="136" on="1"/>
        <pt x="669" y="106" on="1"/>
        <pt x="661" y="0" on="1"/>
        <pt x="-6" y="0" on="1"/>
        <pt x="5" y="106" on="1"/>
        <pt x="143" y="136" on="1"/>
        <pt x="250" y="982" on="1"/>
        <pt x="77" y="982" on="1"/>
        <pt x="91" y="1122" on="1"/>
        <pt x="268" y="1122" on="1"/>
        <pt x="303" y="1394" on="1"/>
        <pt x="158" y="1420" on="1"/>
        <pt x="172" y="1530" on="1"/>
        <pt x="847" y="1530" on="1"/>
        <pt x="835" y="1420" on="1"/>
        <pt x="655" y="1394" on="1"/>
        <pt x="620" y="1122" on="1"/>
        <pt x="1172" y="1122" on="1"/>
        <pt x="1207" y="1394" on="1"/>
        <pt x="1030" y="1420" on="1"/>
        <pt x="1042" y="1530" on="1"/>
        <pt x="1725" y="1530" on="1"/>
        <pt x="1713" y="1420" on="1"/>
        <pt x="1559" y="1394" on="1"/>
        <pt x="1524" y="1122" on="1"/>
        <pt x="1702" y="1122" on="1"/>
        <pt x="1688" y="982" on="1"/>
        <pt x="1507" y="982" on="1"/>
        <pt x="1400" y="136" on="1"/>
        <pt x="1557" y="106" on="1"/>
        <pt x="1545" y="0" on="1"/>
        <pt x="842" y="0" on="1"/>
      </contour>
      <contour>
        <pt x="575" y="763" on="1"/>
        <pt x="1127" y="763" on="1"/>
        <pt x="1155" y="982" on="1"/>
        <pt x="603" y="982" on="1"/>
      </contour>
    </TTGlyph>
    <TTGlyph name="Hcircumflex" xMin="-8" yMin="0" xMax="1729" yMax="2014">
      <contour>
        <pt x="854" y="106" on="1"/>
        <pt x="1045" y="136" on="1"/>
        <pt x="1120" y="704" on="1"/>
        <pt x="568" y="704" on="1"/>
        <pt x="493" y="136" on="1"/>
        <pt x="667" y="106" on="1"/>
        <pt x="659" y="0" on="1"/>
        <pt x="-8" y="0" on="1"/>
        <pt x="3" y="106" on="1"/>
        <pt x="141" y="136" on="1"/>
        <pt x="307" y="1386" on="1"/>
        <pt x="162" y="1412" on="1"/>
        <pt x="176" y="1522" on="1"/>
        <pt x="851" y="1522" on="1"/>
        <pt x="839" y="1412" on="1"/>
        <pt x="659" y="1386" on="1"/>
        <pt x="587" y="844" on="1"/>
        <pt x="1139" y="844" on="1"/>
        <pt x="1211" y="1386" on="1"/>
        <pt x="1034" y="1412" on="1"/>
        <pt x="1046" y="1522" on="1"/>
        <pt x="1729" y="1522" on="1"/>
        <pt x="1717" y="1412" on="1"/>
        <pt x="1563" y="1386" on="1"/>
        <pt x="1398" y="136" on="1"/>
        <pt x="1555" y="106" on="1"/>
        <pt x="1543" y="0" on="1"/>
        <pt x="840" y="0" on="1"/>
      </contour>
      <contour>
        <pt x="624" y="1657" on="1"/>
        <pt x="991" y="2014" on="1"/>
        <pt x="1169" y="2014" on="1"/>
        <pt x="1379" y="1657" on="1"/>
        <pt x="1255" y="1599" on="1"/>
        <pt x="1054" y="1806" on="1"/>
        <pt x="731" y="1600" on="1"/>
      </contour>
    </TTGlyph>
    <TTGlyph name="I" xMin="-18" yMin="0" xMax="846" yMax="1522">
      <contour>
        <pt x="-5" y="106" on="1"/>
        <pt x="145" y="136" on="1"/>
        <pt x="310" y="1386" on="1"/>
        <pt x="163" y="1412" on="1"/>
        <pt x="175" y="1522" on="1"/>
        <pt x="846" y="1522" on="1"/>
        <pt x="834" y="1412" on="1"/>
        <pt x="662" y="1386" on="1"/>
        <pt x="497" y="136" on="1"/>
        <pt x="672" y="106" on="1"/>
        <pt x="665" y="0" on="1"/>
        <pt x="-18" y="0" on="1"/>
      </contour>
    </TTGlyph>
    <TTGlyph name="IJ" xMin="-18" yMin="-345" xMax="1585" yMax="1522">
      <contour>
        <pt x="-5" y="106" on="1"/>
        <pt x="145" y="136" on="1"/>
        <pt x="310" y="1386" on="1"/>
        <pt x="163" y="1412" on="1"/>
        <pt x="175" y="1522" on="1"/>
        <pt x="846" y="1522" on="1"/>
        <pt x="834" y="1412" on="1"/>
        <pt x="662" y="1386" on="1"/>
        <pt x="497" y="136" on="1"/>
        <pt x="672" y="106" on="1"/>
        <pt x="665" y="0" on="1"/>
        <pt x="-18" y="0" on="1"/>
      </contour>
      <contour>
        <pt x="899" y="86" on="1"/>
        <pt x="926" y="232" on="0"/>
        <pt x="977" y="552" on="0"/>
        <pt x="1022" y="885" on="0"/>
        <pt x="1063" y="1222" on="0"/>
        <pt x="1081" y="1385" on="1"/>
        <pt x="934" y="1412" on="1"/>
        <pt x="949" y="1522" on="1"/>
        <pt x="1585" y="1522" on="1"/>
        <pt x="1574" y="1412" on="1"/>
        <pt x="1430" y="1386" on="1"/>
        <pt x="1413" y="1246" on="0"/>
        <pt x="1377" y="956" on="0"/>
        <pt x="1342" y="680" on="0"/>
        <pt x="1309" y="431" on="0"/>
        <pt x="1280" y="234" on="0"/>
        <pt x="1256" y="99" on="0"/>
        <pt x="1248" y="75" on="1"/>
        <pt x="1217" y="-13" on="0"/>
        <pt x="1095" y="-155" on="0"/>
        <pt x="932" y="-262" on="0"/>
        <pt x="736" y="-330" on="0"/>
        <pt x="631" y="-345" on="1"/>
        <pt x="579" y="-237" on="1"/>
        <pt x="661" y="-212" on="0"/>
        <pt x="774" y="-142" on="0"/>
        <pt x="849" y="-58" on="0"/>
        <pt x="890" y="37" on="0"/>
      </contour>
    </TTGlyph>
    <TTGlyph name="Iacute" xMin="-18" yMin="0" xMax="903" yMax="2014">
      <contour>
        <pt x="-5" y="106" on="1"/>
        <pt x="145" y="136" on="1"/>
        <pt x="310" y="1386" on="1"/>
        <pt x="163" y="1412" on="1"/>
        <pt x="175" y="1522" on="1"/>
        <pt x="846" y="1522" on="1"/>
        <pt x="834" y="1412" on="1"/>
        <pt x="662" y="1386" on="1"/>
        <pt x="497" y="136" on="1"/>
        <pt x="672" y="106" on="1"/>
        <pt x="665" y="0" on="1"/>
        <pt x="-18" y="0" on="1"/>
      </contour>
      <contour>
        <pt x="440" y="1672" on="1"/>
        <pt x="716" y="2014" on="1"/>
        <pt x="903" y="1829" on="1"/>
        <pt x="883" y="1791" on="0"/>
        <pt x="797" y="1711" on="0"/>
        <pt x="695" y="1639" on="0"/>
        <pt x="592" y="1583" on="0"/>
        <pt x="556" y="1570" on="1"/>
      </contour>
    </TTGlyph>
    <TTGlyph name="Ibreve" xMin="-18" yMin="0" xMax="895" yMax="2014">
      <contour>
        <pt x="-5" y="106" on="1"/>
        <pt x="145" y="136" on="1"/>
        <pt x="310" y="1386" on="1"/>
        <pt x="163" y="1412" on="1"/>
        <pt x="175" y="1522" on="1"/>
        <pt x="846" y="1522" on="1"/>
        <pt x="834" y="1412" on="1"/>
        <pt x="662" y="1386" on="1"/>
        <pt x="497" y="136" on="1"/>
        <pt x="672" y="106" on="1"/>
        <pt x="665" y="0" on="1"/>
        <pt x="-18" y="0" on="1"/>
      </contour>
      <contour>
        <pt x="546" y="1633" on="1"/>
        <pt x="442" y="1633" on="0"/>
        <pt x="318" y="1694" on="0"/>
        <pt x="252" y="1787" on="0"/>
        <pt x="232" y="1897" on="0"/>
        <pt x="232" y="1946" on="1"/>
        <pt x="232" y="1981" on="0"/>
        <pt x="238" y="2014" on="1"/>
        <pt x="423" y="2014" on="1"/>
        <pt x="423" y="1979" on="0"/>
        <pt x="427" y="1919" on="0"/>
        <pt x="451" y="1875" on="0"/>
        <pt x="503" y="1850" on="0"/>
        <pt x="551" y="1850" on="1"/>
        <pt x="606" y="1850" on="0"/>
        <pt x="671" y="1884" on="0"/>
        <pt x="705" y="1933" on="0"/>
        <pt x="715" y="1990" on="0"/>
        <pt x="715" y="2014" on="1"/>
        <pt x="895" y="2014" on="1"/>
        <pt x="895" y="1929" on="0"/>
        <pt x="848" y="1789" on="0"/>
        <pt x="758" y="1688" on="0"/>
        <pt x="628" y="1633" on="0"/>
      </contour>
    </TTGlyph>
    <TTGlyph name="Icircumflex" xMin="-18" yMin="0" xMax="928" yMax="2014">
      <contour>
        <pt x="-5" y="106" on="1"/>
        <pt x="145" y="136" on="1"/>
        <pt x="310" y="1386" on="1"/>
        <pt x="163" y="1412" on="1"/>
        <pt x="175" y="1522" on="1"/>
        <pt x="846" y="1522" on="1"/>
        <pt x="834" y="1412" on="1"/>
        <pt x="662" y="1386" on="1"/>
        <pt x="497" y="136" on="1"/>
        <pt x="672" y="106" on="1"/>
        <pt x="665" y="0" on="1"/>
        <pt x="-18" y="0" on="1"/>
      </contour>
      <contour>
        <pt x="173" y="1657" on="1"/>
        <pt x="540" y="2014" on="1"/>
        <pt x="718" y="2014" on="1"/>
        <pt x="928" y="1657" on="1"/>
        <pt x="804" y="1599" on="1"/>
        <pt x="603" y="1806" on="1"/>
        <pt x="280" y="1600" on="1"/>
      </contour>
    </TTGlyph>
    <TTGlyph name="Idieresis" xMin="-18" yMin="0" xMax="936" yMax="1984">
      <contour>
        <pt x="-5" y="106" on="1"/>
        <pt x="145" y="136" on="1"/>
        <pt x="310" y="1386" on="1"/>
        <pt x="163" y="1412" on="1"/>
        <pt x="175" y="1522" on="1"/>
        <pt x="846" y="1522" on="1"/>
        <pt x="834" y="1412" on="1"/>
        <pt x="662" y="1386" on="1"/>
        <pt x="497" y="136" on="1"/>
        <pt x="672" y="106" on="1"/>
        <pt x="665" y="0" on="1"/>
        <pt x="-18" y="0" on="1"/>
      </contour>
      <contour>
        <pt x="308" y="1661" on="1"/>
        <pt x="278" y="1661" on="0"/>
        <pt x="228" y="1684" on="0"/>
        <pt x="192" y="1723" on="0"/>
        <pt x="172" y="1777" on="0"/>
        <pt x="173" y="1808" on="1"/>
        <pt x="175" y="1890" on="0"/>
        <pt x="264" y="1984" on="0"/>
        <pt x="341" y="1984" on="1"/>
        <pt x="412" y="1984" on="0"/>
        <pt x="484" y="1903" on="0"/>
        <pt x="483" y="1843" on="1"/>
        <pt x="481" y="1759" on="0"/>
        <pt x="397" y="1661" on="0"/>
      </contour>
      <contour>
        <pt x="760" y="1661" on="1"/>
        <pt x="730" y="1661" on="0"/>
        <pt x="680" y="1684" on="0"/>
        <pt x="644" y="1723" on="0"/>
        <pt x="624" y="1777" on="0"/>
        <pt x="625" y="1808" on="1"/>
        <pt x="627" y="1890" on="0"/>
        <pt x="716" y="1984" on="0"/>
        <pt x="793" y="1984" on="1"/>
        <pt x="864" y="1984" on="0"/>
        <pt x="936" y="1903" on="0"/>
        <pt x="935" y="1843" on="1"/>
        <pt x="933" y="1759" on="0"/>
        <pt x="849" y="1661" on="0"/>
      </contour>
    </TTGlyph>
    <TTGlyph name="Idotaccent" xMin="-18" yMin="0" xMax="846" yMax="1975">
      <contour>
        <pt x="-5" y="106" on="1"/>
        <pt x="145" y="136" on="1"/>
        <pt x="310" y="1386" on="1"/>
        <pt x="163" y="1412" on="1"/>
        <pt x="175" y="1522" on="1"/>
        <pt x="846" y="1522" on="1"/>
        <pt x="834" y="1412" on="1"/>
        <pt x="662" y="1386" on="1"/>
        <pt x="497" y="136" on="1"/>
        <pt x="672" y="106" on="1"/>
        <pt x="665" y="0" on="1"/>
        <pt x="-18" y="0" on="1"/>
      </contour>
      <contour>
        <pt x="531" y="1612" on="1"/>
        <pt x="498" y="1612" on="0"/>
        <pt x="435" y="1641" on="0"/>
        <pt x="387" y="1688" on="0"/>
        <pt x="358" y="1748" on="0"/>
        <pt x="359" y="1779" on="1"/>
        <pt x="360" y="1820" on="0"/>
        <pt x="391" y="1891" on="0"/>
        <pt x="445" y="1944" on="0"/>
        <pt x="521" y="1975" on="0"/>
        <pt x="567" y="1975" on="1"/>
        <pt x="607" y="1975" on="0"/>
        <pt x="673" y="1947" on="0"/>
        <pt x="721" y="1902" on="0"/>
        <pt x="748" y="1844" on="0"/>
        <pt x="747" y="1814" on="1"/>
        <pt x="746" y="1772" on="0"/>
        <pt x="718" y="1699" on="0"/>
        <pt x="664" y="1644" on="0"/>
        <pt x="584" y="1612" on="0"/>
      </contour>
    </TTGlyph>
    <TTGlyph name="Igrave" xMin="-18" yMin="0" xMax="846" yMax="2014">
      <contour>
        <pt x="-5" y="106" on="1"/>
        <pt x="145" y="136" on="1"/>
        <pt x="310" y="1386" on="1"/>
        <pt x="163" y="1412" on="1"/>
        <pt x="175" y="1522" on="1"/>
        <pt x="846" y="1522" on="1"/>
        <pt x="834" y="1412" on="1"/>
        <pt x="662" y="1386" on="1"/>
        <pt x="497" y="136" on="1"/>
        <pt x="672" y="106" on="1"/>
        <pt x="665" y="0" on="1"/>
        <pt x="-18" y="0" on="1"/>
      </contour>
      <contour>
        <pt x="547" y="1570" on="1"/>
        <pt x="511" y="1583" on="0"/>
        <pt x="410" y="1638" on="0"/>
        <pt x="309" y="1708" on="0"/>
        <pt x="222" y="1789" on="0"/>
        <pt x="200" y="1829" on="1"/>
        <pt x="387" y="2014" on="1"/>
        <pt x="663" y="1672" on="1"/>
        <pt x="547" y="1570" on="1"/>
      </contour>
    </TTGlyph>
    <TTGlyph name="Imacron" xMin="-18" yMin="0" xMax="849" yMax="1916">
      <contour>
        <pt x="-5" y="106" on="1"/>
        <pt x="145" y="136" on="1"/>
        <pt x="310" y="1386" on="1"/>
        <pt x="163" y="1412" on="1"/>
        <pt x="175" y="1522" on="1"/>
        <pt x="846" y="1522" on="1"/>
        <pt x="834" y="1412" on="1"/>
        <pt x="662" y="1386" on="1"/>
        <pt x="497" y="136" on="1"/>
        <pt x="672" y="106" on="1"/>
        <pt x="665" y="0" on="1"/>
        <pt x="-18" y="0" on="1"/>
      </contour>
      <contour>
        <pt x="278" y="1916" on="1"/>
        <pt x="849" y="1916" on="1"/>
        <pt x="829" y="1707" on="1"/>
        <pt x="258" y="1707" on="1"/>
      </contour>
    </TTGlyph>
    <TTGlyph name="Iogonek" xMin="-33" yMin="-480" xMax="846" yMax="1522">
      <contour>
        <pt x="-5" y="106" on="1"/>
        <pt x="145" y="136" on="1"/>
        <pt x="310" y="1386" on="1"/>
        <pt x="163" y="1412" on="1"/>
        <pt x="175" y="1522" on="1"/>
        <pt x="846" y="1522" on="1"/>
        <pt x="834" y="1412" on="1"/>
        <pt x="662" y="1386" on="1"/>
        <pt x="497" y="136" on="1"/>
        <pt x="672" y="106" on="1"/>
        <pt x="665" y="0" on="1"/>
        <pt x="442" y="0" on="1"/>
        <pt x="401" y="-28" on="0"/>
        <pt x="330" y="-84" on="0"/>
        <pt x="278" y="-139" on="0"/>
        <pt x="248" y="-191" on="0"/>
        <pt x="248" y="-215" on="1"/>
        <pt x="248" y="-258" on="0"/>
        <pt x="286" y="-287" on="0"/>
        <pt x="315" y="-287" on="1"/>
        <pt x="356" y="-287" on="0"/>
        <pt x="426" y="-245" on="0"/>
        <pt x="468" y="-212" on="1"/>
        <pt x="504" y="-326" on="1"/>
        <pt x="474" y="-357" on="0"/>
        <pt x="399" y="-413" on="0"/>
        <pt x="313" y="-455" on="0"/>
        <pt x="214" y="-480" on="0"/>
        <pt x="160" y="-480" on="1"/>
        <pt x="63" y="-480" on="0"/>
        <pt x="-33" y="-385" on="0"/>
        <pt x="-33" y="-306" on="1"/>
        <pt x="-33" y="-281" on="0"/>
        <pt x="-8" y="-211" on="0"/>
        <pt x="12" y="-182" on="1"/>
        <pt x="38" y="-144" on="0"/>
        <pt x="91" y="-87" on="0"/>
        <pt x="145" y="-44" on="0"/>
        <pt x="197" y="-13" on="0"/>
        <pt x="223" y="0" on="1"/>
        <pt x="-18" y="0" on="1"/>
      </contour>
    </TTGlyph>
    <TTGlyph name="Itilde" xMin="-18" yMin="0" xMax="962" yMax="1970">
      <contour>
        <pt x="-5" y="106" on="1"/>
        <pt x="145" y="136" on="1"/>
        <pt x="310" y="1386" on="1"/>
        <pt x="163" y="1412" on="1"/>
        <pt x="175" y="1522" on="1"/>
        <pt x="846" y="1522" on="1"/>
        <pt x="834" y="1412" on="1"/>
        <pt x="662" y="1386" on="1"/>
        <pt x="497" y="136" on="1"/>
        <pt x="672" y="106" on="1"/>
        <pt x="665" y="0" on="1"/>
        <pt x="-18" y="0" on="1"/>
      </contour>
      <contour>
        <pt x="186" y="1801" on="1"/>
        <pt x="198" y="1832" on="0"/>
        <pt x="244" y="1893" on="0"/>
        <pt x="310" y="1941" on="0"/>
        <pt x="394" y="1970" on="0"/>
        <pt x="443" y="1970" on="1"/>
        <pt x="482" y="1970" on="0"/>
        <pt x="539" y="1948" on="0"/>
        <pt x="585" y="1914" on="0"/>
        <pt x="622" y="1876" on="0"/>
        <pt x="658" y="1842" on="0"/>
        <pt x="697" y="1820" on="0"/>
        <pt x="722" y="1820" on="1"/>
        <pt x="750" y="1820" on="0"/>
        <pt x="796" y="1841" on="0"/>
        <pt x="834" y="1871" on="0"/>
        <pt x="863" y="1906" on="0"/>
        <pt x="874" y="1920" on="1"/>
        <pt x="962" y="1789" on="1"/>
        <pt x="949" y="1756" on="0"/>
        <pt x="900" y="1692" on="0"/>
        <pt x="833" y="1640" on="0"/>
        <pt x="754" y="1608" on="0"/>
        <pt x="711" y="1608" on="1"/>
        <pt x="667" y="1608" on="0"/>
        <pt x="604" y="1630" on="0"/>
        <pt x="558" y="1663" on="0"/>
        <pt x="521" y="1701" on="0"/>
        <pt x="483" y="1734" on="0"/>
        <pt x="440" y="1757" on="0"/>
        <pt x="410" y="1758" on="1"/>
        <pt x="387" y="1758" on="0"/>
        <pt x="346" y="1744" on="0"/>
        <pt x="309" y="1721" on="0"/>
        <pt x="277" y="1692" on="0"/>
        <pt x="263" y="1677" on="1"/>
      </contour>
    </TTGlyph>
    <TTGlyph name="J" xMin="-188" yMin="-345" xMax="818" yMax="1522">
      <contour>
        <pt x="132" y="86" on="1"/>
        <pt x="159" y="232" on="0"/>
        <pt x="210" y="552" on="0"/>
        <pt x="255" y="885" on="0"/>
        <pt x="296" y="1222" on="0"/>
        <pt x="314" y="1385" on="1"/>
        <pt x="167" y="1412" on="1"/>
        <pt x="182" y="1522" on="1"/>
        <pt x="818" y="1522" on="1"/>
        <pt x="807" y="1412" on="1"/>
        <pt x="663" y="1386" on="1"/>
        <pt x="646" y="1246" on="0"/>
        <pt x="610" y="956" on="0"/>
        <pt x="575" y="680" on="0"/>
        <pt x="542" y="431" on="0"/>
        <pt x="513" y="234" on="0"/>
        <pt x="489" y="99" on="0"/>
        <pt x="481" y="75" on="1"/>
        <pt x="450" y="-13" on="0"/>
        <pt x="328" y="-155" on="0"/>
        <pt x="165" y="-262" on="0"/>
        <pt x="-31" y="-330" on="0"/>
        <pt x="-136" y="-345" on="1"/>
        <pt x="-188" y="-237" on="1"/>
        <pt x="-106" y="-212" on="0"/>
        <pt x="7" y="-142" on="0"/>
        <pt x="82" y="-58" on="0"/>
        <pt x="123" y="37" on="0"/>
      </contour>
    </TTGlyph>
    <TTGlyph name="Jcircumflex" xMin="-188" yMin="-345" xMax="900" yMax="2014">
      <contour>
        <pt x="132" y="86" on="1"/>
        <pt x="159" y="232" on="0"/>
        <pt x="210" y="552" on="0"/>
        <pt x="255" y="885" on="0"/>
        <pt x="296" y="1222" on="0"/>
        <pt x="314" y="1385" on="1"/>
        <pt x="167" y="1412" on="1"/>
        <pt x="182" y="1522" on="1"/>
        <pt x="818" y="1522" on="1"/>
        <pt x="807" y="1412" on="1"/>
        <pt x="663" y="1386" on="1"/>
        <pt x="646" y="1246" on="0"/>
        <pt x="610" y="956" on="0"/>
        <pt x="575" y="680" on="0"/>
        <pt x="542" y="431" on="0"/>
        <pt x="513" y="234" on="0"/>
        <pt x="489" y="99" on="0"/>
        <pt x="481" y="75" on="1"/>
        <pt x="450" y="-13" on="0"/>
        <pt x="328" y="-155" on="0"/>
        <pt x="165" y="-262" on="0"/>
        <pt x="-31" y="-330" on="0"/>
        <pt x="-136" y="-345" on="1"/>
        <pt x="-188" y="-237" on="1"/>
        <pt x="-106" y="-212" on="0"/>
        <pt x="7" y="-142" on="0"/>
        <pt x="82" y="-58" on="0"/>
        <pt x="123" y="37" on="0"/>
      </contour>
      <contour>
        <pt x="145" y="1657" on="1"/>
        <pt x="512" y="2014" on="1"/>
        <pt x="690" y="2014" on="1"/>
        <pt x="900" y="1657" on="1"/>
        <pt x="776" y="1599" on="1"/>
        <pt x="575" y="1806" on="1"/>
        <pt x="252" y="1600" on="1"/>
      </contour>
    </TTGlyph>
    <TTGlyph name="K" xMin="-22" yMin="0" xMax="1566" yMax="1522">
      <contour>
        <pt x="1057" y="0" on="1"/>
        <pt x="1034" y="3" on="0"/>
        <pt x="1002" y="23" on="0"/>
        <pt x="972" y="68" on="0"/>
        <pt x="939" y="145" on="0"/>
        <pt x="915" y="204" on="1"/>
        <pt x="895" y="253" on="0"/>
        <pt x="852" y="375" on="0"/>
        <pt x="804" y="503" on="0"/>
        <pt x="753" y="630" on="0"/>
        <pt x="726" y="685" on="1"/>
        <pt x="536" y="495" on="1"/>
        <pt x="489" y="136" on="1"/>
        <pt x="663" y="106" on="1"/>
        <pt x="654" y="0" on="1"/>
        <pt x="-22" y="0" on="1"/>
        <pt x="-9" y="106" on="1"/>
        <pt x="137" y="136" on="1"/>
        <pt x="302" y="1386" on="1"/>
        <pt x="157" y="1412" on="1"/>
        <pt x="171" y="1522" on="1"/>
        <pt x="846" y="1522" on="1"/>
        <pt x="834" y="1412" on="1"/>
        <pt x="654" y="1386" on="1"/>
        <pt x="566" y="722" on="1"/>
        <pt x="1189" y="1386" on="1"/>
        <pt x="1054" y="1413" on="1"/>
        <pt x="1065" y="1522" on="1"/>
        <pt x="1566" y="1522" on="1"/>
        <pt x="1554" y="1412" on="1"/>
        <pt x="1427" y="1386" on="1"/>
        <pt x="962" y="921" on="1"/>
        <pt x="977" y="898" on="0"/>
        <pt x="1014" y="827" on="0"/>
        <pt x="1055" y="744" on="0"/>
        <pt x="1098" y="653" on="0"/>
        <pt x="1138" y="567" on="0"/>
        <pt x="1173" y="492" on="0"/>
        <pt x="1187" y="465" on="1"/>
        <pt x="1258" y="323" on="0"/>
        <pt x="1351" y="155" on="0"/>
        <pt x="1386" y="136" on="1"/>
        <pt x="1503" y="106" on="1"/>
        <pt x="1491" y="0" on="1"/>
        <pt x="1057" y="0" on="1"/>
      </contour>
    </TTGlyph>
    <TTGlyph name="Kcommaaccent" xMin="-22" yMin="-558" xMax="1566" yMax="1522">
      <contour>
        <pt x="609" y="-488" on="1"/>
        <pt x="612" y="-462" on="1"/>
        <pt x="621" y="-457" on="0"/>
        <pt x="644" y="-436" on="0"/>
        <pt x="665" y="-403" on="0"/>
        <pt x="680" y="-360" on="0"/>
        <pt x="680" y="-333" on="1"/>
        <pt x="680" y="-314" on="0"/>
        <pt x="670" y="-279" on="0"/>
        <pt x="652" y="-251" on="0"/>
        <pt x="628" y="-234" on="0"/>
        <pt x="613" y="-232" on="1"/>
        <pt x="624" y="-139" on="1"/>
        <pt x="778" y="-35" on="1"/>
        <pt x="812" y="-42" on="0"/>
        <pt x="870" y="-81" on="0"/>
        <pt x="912" y="-137" on="0"/>
        <pt x="936" y="-208" on="0"/>
        <pt x="936" y="-247" on="1"/>
        <pt x="936" y="-311" on="0"/>
        <pt x="894" y="-419" on="0"/>
        <pt x="828" y="-500" on="0"/>
        <pt x="748" y="-551" on="0"/>
        <pt x="709" y="-558" on="1"/>
      </contour>
      <contour>
        <pt x="1057" y="0" on="1"/>
        <pt x="1034" y="3" on="0"/>
        <pt x="1002" y="23" on="0"/>
        <pt x="972" y="68" on="0"/>
        <pt x="939" y="145" on="0"/>
        <pt x="915" y="204" on="1"/>
        <pt x="895" y="253" on="0"/>
        <pt x="852" y="375" on="0"/>
        <pt x="804" y="503" on="0"/>
        <pt x="753" y="630" on="0"/>
        <pt x="726" y="685" on="1"/>
        <pt x="536" y="495" on="1"/>
        <pt x="489" y="136" on="1"/>
        <pt x="663" y="106" on="1"/>
        <pt x="654" y="0" on="1"/>
        <pt x="-22" y="0" on="1"/>
        <pt x="-9" y="106" on="1"/>
        <pt x="137" y="136" on="1"/>
        <pt x="302" y="1386" on="1"/>
        <pt x="157" y="1412" on="1"/>
        <pt x="171" y="1522" on="1"/>
        <pt x="846" y="1522" on="1"/>
        <pt x="834" y="1412" on="1"/>
        <pt x="654" y="1386" on="1"/>
        <pt x="566" y="722" on="1"/>
        <pt x="1189" y="1386" on="1"/>
        <pt x="1054" y="1413" on="1"/>
        <pt x="1065" y="1522" on="1"/>
        <pt x="1566" y="1522" on="1"/>
        <pt x="1554" y="1412" on="1"/>
        <pt x="1427" y="1386" on="1"/>
        <pt x="962" y="921" on="1"/>
        <pt x="977" y="898" on="0"/>
        <pt x="1014" y="827" on="0"/>
        <pt x="1055" y="744" on="0"/>
        <pt x="1098" y="653" on="0"/>
        <pt x="1138" y="567" on="0"/>
        <pt x="1173" y="492" on="0"/>
        <pt x="1187" y="465" on="1"/>
        <pt x="1258" y="323" on="0"/>
        <pt x="1351" y="155" on="0"/>
        <pt x="1386" y="136" on="1"/>
        <pt x="1503" y="106" on="1"/>
        <pt x="1491" y="0" on="1"/>
        <pt x="1057" y="0" on="1"/>
      </contour>
    </TTGlyph>
    <TTGlyph name="L" xMin="-13" yMin="0" xMax="1239" yMax="1522">
      <contour>
        <pt x="-1" y="106" on="1"/>
        <pt x="137" y="136" on="1"/>
        <pt x="302" y="1386" on="1"/>
        <pt x="156" y="1412" on="1"/>
        <pt x="169" y="1522" on="1"/>
        <pt x="848" y="1522" on="1"/>
        <pt x="836" y="1412" on="1"/>
        <pt x="654" y="1386" on="1"/>
        <pt x="488" y="129" on="1"/>
        <pt x="847" y="149" on="1"/>
        <pt x="1058" y="600" on="1"/>
        <pt x="1239" y="577" on="1"/>
        <pt x="1135" y="0" on="1"/>
        <pt x="-13" y="0" on="1"/>
      </contour>
    </TTGlyph>
    <TTGlyph name="Lacute" xMin="-13" yMin="0" xMax="1239" yMax="2016">
      <contour>
        <pt x="494" y="1674" on="1"/>
        <pt x="770" y="2016" on="1"/>
        <pt x="957" y="1831" on="1"/>
        <pt x="937" y="1793" on="0"/>
        <pt x="851" y="1713" on="0"/>
        <pt x="749" y="1641" on="0"/>
        <pt x="646" y="1585" on="0"/>
        <pt x="610" y="1572" on="1"/>
      </contour>
      <contour>
        <pt x="-1" y="106" on="1"/>
        <pt x="137" y="136" on="1"/>
        <pt x="302" y="1386" on="1"/>
        <pt x="156" y="1412" on="1"/>
        <pt x="169" y="1522" on="1"/>
        <pt x="848" y="1522" on="1"/>
        <pt x="836" y="1412" on="1"/>
        <pt x="654" y="1386" on="1"/>
        <pt x="488" y="129" on="1"/>
        <pt x="847" y="149" on="1"/>
        <pt x="1058" y="600" on="1"/>
        <pt x="1239" y="577" on="1"/>
        <pt x="1135" y="0" on="1"/>
        <pt x="-13" y="0" on="1"/>
      </contour>
    </TTGlyph>
    <TTGlyph name="Lcaron" xMin="-13" yMin="0" xMax="1239" yMax="1651">
      <contour>
        <pt x="-1" y="106" on="1"/>
        <pt x="137" y="136" on="1"/>
        <pt x="302" y="1386" on="1"/>
        <pt x="156" y="1412" on="1"/>
        <pt x="169" y="1522" on="1"/>
        <pt x="848" y="1522" on="1"/>
        <pt x="836" y="1412" on="1"/>
        <pt x="654" y="1386" on="1"/>
        <pt x="488" y="129" on="1"/>
        <pt x="847" y="149" on="1"/>
        <pt x="1058" y="600" on="1"/>
        <pt x="1239" y="577" on="1"/>
        <pt x="1135" y="0" on="1"/>
        <pt x="-13" y="0" on="1"/>
      </contour>
      <contour>
        <pt x="959" y="1036" on="1"/>
        <pt x="953" y="1061" on="1"/>
        <pt x="962" y="1085" on="0"/>
        <pt x="977" y="1152" on="0"/>
        <pt x="988" y="1231" on="0"/>
        <pt x="994" y="1318" on="0"/>
        <pt x="994" y="1362" on="1"/>
        <pt x="994" y="1390" on="0"/>
        <pt x="992" y="1452" on="0"/>
        <pt x="987" y="1507" on="0"/>
        <pt x="977" y="1552" on="0"/>
        <pt x="970" y="1563" on="1"/>
        <pt x="989" y="1605" on="1"/>
        <pt x="1196" y="1651" on="1"/>
        <pt x="1205" y="1641" on="0"/>
        <pt x="1220" y="1602" on="0"/>
        <pt x="1229" y="1551" on="0"/>
        <pt x="1234" y="1492" on="0"/>
        <pt x="1234" y="1462" on="1"/>
        <pt x="1234" y="1403" on="0"/>
        <pt x="1215" y="1275" on="0"/>
        <pt x="1179" y="1152" on="0"/>
        <pt x="1125" y="1044" on="0"/>
        <pt x="1089" y="1006" on="1"/>
      </contour>
    </TTGlyph>
    <TTGlyph name="Lcommaaccent" xMin="-13" yMin="-558" xMax="1239" yMax="1522">
      <contour>
        <pt x="376" y="-488" on="1"/>
        <pt x="379" y="-462" on="1"/>
        <pt x="388" y="-457" on="0"/>
        <pt x="411" y="-436" on="0"/>
        <pt x="432" y="-403" on="0"/>
        <pt x="447" y="-360" on="0"/>
        <pt x="447" y="-333" on="1"/>
        <pt x="447" y="-314" on="0"/>
        <pt x="437" y="-279" on="0"/>
        <pt x="419" y="-251" on="0"/>
        <pt x="395" y="-234" on="0"/>
        <pt x="380" y="-232" on="1"/>
        <pt x="391" y="-139" on="1"/>
        <pt x="545" y="-35" on="1"/>
        <pt x="579" y="-42" on="0"/>
        <pt x="637" y="-81" on="0"/>
        <pt x="679" y="-137" on="0"/>
        <pt x="703" y="-208" on="0"/>
        <pt x="703" y="-247" on="1"/>
        <pt x="703" y="-311" on="0"/>
        <pt x="661" y="-419" on="0"/>
        <pt x="595" y="-500" on="0"/>
        <pt x="515" y="-551" on="0"/>
        <pt x="476" y="-558" on="1"/>
      </contour>
      <contour>
        <pt x="-1" y="106" on="1"/>
        <pt x="137" y="136" on="1"/>
        <pt x="302" y="1386" on="1"/>
        <pt x="156" y="1412" on="1"/>
        <pt x="169" y="1522" on="1"/>
        <pt x="848" y="1522" on="1"/>
        <pt x="836" y="1412" on="1"/>
        <pt x="654" y="1386" on="1"/>
        <pt x="488" y="129" on="1"/>
        <pt x="847" y="149" on="1"/>
        <pt x="1058" y="600" on="1"/>
        <pt x="1239" y="577" on="1"/>
        <pt x="1135" y="0" on="1"/>
        <pt x="-13" y="0" on="1"/>
      </contour>
    </TTGlyph>
    <TTGlyph name="Ldot" xMin="-13" yMin="0" xMax="1283" yMax="1522">
      <contour>
        <pt x="-1" y="106" on="1"/>
        <pt x="137" y="136" on="1"/>
        <pt x="302" y="1386" on="1"/>
        <pt x="156" y="1412" on="1"/>
        <pt x="169" y="1522" on="1"/>
        <pt x="848" y="1522" on="1"/>
        <pt x="836" y="1412" on="1"/>
        <pt x="654" y="1386" on="1"/>
        <pt x="488" y="129" on="1"/>
        <pt x="847" y="149" on="1"/>
        <pt x="1058" y="600" on="1"/>
        <pt x="1239" y="577" on="1"/>
        <pt x="1135" y="0" on="1"/>
        <pt x="-13" y="0" on="1"/>
      </contour>
      <contour>
        <pt x="944" y="918" on="1"/>
        <pt x="944" y="965" on="0"/>
        <pt x="978" y="1039" on="0"/>
        <pt x="1033" y="1091" on="0"/>
        <pt x="1101" y="1118" on="0"/>
        <pt x="1135" y="1118" on="1"/>
        <pt x="1172" y="1118" on="0"/>
        <pt x="1228" y="1091" on="0"/>
        <pt x="1265" y="1046" on="0"/>
        <pt x="1283" y="988" on="0"/>
        <pt x="1283" y="957" on="1"/>
        <pt x="1283" y="906" on="0"/>
        <pt x="1247" y="831" on="0"/>
        <pt x="1189" y="781" on="0"/>
        <pt x="1117" y="757" on="0"/>
        <pt x="1081" y="757" on="1"/>
        <pt x="1053" y="757" on="0"/>
        <pt x="1003" y="781" on="0"/>
        <pt x="966" y="825" on="0"/>
        <pt x="944" y="883" on="0"/>
      </contour>
    </TTGlyph>
    <TTGlyph name="Lslash" xMin="-13" yMin="2" xMax="1239" yMax="1524">
      <contour>
        <pt x="9" y="601" on="1"/>
        <pt x="208" y="682" on="1"/>
        <pt x="302" y="1388" on="1"/>
        <pt x="156" y="1414" on="1"/>
        <pt x="169" y="1524" on="1"/>
        <pt x="848" y="1524" on="1"/>
        <pt x="836" y="1414" on="1"/>
        <pt x="654" y="1388" on="1"/>
        <pt x="580" y="833" on="1"/>
        <pt x="885" y="957" on="1"/>
        <pt x="920" y="830" on="1"/>
        <pt x="561" y="688" on="1"/>
        <pt x="488" y="131" on="1"/>
        <pt x="847" y="151" on="1"/>
        <pt x="1058" y="602" on="1"/>
        <pt x="1239" y="579" on="1"/>
        <pt x="1135" y="2" on="1"/>
        <pt x="-13" y="2" on="1"/>
        <pt x="-1" y="108" on="1"/>
        <pt x="137" y="138" on="1"/>
        <pt x="190" y="540" on="1"/>
        <pt x="45" y="483" on="1"/>
      </contour>
    </TTGlyph>
    <TTGlyph name="M" xMin="-88" yMin="-18" xMax="2043" yMax="1522">
      <contour>
        <pt x="-76" y="106" on="1"/>
        <pt x="85" y="136" on="1"/>
        <pt x="411" y="1386" on="1"/>
        <pt x="217" y="1412" on="1"/>
        <pt x="233" y="1522" on="1"/>
        <pt x="924" y="1522" on="1"/>
        <pt x="1023" y="680" on="1"/>
        <pt x="1044" y="509" on="1"/>
        <pt x="1099" y="680" on="1"/>
        <pt x="1433" y="1522" on="1"/>
        <pt x="2043" y="1522" on="1"/>
        <pt x="2030" y="1412" on="1"/>
        <pt x="1854" y="1386" on="1"/>
        <pt x="1814" y="136" on="1"/>
        <pt x="1995" y="106" on="1"/>
        <pt x="1987" y="0" on="1"/>
        <pt x="1273" y="0" on="1"/>
        <pt x="1282" y="108" on="1"/>
        <pt x="1471" y="136" on="1"/>
        <pt x="1528" y="988" on="1"/>
        <pt x="1548" y="1386" on="1"/>
        <pt x="1405" y="1036" on="1"/>
        <pt x="966" y="-3" on="1"/>
        <pt x="797" y="-18" on="1"/>
        <pt x="661" y="1012" on="1"/>
        <pt x="607" y="1387" on="1"/>
        <pt x="520" y="1002" on="1"/>
        <pt x="311" y="136" on="1"/>
        <pt x="536" y="107" on="1"/>
        <pt x="526" y="0" on="1"/>
        <pt x="-88" y="0" on="1"/>
      </contour>
    </TTGlyph>
    <TTGlyph name="N" xMin="-19" yMin="0" xMax="1653" yMax="1522">
      <contour>
        <pt x="-11" y="106" on="1"/>
        <pt x="138" y="136" on="1"/>
        <pt x="324" y="1386" on="1"/>
        <pt x="154" y="1412" on="1"/>
        <pt x="170" y="1522" on="1"/>
        <pt x="727" y="1522" on="1"/>
        <pt x="1098" y="535" on="1"/>
        <pt x="1176" y="305" on="1"/>
        <pt x="1312" y="1386" on="1"/>
        <pt x="1140" y="1412" on="1"/>
        <pt x="1151" y="1522" on="1"/>
        <pt x="1653" y="1522" on="1"/>
        <pt x="1642" y="1412" on="1"/>
        <pt x="1519" y="1386" on="1"/>
        <pt x="1307" y="0" on="1"/>
        <pt x="949" y="0" on="1"/>
        <pt x="558" y="1020" on="1"/>
        <pt x="480" y="1274" on="1"/>
        <pt x="355" y="136" on="1"/>
        <pt x="545" y="106" on="1"/>
        <pt x="534" y="0" on="1"/>
        <pt x="-19" y="0" on="1"/>
      </contour>
    </TTGlyph>
    <TTGlyph name="Nacute" xMin="-19" yMin="0" xMax="1653" yMax="2014">
      <contour>
        <pt x="834" y="1672" on="1"/>
        <pt x="1110" y="2014" on="1"/>
        <pt x="1297" y="1829" on="1"/>
        <pt x="1277" y="1791" on="0"/>
        <pt x="1191" y="1711" on="0"/>
        <pt x="1089" y="1639" on="0"/>
        <pt x="986" y="1583" on="0"/>
        <pt x="950" y="1570" on="1"/>
      </contour>
      <contour>
        <pt x="-11" y="106" on="1"/>
        <pt x="138" y="136" on="1"/>
        <pt x="324" y="1386" on="1"/>
        <pt x="154" y="1412" on="1"/>
        <pt x="170" y="1522" on="1"/>
        <pt x="727" y="1522" on="1"/>
        <pt x="1098" y="535" on="1"/>
        <pt x="1176" y="305" on="1"/>
        <pt x="1312" y="1386" on="1"/>
        <pt x="1140" y="1412" on="1"/>
        <pt x="1151" y="1522" on="1"/>
        <pt x="1653" y="1522" on="1"/>
        <pt x="1642" y="1412" on="1"/>
        <pt x="1519" y="1386" on="1"/>
        <pt x="1307" y="0" on="1"/>
        <pt x="949" y="0" on="1"/>
        <pt x="558" y="1020" on="1"/>
        <pt x="480" y="1274" on="1"/>
        <pt x="355" y="136" on="1"/>
        <pt x="545" y="106" on="1"/>
        <pt x="534" y="0" on="1"/>
        <pt x="-19" y="0" on="1"/>
      </contour>
    </TTGlyph>
    <TTGlyph name="Ncaron" xMin="-19" yMin="0" xMax="1653" yMax="2014">
      <contour>
        <pt x="629" y="1956" on="1"/>
        <pt x="753" y="2014" on="1"/>
        <pt x="954" y="1842" on="1"/>
        <pt x="1277" y="2014" on="1"/>
        <pt x="1384" y="1957" on="1"/>
        <pt x="1016" y="1599" on="1"/>
        <pt x="839" y="1599" on="1"/>
      </contour>
      <contour>
        <pt x="-11" y="106" on="1"/>
        <pt x="138" y="136" on="1"/>
        <pt x="324" y="1386" on="1"/>
        <pt x="154" y="1412" on="1"/>
        <pt x="170" y="1522" on="1"/>
        <pt x="727" y="1522" on="1"/>
        <pt x="1098" y="535" on="1"/>
        <pt x="1176" y="305" on="1"/>
        <pt x="1312" y="1386" on="1"/>
        <pt x="1140" y="1412" on="1"/>
        <pt x="1151" y="1522" on="1"/>
        <pt x="1653" y="1522" on="1"/>
        <pt x="1642" y="1412" on="1"/>
        <pt x="1519" y="1386" on="1"/>
        <pt x="1307" y="0" on="1"/>
        <pt x="949" y="0" on="1"/>
        <pt x="558" y="1020" on="1"/>
        <pt x="480" y="1274" on="1"/>
        <pt x="355" y="136" on="1"/>
        <pt x="545" y="106" on="1"/>
        <pt x="534" y="0" on="1"/>
        <pt x="-19" y="0" on="1"/>
      </contour>
    </TTGlyph>
    <TTGlyph name="Ncommaaccent" xMin="-19" yMin="-560" xMax="1653" yMax="1522">
      <contour>
        <pt x="548" y="-490" on="1"/>
        <pt x="551" y="-464" on="1"/>
        <pt x="560" y="-459" on="0"/>
        <pt x="583" y="-438" on="0"/>
        <pt x="604" y="-405" on="0"/>
        <pt x="619" y="-362" on="0"/>
        <pt x="619" y="-335" on="1"/>
        <pt x="619" y="-316" on="0"/>
        <pt x="609" y="-281" on="0"/>
        <pt x="591" y="-253" on="0"/>
        <pt x="567" y="-236" on="0"/>
        <pt x="552" y="-234" on="1"/>
        <pt x="563" y="-141" on="1"/>
        <pt x="717" y="-37" on="1"/>
        <pt x="751" y="-44" on="0"/>
        <pt x="809" y="-83" on="0"/>
        <pt x="851" y="-139" on="0"/>
        <pt x="875" y="-210" on="0"/>
        <pt x="875" y="-249" on="1"/>
        <pt x="875" y="-313" on="0"/>
        <pt x="833" y="-421" on="0"/>
        <pt x="767" y="-502" on="0"/>
        <pt x="687" y="-553" on="0"/>
        <pt x="648" y="-560" on="1"/>
      </contour>
      <contour>
        <pt x="-11" y="106" on="1"/>
        <pt x="138" y="136" on="1"/>
        <pt x="324" y="1386" on="1"/>
        <pt x="154" y="1412" on="1"/>
        <pt x="170" y="1522" on="1"/>
        <pt x="727" y="1522" on="1"/>
        <pt x="1098" y="535" on="1"/>
        <pt x="1176" y="305" on="1"/>
        <pt x="1312" y="1386" on="1"/>
        <pt x="1140" y="1412" on="1"/>
        <pt x="1151" y="1522" on="1"/>
        <pt x="1653" y="1522" on="1"/>
        <pt x="1642" y="1412" on="1"/>
        <pt x="1519" y="1386" on="1"/>
        <pt x="1307" y="0" on="1"/>
        <pt x="949" y="0" on="1"/>
        <pt x="558" y="1020" on="1"/>
        <pt x="480" y="1274" on="1"/>
        <pt x="355" y="136" on="1"/>
        <pt x="545" y="106" on="1"/>
        <pt x="534" y="0" on="1"/>
        <pt x="-19" y="0" on="1"/>
      </contour>
    </TTGlyph>
    <TTGlyph name="Ntilde" xMin="-19" yMin="0" xMax="1653" yMax="1970">
      <contour>
        <pt x="580" y="1801" on="1"/>
        <pt x="592" y="1832" on="0"/>
        <pt x="638" y="1893" on="0"/>
        <pt x="704" y="1941" on="0"/>
        <pt x="788" y="1970" on="0"/>
        <pt x="837" y="1970" on="1"/>
        <pt x="876" y="1970" on="0"/>
        <pt x="933" y="1948" on="0"/>
        <pt x="979" y="1914" on="0"/>
        <pt x="1016" y="1876" on="0"/>
        <pt x="1052" y="1842" on="0"/>
        <pt x="1091" y="1820" on="0"/>
        <pt x="1116" y="1820" on="1"/>
        <pt x="1144" y="1820" on="0"/>
        <pt x="1190" y="1841" on="0"/>
        <pt x="1228" y="1871" on="0"/>
        <pt x="1257" y="1906" on="0"/>
        <pt x="1268" y="1920" on="1"/>
        <pt x="1356" y="1789" on="1"/>
        <pt x="1343" y="1756" on="0"/>
        <pt x="1294" y="1692" on="0"/>
        <pt x="1227" y="1640" on="0"/>
        <pt x="1148" y="1608" on="0"/>
        <pt x="1105" y="1608" on="1"/>
        <pt x="1061" y="1608" on="0"/>
        <pt x="998" y="1630" on="0"/>
        <pt x="952" y="1663" on="0"/>
        <pt x="915" y="1701" on="0"/>
        <pt x="877" y="1734" on="0"/>
        <pt x="834" y="1757" on="0"/>
        <pt x="804" y="1758" on="1"/>
        <pt x="781" y="1758" on="0"/>
        <pt x="740" y="1744" on="0"/>
        <pt x="703" y="1721" on="0"/>
        <pt x="671" y="1692" on="0"/>
        <pt x="657" y="1677" on="1"/>
      </contour>
      <contour>
        <pt x="-11" y="106" on="1"/>
        <pt x="138" y="136" on="1"/>
        <pt x="324" y="1386" on="1"/>
        <pt x="154" y="1412" on="1"/>
        <pt x="170" y="1522" on="1"/>
        <pt x="727" y="1522" on="1"/>
        <pt x="1098" y="535" on="1"/>
        <pt x="1176" y="305" on="1"/>
        <pt x="1312" y="1386" on="1"/>
        <pt x="1140" y="1412" on="1"/>
        <pt x="1151" y="1522" on="1"/>
        <pt x="1653" y="1522" on="1"/>
        <pt x="1642" y="1412" on="1"/>
        <pt x="1519" y="1386" on="1"/>
        <pt x="1307" y="0" on="1"/>
        <pt x="949" y="0" on="1"/>
        <pt x="558" y="1020" on="1"/>
        <pt x="480" y="1274" on="1"/>
        <pt x="355" y="136" on="1"/>
        <pt x="545" y="106" on="1"/>
        <pt x="534" y="0" on="1"/>
        <pt x="-19" y="0" on="1"/>
      </contour>
    </TTGlyph>
    <TTGlyph name="O" xMin="61" yMin="-20" xMax="1431" yMax="1542">
      <contour>
        <pt x="61" y="637" on="1"/>
        <pt x="61" y="752" on="0"/>
        <pt x="103" y="976" on="0"/>
        <pt x="189" y="1178" on="0"/>
        <pt x="318" y="1348" on="0"/>
        <pt x="494" y="1472" on="0"/>
        <pt x="716" y="1542" on="0"/>
        <pt x="851" y="1542" on="1"/>
        <pt x="957" y="1542" on="0"/>
        <pt x="1125" y="1494" on="0"/>
        <pt x="1254" y="1407" on="0"/>
        <pt x="1345" y="1287" on="0"/>
        <pt x="1404" y="1142" on="0"/>
        <pt x="1431" y="979" on="0"/>
        <pt x="1431" y="893" on="1"/>
        <pt x="1431" y="780" on="0"/>
        <pt x="1392" y="556" on="0"/>
        <pt x="1311" y="354" on="0"/>
        <pt x="1185" y="180" on="0"/>
        <pt x="1009" y="52" on="0"/>
        <pt x="782" y="-20" on="0"/>
        <pt x="641" y="-20" on="1"/>
        <pt x="485" y="-20" on="0"/>
        <pt x="265" y="80" on="0"/>
        <pt x="126" y="257" on="0"/>
        <pt x="61" y="497" on="0"/>
      </contour>
      <contour>
        <pt x="670" y="102" on="1"/>
        <pt x="767" y="102" on="0"/>
        <pt x="911" y="224" on="0"/>
        <pt x="1004" y="436" on="0"/>
        <pt x="1050" y="720" on="0"/>
        <pt x="1050" y="881" on="1"/>
        <pt x="1050" y="1007" on="0"/>
        <pt x="1026" y="1206" on="0"/>
        <pt x="972" y="1345" on="0"/>
        <pt x="886" y="1418" on="0"/>
        <pt x="824" y="1418" on="1"/>
        <pt x="762" y="1418" on="0"/>
        <pt x="657" y="1358" on="0"/>
        <pt x="572" y="1252" on="0"/>
        <pt x="508" y="1106" on="0"/>
        <pt x="464" y="935" on="0"/>
        <pt x="442" y="746" on="0"/>
        <pt x="442" y="649" on="1"/>
        <pt x="442" y="585" on="0"/>
        <pt x="449" y="454" on="0"/>
        <pt x="467" y="332" on="0"/>
        <pt x="499" y="226" on="0"/>
        <pt x="550" y="147" on="0"/>
        <pt x="621" y="102" on="0"/>
      </contour>
    </TTGlyph>
    <TTGlyph name="OE" xMin="61" yMin="-20" xMax="2286" yMax="1542">
      <contour>
        <pt x="61" y="637" on="1"/>
        <pt x="61" y="752" on="0"/>
        <pt x="103" y="976" on="0"/>
        <pt x="188" y="1178" on="0"/>
        <pt x="318" y="1348" on="0"/>
        <pt x="496" y="1472" on="0"/>
        <pt x="722" y="1542" on="0"/>
        <pt x="861" y="1542" on="1"/>
        <pt x="946" y="1542" on="0"/>
        <pt x="1081" y="1511" on="0"/>
        <pt x="1187" y="1454" on="0"/>
        <pt x="1266" y="1374" on="0"/>
        <pt x="1294" y="1325" on="1"/>
        <pt x="1319" y="1522" on="1"/>
        <pt x="2286" y="1522" on="1"/>
        <pt x="2250" y="1152" on="1"/>
        <pt x="2028" y="1152" on="1"/>
        <pt x="1994" y="1376" on="1"/>
        <pt x="1655" y="1402" on="1"/>
        <pt x="1582" y="868" on="1"/>
        <pt x="2040" y="911" on="1"/>
        <pt x="2000" y="676" on="1"/>
        <pt x="1563" y="712" on="1"/>
        <pt x="1484" y="136" on="1"/>
        <pt x="1948" y="171" on="1"/>
        <pt x="2065" y="468" on="1"/>
        <pt x="2278" y="454" on="1"/>
        <pt x="2208" y="0" on="1"/>
        <pt x="1126" y="0" on="1"/>
        <pt x="1147" y="165" on="1"/>
        <pt x="1062" y="79" on="0"/>
        <pt x="820" y="-20" on="0"/>
        <pt x="651" y="-20" on="1"/>
        <pt x="494" y="-20" on="0"/>
        <pt x="270" y="80" on="0"/>
        <pt x="128" y="257" on="0"/>
        <pt x="61" y="497" on="0"/>
      </contour>
      <contour>
        <pt x="680" y="102" on="1"/>
        <pt x="783" y="102" on="0"/>
        <pt x="933" y="224" on="0"/>
        <pt x="1032" y="436" on="0"/>
        <pt x="1080" y="720" on="0"/>
        <pt x="1080" y="881" on="1"/>
        <pt x="1080" y="1007" on="0"/>
        <pt x="1053" y="1206" on="0"/>
        <pt x="995" y="1345" on="0"/>
        <pt x="901" y="1418" on="0"/>
        <pt x="834" y="1418" on="1"/>
        <pt x="769" y="1418" on="0"/>
        <pt x="658" y="1358" on="0"/>
        <pt x="569" y="1252" on="0"/>
        <pt x="501" y="1106" on="0"/>
        <pt x="455" y="935" on="0"/>
        <pt x="432" y="746" on="0"/>
        <pt x="432" y="649" on="1"/>
        <pt x="432" y="585" on="0"/>
        <pt x="439" y="454" on="0"/>
        <pt x="459" y="332" on="0"/>
        <pt x="493" y="226" on="0"/>
        <pt x="549" y="147" on="0"/>
        <pt x="627" y="102" on="0"/>
      </contour>
    </TTGlyph>
    <TTGlyph name="Oacute" xMin="65" yMin="-20" xMax="1435" yMax="2014">
      <contour>
        <pt x="760" y="1672" on="1"/>
        <pt x="1036" y="2014" on="1"/>
        <pt x="1223" y="1829" on="1"/>
        <pt x="1203" y="1791" on="0"/>
        <pt x="1117" y="1711" on="0"/>
        <pt x="1015" y="1639" on="0"/>
        <pt x="912" y="1583" on="0"/>
        <pt x="876" y="1570" on="1"/>
      </contour>
      <contour>
        <pt x="65" y="637" on="1"/>
        <pt x="65" y="752" on="0"/>
        <pt x="107" y="976" on="0"/>
        <pt x="193" y="1178" on="0"/>
        <pt x="322" y="1348" on="0"/>
        <pt x="498" y="1472" on="0"/>
        <pt x="720" y="1542" on="0"/>
        <pt x="855" y="1542" on="1"/>
        <pt x="961" y="1542" on="0"/>
        <pt x="1129" y="1494" on="0"/>
        <pt x="1258" y="1407" on="0"/>
        <pt x="1349" y="1287" on="0"/>
        <pt x="1408" y="1142" on="0"/>
        <pt x="1435" y="979" on="0"/>
        <pt x="1435" y="893" on="1"/>
        <pt x="1435" y="780" on="0"/>
        <pt x="1396" y="556" on="0"/>
        <pt x="1315" y="354" on="0"/>
        <pt x="1189" y="180" on="0"/>
        <pt x="1013" y="52" on="0"/>
        <pt x="786" y="-20" on="0"/>
        <pt x="645" y="-20" on="1"/>
        <pt x="489" y="-20" on="0"/>
        <pt x="269" y="80" on="0"/>
        <pt x="130" y="257" on="0"/>
        <pt x="65" y="497" on="0"/>
      </contour>
      <contour>
        <pt x="674" y="102" on="1"/>
        <pt x="771" y="102" on="0"/>
        <pt x="915" y="224" on="0"/>
        <pt x="1008" y="436" on="0"/>
        <pt x="1054" y="720" on="0"/>
        <pt x="1054" y="881" on="1"/>
        <pt x="1054" y="1007" on="0"/>
        <pt x="1030" y="1206" on="0"/>
        <pt x="976" y="1345" on="0"/>
        <pt x="890" y="1418" on="0"/>
        <pt x="828" y="1418" on="1"/>
        <pt x="766" y="1418" on="0"/>
        <pt x="661" y="1358" on="0"/>
        <pt x="576" y="1252" on="0"/>
        <pt x="512" y="1106" on="0"/>
        <pt x="468" y="935" on="0"/>
        <pt x="446" y="746" on="0"/>
        <pt x="446" y="649" on="1"/>
        <pt x="446" y="585" on="0"/>
        <pt x="453" y="454" on="0"/>
        <pt x="471" y="332" on="0"/>
        <pt x="503" y="226" on="0"/>
        <pt x="554" y="147" on="0"/>
        <pt x="625" y="102" on="0"/>
      </contour>
    </TTGlyph>
    <TTGlyph name="Obreve" xMin="65" yMin="-20" xMax="1435" yMax="2014">
      <contour>
        <pt x="866" y="1633" on="1"/>
        <pt x="762" y="1633" on="0"/>
        <pt x="638" y="1694" on="0"/>
        <pt x="572" y="1787" on="0"/>
        <pt x="552" y="1897" on="0"/>
        <pt x="552" y="1946" on="1"/>
        <pt x="552" y="1981" on="0"/>
        <pt x="558" y="2014" on="1"/>
        <pt x="743" y="2014" on="1"/>
        <pt x="743" y="1979" on="0"/>
        <pt x="747" y="1919" on="0"/>
        <pt x="771" y="1875" on="0"/>
        <pt x="823" y="1850" on="0"/>
        <pt x="871" y="1850" on="1"/>
        <pt x="926" y="1850" on="0"/>
        <pt x="991" y="1884" on="0"/>
        <pt x="1025" y="1933" on="0"/>
        <pt x="1035" y="1990" on="0"/>
        <pt x="1035" y="2014" on="1"/>
        <pt x="1215" y="2014" on="1"/>
        <pt x="1215" y="1929" on="0"/>
        <pt x="1168" y="1789" on="0"/>
        <pt x="1078" y="1688" on="0"/>
        <pt x="948" y="1633" on="0"/>
      </contour>
      <contour>
        <pt x="65" y="637" on="1"/>
        <pt x="65" y="752" on="0"/>
        <pt x="107" y="976" on="0"/>
        <pt x="193" y="1178" on="0"/>
        <pt x="322" y="1348" on="0"/>
        <pt x="498" y="1472" on="0"/>
        <pt x="720" y="1542" on="0"/>
        <pt x="855" y="1542" on="1"/>
        <pt x="961" y="1542" on="0"/>
        <pt x="1129" y="1494" on="0"/>
        <pt x="1258" y="1407" on="0"/>
        <pt x="1349" y="1287" on="0"/>
        <pt x="1408" y="1142" on="0"/>
        <pt x="1435" y="979" on="0"/>
        <pt x="1435" y="893" on="1"/>
        <pt x="1435" y="780" on="0"/>
        <pt x="1396" y="556" on="0"/>
        <pt x="1315" y="354" on="0"/>
        <pt x="1189" y="180" on="0"/>
        <pt x="1013" y="52" on="0"/>
        <pt x="786" y="-20" on="0"/>
        <pt x="645" y="-20" on="1"/>
        <pt x="489" y="-20" on="0"/>
        <pt x="269" y="80" on="0"/>
        <pt x="130" y="257" on="0"/>
        <pt x="65" y="497" on="0"/>
      </contour>
      <contour>
        <pt x="674" y="102" on="1"/>
        <pt x="771" y="102" on="0"/>
        <pt x="915" y="224" on="0"/>
        <pt x="1008" y="436" on="0"/>
        <pt x="1054" y="720" on="0"/>
        <pt x="1054" y="881" on="1"/>
        <pt x="1054" y="1007" on="0"/>
        <pt x="1030" y="1206" on="0"/>
        <pt x="976" y="1345" on="0"/>
        <pt x="890" y="1418" on="0"/>
        <pt x="828" y="1418" on="1"/>
        <pt x="766" y="1418" on="0"/>
        <pt x="661" y="1358" on="0"/>
        <pt x="576" y="1252" on="0"/>
        <pt x="512" y="1106" on="0"/>
        <pt x="468" y="935" on="0"/>
        <pt x="446" y="746" on="0"/>
        <pt x="446" y="649" on="1"/>
        <pt x="446" y="585" on="0"/>
        <pt x="453" y="454" on="0"/>
        <pt x="471" y="332" on="0"/>
        <pt x="503" y="226" on="0"/>
        <pt x="554" y="147" on="0"/>
        <pt x="625" y="102" on="0"/>
      </contour>
    </TTGlyph>
    <TTGlyph name="Ocircumflex" xMin="65" yMin="-20" xMax="1435" yMax="2014">
      <contour>
        <pt x="65" y="637" on="1"/>
        <pt x="65" y="752" on="0"/>
        <pt x="107" y="976" on="0"/>
        <pt x="193" y="1178" on="0"/>
        <pt x="322" y="1348" on="0"/>
        <pt x="498" y="1472" on="0"/>
        <pt x="720" y="1542" on="0"/>
        <pt x="855" y="1542" on="1"/>
        <pt x="961" y="1542" on="0"/>
        <pt x="1129" y="1494" on="0"/>
        <pt x="1258" y="1407" on="0"/>
        <pt x="1349" y="1287" on="0"/>
        <pt x="1408" y="1142" on="0"/>
        <pt x="1435" y="979" on="0"/>
        <pt x="1435" y="893" on="1"/>
        <pt x="1435" y="780" on="0"/>
        <pt x="1396" y="556" on="0"/>
        <pt x="1315" y="354" on="0"/>
        <pt x="1189" y="180" on="0"/>
        <pt x="1013" y="52" on="0"/>
        <pt x="786" y="-20" on="0"/>
        <pt x="645" y="-20" on="1"/>
        <pt x="489" y="-20" on="0"/>
        <pt x="269" y="80" on="0"/>
        <pt x="130" y="257" on="0"/>
        <pt x="65" y="497" on="0"/>
      </contour>
      <contour>
        <pt x="674" y="102" on="1"/>
        <pt x="771" y="102" on="0"/>
        <pt x="915" y="224" on="0"/>
        <pt x="1008" y="436" on="0"/>
        <pt x="1054" y="720" on="0"/>
        <pt x="1054" y="881" on="1"/>
        <pt x="1054" y="1007" on="0"/>
        <pt x="1030" y="1206" on="0"/>
        <pt x="976" y="1345" on="0"/>
        <pt x="890" y="1418" on="0"/>
        <pt x="828" y="1418" on="1"/>
        <pt x="766" y="1418" on="0"/>
        <pt x="661" y="1358" on="0"/>
        <pt x="576" y="1252" on="0"/>
        <pt x="512" y="1106" on="0"/>
        <pt x="468" y="935" on="0"/>
        <pt x="446" y="746" on="0"/>
        <pt x="446" y="649" on="1"/>
        <pt x="446" y="585" on="0"/>
        <pt x="453" y="454" on="0"/>
        <pt x="471" y="332" on="0"/>
        <pt x="503" y="226" on="0"/>
        <pt x="554" y="147" on="0"/>
        <pt x="625" y="102" on="0"/>
      </contour>
      <contour>
        <pt x="493" y="1657" on="1"/>
        <pt x="860" y="2014" on="1"/>
        <pt x="1038" y="2014" on="1"/>
        <pt x="1248" y="1657" on="1"/>
        <pt x="1124" y="1599" on="1"/>
        <pt x="923" y="1806" on="1"/>
        <pt x="600" y="1600" on="1"/>
      </contour>
    </TTGlyph>
    <TTGlyph name="Odieresis" xMin="65" yMin="-20" xMax="1435" yMax="1984">
      <contour>
        <pt x="628" y="1661" on="1"/>
        <pt x="598" y="1661" on="0"/>
        <pt x="548" y="1684" on="0"/>
        <pt x="512" y="1723" on="0"/>
        <pt x="492" y="1777" on="0"/>
        <pt x="493" y="1808" on="1"/>
        <pt x="495" y="1890" on="0"/>
        <pt x="584" y="1984" on="0"/>
        <pt x="661" y="1984" on="1"/>
        <pt x="732" y="1984" on="0"/>
        <pt x="804" y="1903" on="0"/>
        <pt x="803" y="1843" on="1"/>
        <pt x="801" y="1759" on="0"/>
        <pt x="717" y="1661" on="0"/>
      </contour>
      <contour>
        <pt x="1080" y="1661" on="1"/>
        <pt x="1050" y="1661" on="0"/>
        <pt x="1000" y="1684" on="0"/>
        <pt x="964" y="1723" on="0"/>
        <pt x="944" y="1777" on="0"/>
        <pt x="945" y="1808" on="1"/>
        <pt x="947" y="1890" on="0"/>
        <pt x="1036" y="1984" on="0"/>
        <pt x="1113" y="1984" on="1"/>
        <pt x="1184" y="1984" on="0"/>
        <pt x="1256" y="1903" on="0"/>
        <pt x="1255" y="1843" on="1"/>
        <pt x="1253" y="1759" on="0"/>
        <pt x="1169" y="1661" on="0"/>
      </contour>
      <contour>
        <pt x="65" y="637" on="1"/>
        <pt x="65" y="752" on="0"/>
        <pt x="107" y="976" on="0"/>
        <pt x="193" y="1178" on="0"/>
        <pt x="322" y="1348" on="0"/>
        <pt x="498" y="1472" on="0"/>
        <pt x="720" y="1542" on="0"/>
        <pt x="855" y="1542" on="1"/>
        <pt x="961" y="1542" on="0"/>
        <pt x="1129" y="1494" on="0"/>
        <pt x="1258" y="1407" on="0"/>
        <pt x="1349" y="1287" on="0"/>
        <pt x="1408" y="1142" on="0"/>
        <pt x="1435" y="979" on="0"/>
        <pt x="1435" y="893" on="1"/>
        <pt x="1435" y="780" on="0"/>
        <pt x="1396" y="556" on="0"/>
        <pt x="1315" y="354" on="0"/>
        <pt x="1189" y="180" on="0"/>
        <pt x="1013" y="52" on="0"/>
        <pt x="786" y="-20" on="0"/>
        <pt x="645" y="-20" on="1"/>
        <pt x="489" y="-20" on="0"/>
        <pt x="269" y="80" on="0"/>
        <pt x="130" y="257" on="0"/>
        <pt x="65" y="497" on="0"/>
      </contour>
      <contour>
        <pt x="674" y="102" on="1"/>
        <pt x="771" y="102" on="0"/>
        <pt x="915" y="224" on="0"/>
        <pt x="1008" y="436" on="0"/>
        <pt x="1054" y="720" on="0"/>
        <pt x="1054" y="881" on="1"/>
        <pt x="1054" y="1007" on="0"/>
        <pt x="1030" y="1206" on="0"/>
        <pt x="976" y="1345" on="0"/>
        <pt x="890" y="1418" on="0"/>
        <pt x="828" y="1418" on="1"/>
        <pt x="766" y="1418" on="0"/>
        <pt x="661" y="1358" on="0"/>
        <pt x="576" y="1252" on="0"/>
        <pt x="512" y="1106" on="0"/>
        <pt x="468" y="935" on="0"/>
        <pt x="446" y="746" on="0"/>
        <pt x="446" y="649" on="1"/>
        <pt x="446" y="585" on="0"/>
        <pt x="453" y="454" on="0"/>
        <pt x="471" y="332" on="0"/>
        <pt x="503" y="226" on="0"/>
        <pt x="554" y="147" on="0"/>
        <pt x="625" y="102" on="0"/>
      </contour>
    </TTGlyph>
    <TTGlyph name="Ograve" xMin="65" yMin="-20" xMax="1435" yMax="2014">
      <contour>
        <pt x="867" y="1570" on="1"/>
        <pt x="831" y="1583" on="0"/>
        <pt x="730" y="1638" on="0"/>
        <pt x="629" y="1708" on="0"/>
        <pt x="542" y="1789" on="0"/>
        <pt x="520" y="1829" on="1"/>
        <pt x="707" y="2014" on="1"/>
        <pt x="983" y="1672" on="1"/>
        <pt x="867" y="1570" on="1"/>
      </contour>
      <contour>
        <pt x="65" y="637" on="1"/>
        <pt x="65" y="752" on="0"/>
        <pt x="107" y="976" on="0"/>
        <pt x="193" y="1178" on="0"/>
        <pt x="322" y="1348" on="0"/>
        <pt x="498" y="1472" on="0"/>
        <pt x="720" y="1542" on="0"/>
        <pt x="855" y="1542" on="1"/>
        <pt x="961" y="1542" on="0"/>
        <pt x="1129" y="1494" on="0"/>
        <pt x="1258" y="1407" on="0"/>
        <pt x="1349" y="1287" on="0"/>
        <pt x="1408" y="1142" on="0"/>
        <pt x="1435" y="979" on="0"/>
        <pt x="1435" y="893" on="1"/>
        <pt x="1435" y="780" on="0"/>
        <pt x="1396" y="556" on="0"/>
        <pt x="1315" y="354" on="0"/>
        <pt x="1189" y="180" on="0"/>
        <pt x="1013" y="52" on="0"/>
        <pt x="786" y="-20" on="0"/>
        <pt x="645" y="-20" on="1"/>
        <pt x="489" y="-20" on="0"/>
        <pt x="269" y="80" on="0"/>
        <pt x="130" y="257" on="0"/>
        <pt x="65" y="497" on="0"/>
      </contour>
      <contour>
        <pt x="674" y="102" on="1"/>
        <pt x="771" y="102" on="0"/>
        <pt x="915" y="224" on="0"/>
        <pt x="1008" y="436" on="0"/>
        <pt x="1054" y="720" on="0"/>
        <pt x="1054" y="881" on="1"/>
        <pt x="1054" y="1007" on="0"/>
        <pt x="1030" y="1206" on="0"/>
        <pt x="976" y="1345" on="0"/>
        <pt x="890" y="1418" on="0"/>
        <pt x="828" y="1418" on="1"/>
        <pt x="766" y="1418" on="0"/>
        <pt x="661" y="1358" on="0"/>
        <pt x="576" y="1252" on="0"/>
        <pt x="512" y="1106" on="0"/>
        <pt x="468" y="935" on="0"/>
        <pt x="446" y="746" on="0"/>
        <pt x="446" y="649" on="1"/>
        <pt x="446" y="585" on="0"/>
        <pt x="453" y="454" on="0"/>
        <pt x="471" y="332" on="0"/>
        <pt x="503" y="226" on="0"/>
        <pt x="554" y="147" on="0"/>
        <pt x="625" y="102" on="0"/>
      </contour>
    </TTGlyph>
    <TTGlyph name="Ohungarumlaut" xMin="65" yMin="-20" xMax="1435" yMax="2014">
      <contour>
        <pt x="65" y="637" on="1"/>
        <pt x="65" y="752" on="0"/>
        <pt x="107" y="976" on="0"/>
        <pt x="193" y="1178" on="0"/>
        <pt x="322" y="1348" on="0"/>
        <pt x="498" y="1472" on="0"/>
        <pt x="720" y="1542" on="0"/>
        <pt x="855" y="1542" on="1"/>
        <pt x="961" y="1542" on="0"/>
        <pt x="1129" y="1494" on="0"/>
        <pt x="1258" y="1407" on="0"/>
        <pt x="1349" y="1287" on="0"/>
        <pt x="1408" y="1142" on="0"/>
        <pt x="1435" y="979" on="0"/>
        <pt x="1435" y="893" on="1"/>
        <pt x="1435" y="780" on="0"/>
        <pt x="1396" y="556" on="0"/>
        <pt x="1315" y="354" on="0"/>
        <pt x="1189" y="180" on="0"/>
        <pt x="1013" y="52" on="0"/>
        <pt x="786" y="-20" on="0"/>
        <pt x="645" y="-20" on="1"/>
        <pt x="489" y="-20" on="0"/>
        <pt x="269" y="80" on="0"/>
        <pt x="130" y="257" on="0"/>
        <pt x="65" y="497" on="0"/>
      </contour>
      <contour>
        <pt x="674" y="102" on="1"/>
        <pt x="771" y="102" on="0"/>
        <pt x="915" y="224" on="0"/>
        <pt x="1008" y="436" on="0"/>
        <pt x="1054" y="720" on="0"/>
        <pt x="1054" y="881" on="1"/>
        <pt x="1054" y="1007" on="0"/>
        <pt x="1030" y="1206" on="0"/>
        <pt x="976" y="1345" on="0"/>
        <pt x="890" y="1418" on="0"/>
        <pt x="828" y="1418" on="1"/>
        <pt x="766" y="1418" on="0"/>
        <pt x="661" y="1358" on="0"/>
        <pt x="576" y="1252" on="0"/>
        <pt x="512" y="1106" on="0"/>
        <pt x="468" y="935" on="0"/>
        <pt x="446" y="746" on="0"/>
        <pt x="446" y="649" on="1"/>
        <pt x="446" y="585" on="0"/>
        <pt x="453" y="454" on="0"/>
        <pt x="471" y="332" on="0"/>
        <pt x="503" y="226" on="0"/>
        <pt x="554" y="147" on="0"/>
        <pt x="625" y="102" on="0"/>
      </contour>
      <contour>
        <pt x="478" y="1645" on="1"/>
        <pt x="760" y="2014" on="1"/>
        <pt x="923" y="1882" on="1"/>
        <pt x="904" y="1838" on="0"/>
        <pt x="825" y="1741" on="0"/>
        <pt x="728" y="1652" on="0"/>
        <pt x="625" y="1584" on="0"/>
        <pt x="582" y="1570" on="1"/>
      </contour>
      <contour>
        <pt x="968" y="1645" on="1"/>
        <pt x="1250" y="2014" on="1"/>
        <pt x="1410" y="1881" on="1"/>
        <pt x="1384" y="1837" on="0"/>
        <pt x="1306" y="1740" on="0"/>
        <pt x="1213" y="1652" on="0"/>
        <pt x="1113" y="1584" on="0"/>
        <pt x="1067" y="1570" on="1"/>
      </contour>
    </TTGlyph>
    <TTGlyph name="Omacron" xMin="65" yMin="-20" xMax="1435" yMax="1916">
      <contour>
        <pt x="598" y="1916" on="1"/>
        <pt x="1169" y="1916" on="1"/>
        <pt x="1149" y="1707" on="1"/>
        <pt x="578" y="1707" on="1"/>
      </contour>
      <contour>
        <pt x="65" y="637" on="1"/>
        <pt x="65" y="752" on="0"/>
        <pt x="107" y="976" on="0"/>
        <pt x="193" y="1178" on="0"/>
        <pt x="322" y="1348" on="0"/>
        <pt x="498" y="1472" on="0"/>
        <pt x="720" y="1542" on="0"/>
        <pt x="855" y="1542" on="1"/>
        <pt x="961" y="1542" on="0"/>
        <pt x="1129" y="1494" on="0"/>
        <pt x="1258" y="1407" on="0"/>
        <pt x="1349" y="1287" on="0"/>
        <pt x="1408" y="1142" on="0"/>
        <pt x="1435" y="979" on="0"/>
        <pt x="1435" y="893" on="1"/>
        <pt x="1435" y="780" on="0"/>
        <pt x="1396" y="556" on="0"/>
        <pt x="1315" y="354" on="0"/>
        <pt x="1189" y="180" on="0"/>
        <pt x="1013" y="52" on="0"/>
        <pt x="786" y="-20" on="0"/>
        <pt x="645" y="-20" on="1"/>
        <pt x="489" y="-20" on="0"/>
        <pt x="269" y="80" on="0"/>
        <pt x="130" y="257" on="0"/>
        <pt x="65" y="497" on="0"/>
      </contour>
      <contour>
        <pt x="674" y="102" on="1"/>
        <pt x="771" y="102" on="0"/>
        <pt x="915" y="224" on="0"/>
        <pt x="1008" y="436" on="0"/>
        <pt x="1054" y="720" on="0"/>
        <pt x="1054" y="881" on="1"/>
        <pt x="1054" y="1007" on="0"/>
        <pt x="1030" y="1206" on="0"/>
        <pt x="976" y="1345" on="0"/>
        <pt x="890" y="1418" on="0"/>
        <pt x="828" y="1418" on="1"/>
        <pt x="766" y="1418" on="0"/>
        <pt x="661" y="1358" on="0"/>
        <pt x="576" y="1252" on="0"/>
        <pt x="512" y="1106" on="0"/>
        <pt x="468" y="935" on="0"/>
        <pt x="446" y="746" on="0"/>
        <pt x="446" y="649" on="1"/>
        <pt x="446" y="585" on="0"/>
        <pt x="453" y="454" on="0"/>
        <pt x="471" y="332" on="0"/>
        <pt x="503" y="226" on="0"/>
        <pt x="554" y="147" on="0"/>
        <pt x="625" y="102" on="0"/>
      </contour>
    </TTGlyph>
    <TTGlyph name="Omega" xMin="-76" yMin="0" xMax="1689" yMax="1537">
      <contour>
        <pt x="867" y="149" on="1"/>
        <pt x="945" y="198" on="0"/>
        <pt x="1063" y="355" on="0"/>
        <pt x="1143" y="558" on="0"/>
        <pt x="1184" y="796" on="0"/>
        <pt x="1184" y="926" on="1"/>
        <pt x="1184" y="975" on="0"/>
        <pt x="1172" y="1084" on="0"/>
        <pt x="1144" y="1190" on="0"/>
        <pt x="1099" y="1287" on="0"/>
        <pt x="1031" y="1361" on="0"/>
        <pt x="939" y="1405" on="0"/>
        <pt x="879" y="1405" on="1"/>
        <pt x="773" y="1405" on="0"/>
        <pt x="625" y="1301" on="0"/>
        <pt x="532" y="1127" on="0"/>
        <pt x="490" y="902" on="0"/>
        <pt x="490" y="781" on="1"/>
        <pt x="490" y="686" on="0"/>
        <pt x="525" y="492" on="0"/>
        <pt x="580" y="320" on="0"/>
        <pt x="649" y="185" on="0"/>
        <pt x="683" y="149" on="1"/>
        <pt x="633" y="0" on="1"/>
        <pt x="-76" y="0" on="1"/>
        <pt x="-76" y="440" on="1"/>
        <pt x="104" y="416" on="1"/>
        <pt x="129" y="181" on="1"/>
        <pt x="417" y="181" on="1"/>
        <pt x="369" y="230" on="0"/>
        <pt x="275" y="365" on="0"/>
        <pt x="201" y="523" on="0"/>
        <pt x="156" y="698" on="0"/>
        <pt x="156" y="786" on="1"/>
        <pt x="156" y="939" on="0"/>
        <pt x="237" y="1211" on="0"/>
        <pt x="420" y="1417" on="0"/>
        <pt x="713" y="1537" on="0"/>
        <pt x="925" y="1537" on="1"/>
        <pt x="1066" y="1537" on="0"/>
        <pt x="1291" y="1463" on="0"/>
        <pt x="1450" y="1320" on="0"/>
        <pt x="1535" y="1110" on="0"/>
        <pt x="1535" y="975" on="1"/>
        <pt x="1535" y="877" on="0"/>
        <pt x="1484" y="661" on="0"/>
        <pt x="1387" y="452" on="0"/>
        <pt x="1246" y="263" on="0"/>
        <pt x="1156" y="191" on="1"/>
        <pt x="1423" y="191" on="1"/>
        <pt x="1429" y="185" on="1"/>
        <pt x="1501" y="440" on="1"/>
        <pt x="1689" y="440" on="1"/>
        <pt x="1620" y="0" on="1"/>
        <pt x="907" y="0" on="1"/>
      </contour>
    </TTGlyph>
    <TTGlyph name="Omegagreek" xMin="-76" yMin="0" xMax="1689" yMax="1537">
      <contour>
        <pt x="867" y="149" on="1"/>
        <pt x="945" y="198" on="0"/>
        <pt x="1063" y="355" on="0"/>
        <pt x="1143" y="558" on="0"/>
        <pt x="1184" y="796" on="0"/>
        <pt x="1184" y="926" on="1"/>
        <pt x="1184" y="975" on="0"/>
        <pt x="1172" y="1084" on="0"/>
        <pt x="1144" y="1190" on="0"/>
        <pt x="1099" y="1287" on="0"/>
        <pt x="1031" y="1361" on="0"/>
        <pt x="939" y="1405" on="0"/>
        <pt x="879" y="1405" on="1"/>
        <pt x="773" y="1405" on="0"/>
        <pt x="625" y="1301" on="0"/>
        <pt x="532" y="1127" on="0"/>
        <pt x="490" y="902" on="0"/>
        <pt x="490" y="781" on="1"/>
        <pt x="490" y="686" on="0"/>
        <pt x="525" y="492" on="0"/>
        <pt x="580" y="320" on="0"/>
        <pt x="649" y="185" on="0"/>
        <pt x="683" y="149" on="1"/>
        <pt x="633" y="0" on="1"/>
        <pt x="-76" y="0" on="1"/>
        <pt x="-76" y="440" on="1"/>
        <pt x="104" y="416" on="1"/>
        <pt x="129" y="181" on="1"/>
        <pt x="417" y="181" on="1"/>
        <pt x="369" y="230" on="0"/>
        <pt x="275" y="365" on="0"/>
        <pt x="201" y="523" on="0"/>
        <pt x="156" y="698" on="0"/>
        <pt x="156" y="786" on="1"/>
        <pt x="156" y="939" on="0"/>
        <pt x="237" y="1211" on="0"/>
        <pt x="420" y="1417" on="0"/>
        <pt x="713" y="1537" on="0"/>
        <pt x="925" y="1537" on="1"/>
        <pt x="1066" y="1537" on="0"/>
        <pt x="1291" y="1463" on="0"/>
        <pt x="1450" y="1320" on="0"/>
        <pt x="1535" y="1110" on="0"/>
        <pt x="1535" y="975" on="1"/>
        <pt x="1535" y="877" on="0"/>
        <pt x="1484" y="661" on="0"/>
        <pt x="1387" y="452" on="0"/>
        <pt x="1246" y="263" on="0"/>
        <pt x="1156" y="191" on="1"/>
        <pt x="1423" y="191" on="1"/>
        <pt x="1429" y="185" on="1"/>
        <pt x="1501" y="440" on="1"/>
        <pt x="1689" y="440" on="1"/>
        <pt x="1620" y="0" on="1"/>
        <pt x="907" y="0" on="1"/>
      </contour>
    </TTGlyph>
    <TTGlyph name="Oslash" xMin="65" yMin="-132" xMax="1435" yMax="1680">
      <contour>
        <pt x="65" y="639" on="1"/>
        <pt x="65" y="754" on="0"/>
        <pt x="107" y="978" on="0"/>
        <pt x="193" y="1180" on="0"/>
        <pt x="322" y="1350" on="0"/>
        <pt x="498" y="1474" on="0"/>
        <pt x="720" y="1544" on="0"/>
        <pt x="855" y="1544" on="1"/>
        <pt x="943" y="1544" on="0"/>
        <pt x="1086" y="1511" on="0"/>
        <pt x="1145" y="1481" on="1"/>
        <pt x="1281" y="1680" on="1"/>
        <pt x="1370" y="1621" on="1"/>
        <pt x="1231" y="1424" on="1"/>
        <pt x="1285" y="1379" on="0"/>
        <pt x="1362" y="1262" on="0"/>
        <pt x="1412" y="1126" on="0"/>
        <pt x="1435" y="974" on="0"/>
        <pt x="1435" y="895" on="1"/>
        <pt x="1435" y="782" on="0"/>
        <pt x="1396" y="558" on="0"/>
        <pt x="1315" y="356" on="0"/>
        <pt x="1189" y="182" on="0"/>
        <pt x="1013" y="54" on="0"/>
        <pt x="786" y="-18" on="0"/>
        <pt x="645" y="-18" on="1"/>
        <pt x="551" y="-18" on="0"/>
        <pt x="397" y="19" on="0"/>
        <pt x="335" y="54" on="1"/>
        <pt x="209" y="-132" on="1"/>
        <pt x="120" y="-73" on="1"/>
        <pt x="252" y="115" on="1"/>
        <pt x="154" y="204" on="0"/>
        <pt x="65" y="474" on="0"/>
      </contour>
      <contour>
        <pt x="674" y="104" on="1"/>
        <pt x="771" y="104" on="0"/>
        <pt x="915" y="226" on="0"/>
        <pt x="1008" y="438" on="0"/>
        <pt x="1054" y="722" on="0"/>
        <pt x="1054" y="883" on="1"/>
        <pt x="1054" y="961" on="0"/>
        <pt x="1045" y="1098" on="0"/>
        <pt x="1035" y="1155" on="1"/>
        <pt x="492" y="266" on="1"/>
        <pt x="517" y="193" on="0"/>
        <pt x="604" y="104" on="0"/>
      </contour>
      <contour>
        <pt x="446" y="651" on="1"/>
        <pt x="446" y="584" on="0"/>
        <pt x="453" y="450" on="0"/>
        <pt x="463" y="387" on="1"/>
        <pt x="1005" y="1270" on="1"/>
        <pt x="979" y="1343" on="0"/>
        <pt x="891" y="1420" on="0"/>
        <pt x="828" y="1420" on="1"/>
        <pt x="766" y="1420" on="0"/>
        <pt x="661" y="1360" on="0"/>
        <pt x="576" y="1254" on="0"/>
        <pt x="512" y="1108" on="0"/>
        <pt x="468" y="937" on="0"/>
        <pt x="446" y="748" on="0"/>
      </contour>
    </TTGlyph>
    <TTGlyph name="Otilde" xMin="65" yMin="-20" xMax="1435" yMax="1970">
      <contour>
        <pt x="506" y="1801" on="1"/>
        <pt x="518" y="1832" on="0"/>
        <pt x="564" y="1893" on="0"/>
        <pt x="630" y="1941" on="0"/>
        <pt x="714" y="1970" on="0"/>
        <pt x="763" y="1970" on="1"/>
        <pt x="802" y="1970" on="0"/>
        <pt x="859" y="1948" on="0"/>
        <pt x="905" y="1914" on="0"/>
        <pt x="942" y="1876" on="0"/>
        <pt x="978" y="1842" on="0"/>
        <pt x="1017" y="1820" on="0"/>
        <pt x="1042" y="1820" on="1"/>
        <pt x="1070" y="1820" on="0"/>
        <pt x="1116" y="1841" on="0"/>
        <pt x="1154" y="1871" on="0"/>
        <pt x="1183" y="1906" on="0"/>
        <pt x="1194" y="1920" on="1"/>
        <pt x="1282" y="1789" on="1"/>
        <pt x="1269" y="1756" on="0"/>
        <pt x="1220" y="1692" on="0"/>
        <pt x="1153" y="1640" on="0"/>
        <pt x="1074" y="1608" on="0"/>
        <pt x="1031" y="1608" on="1"/>
        <pt x="987" y="1608" on="0"/>
        <pt x="924" y="1630" on="0"/>
        <pt x="878" y="1663" on="0"/>
        <pt x="841" y="1701" on="0"/>
        <pt x="803" y="1734" on="0"/>
        <pt x="760" y="1757" on="0"/>
        <pt x="730" y="1758" on="1"/>
        <pt x="707" y="1758" on="0"/>
        <pt x="666" y="1744" on="0"/>
        <pt x="629" y="1721" on="0"/>
        <pt x="597" y="1692" on="0"/>
        <pt x="583" y="1677" on="1"/>
      </contour>
      <contour>
        <pt x="65" y="637" on="1"/>
        <pt x="65" y="752" on="0"/>
        <pt x="107" y="976" on="0"/>
        <pt x="193" y="1178" on="0"/>
        <pt x="322" y="1348" on="0"/>
        <pt x="498" y="1472" on="0"/>
        <pt x="720" y="1542" on="0"/>
        <pt x="855" y="1542" on="1"/>
        <pt x="961" y="1542" on="0"/>
        <pt x="1129" y="1494" on="0"/>
        <pt x="1258" y="1407" on="0"/>
        <pt x="1349" y="1287" on="0"/>
        <pt x="1408" y="1142" on="0"/>
        <pt x="1435" y="979" on="0"/>
        <pt x="1435" y="893" on="1"/>
        <pt x="1435" y="780" on="0"/>
        <pt x="1396" y="556" on="0"/>
        <pt x="1315" y="354" on="0"/>
        <pt x="1189" y="180" on="0"/>
        <pt x="1013" y="52" on="0"/>
        <pt x="786" y="-20" on="0"/>
        <pt x="645" y="-20" on="1"/>
        <pt x="489" y="-20" on="0"/>
        <pt x="269" y="80" on="0"/>
        <pt x="130" y="257" on="0"/>
        <pt x="65" y="497" on="0"/>
      </contour>
      <contour>
        <pt x="674" y="102" on="1"/>
        <pt x="771" y="102" on="0"/>
        <pt x="915" y="224" on="0"/>
        <pt x="1008" y="436" on="0"/>
        <pt x="1054" y="720" on="0"/>
        <pt x="1054" y="881" on="1"/>
        <pt x="1054" y="1007" on="0"/>
        <pt x="1030" y="1206" on="0"/>
        <pt x="976" y="1345" on="0"/>
        <pt x="890" y="1418" on="0"/>
        <pt x="828" y="1418" on="1"/>
        <pt x="766" y="1418" on="0"/>
        <pt x="661" y="1358" on="0"/>
        <pt x="576" y="1252" on="0"/>
        <pt x="512" y="1106" on="0"/>
        <pt x="468" y="935" on="0"/>
        <pt x="446" y="746" on="0"/>
        <pt x="446" y="649" on="1"/>
        <pt x="446" y="585" on="0"/>
        <pt x="453" y="454" on="0"/>
        <pt x="471" y="332" on="0"/>
        <pt x="503" y="226" on="0"/>
        <pt x="554" y="147" on="0"/>
        <pt x="625" y="102" on="0"/>
      </contour>
    </TTGlyph>
    <TTGlyph name="P" xMin="-13" yMin="0" xMax="1376" yMax="1538">
      <contour>
        <pt x="-2" y="106" on="1"/>
        <pt x="136" y="136" on="1"/>
        <pt x="304" y="1386" on="1"/>
        <pt x="156" y="1412" on="1"/>
        <pt x="170" y="1522" on="1"/>
        <pt x="486" y="1522" on="1"/>
        <pt x="577" y="1522" on="0"/>
        <pt x="736" y="1538" on="0"/>
        <pt x="813" y="1538" on="1"/>
        <pt x="965" y="1538" on="0"/>
        <pt x="1175" y="1485" on="0"/>
        <pt x="1307" y="1381" on="0"/>
        <pt x="1369" y="1230" on="0"/>
        <pt x="1372" y="1131" on="1"/>
        <pt x="1376" y="984" on="0"/>
        <pt x="1280" y="754" on="0"/>
        <pt x="1093" y="596" on="0"/>
        <pt x="825" y="514" on="0"/>
        <pt x="658" y="514" on="1"/>
        <pt x="612" y="514" on="0"/>
        <pt x="561" y="516" on="0"/>
        <pt x="541" y="518" on="1"/>
        <pt x="495" y="136" on="1"/>
        <pt x="773" y="106" on="1"/>
        <pt x="765" y="0" on="1"/>
        <pt x="-13" y="0" on="1"/>
      </contour>
      <contour>
        <pt x="557" y="654" on="1"/>
        <pt x="588" y="646" on="0"/>
        <pt x="643" y="645" on="0"/>
        <pt x="667" y="646" on="1"/>
        <pt x="747" y="647" on="0"/>
        <pt x="874" y="717" on="0"/>
        <pt x="963" y="842" on="0"/>
        <pt x="1011" y="1017" on="0"/>
        <pt x="1011" y="1124" on="1"/>
        <pt x="1011" y="1201" on="0"/>
        <pt x="974" y="1311" on="0"/>
        <pt x="905" y="1380" on="0"/>
        <pt x="807" y="1412" on="0"/>
        <pt x="748" y="1412" on="1"/>
        <pt x="727" y="1412" on="0"/>
        <pt x="685" y="1408" on="0"/>
        <pt x="659" y="1403" on="1"/>
      </contour>
    </TTGlyph>
    <TTGlyph name="Q" xMin="62" yMin="-439" xMax="1432" yMax="1541">
      <contour>
        <pt x="62" y="636" on="1"/>
        <pt x="62" y="751" on="0"/>
        <pt x="104" y="975" on="0"/>
        <pt x="190" y="1177" on="0"/>
        <pt x="319" y="1347" on="0"/>
        <pt x="495" y="1471" on="0"/>
        <pt x="717" y="1541" on="0"/>
        <pt x="852" y="1541" on="1"/>
        <pt x="958" y="1541" on="0"/>
        <pt x="1126" y="1493" on="0"/>
        <pt x="1255" y="1406" on="0"/>
        <pt x="1346" y="1286" on="0"/>
        <pt x="1405" y="1141" on="0"/>
        <pt x="1432" y="978" on="0"/>
        <pt x="1432" y="892" on="1"/>
        <pt x="1432" y="791" on="0"/>
        <pt x="1402" y="592" on="0"/>
        <pt x="1338" y="407" on="0"/>
        <pt x="1239" y="243" on="0"/>
        <pt x="1103" y="111" on="0"/>
        <pt x="927" y="17" on="0"/>
        <pt x="818" y="-4" on="1"/>
        <pt x="817" y="-64" on="0"/>
        <pt x="862" y="-135" on="0"/>
        <pt x="940" y="-171" on="0"/>
        <pt x="1046" y="-181" on="0"/>
        <pt x="1107" y="-181" on="1"/>
        <pt x="1130" y="-181" on="0"/>
        <pt x="1202" y="-176" on="0"/>
        <pt x="1283" y="-167" on="0"/>
        <pt x="1364" y="-152" on="0"/>
        <pt x="1396" y="-142" on="1"/>
        <pt x="1398" y="-328" on="1"/>
        <pt x="1378" y="-343" on="0"/>
        <pt x="1309" y="-381" on="0"/>
        <pt x="1212" y="-416" on="0"/>
        <pt x="1086" y="-439" on="0"/>
        <pt x="1010" y="-439" on="1"/>
        <pt x="881" y="-439" on="0"/>
        <pt x="712" y="-383" on="0"/>
        <pt x="626" y="-276" on="0"/>
        <pt x="619" y="-120" on="0"/>
        <pt x="653" y="-20" on="1"/>
        <pt x="650" y="-20" on="0"/>
        <pt x="645" y="-21" on="0"/>
        <pt x="642" y="-21" on="1"/>
        <pt x="486" y="-21" on="0"/>
        <pt x="266" y="79" on="0"/>
        <pt x="127" y="256" on="0"/>
        <pt x="62" y="496" on="0"/>
      </contour>
      <contour>
        <pt x="671" y="101" on="1"/>
        <pt x="768" y="101" on="0"/>
        <pt x="912" y="223" on="0"/>
        <pt x="1005" y="435" on="0"/>
        <pt x="1051" y="719" on="0"/>
        <pt x="1051" y="880" on="1"/>
        <pt x="1051" y="1006" on="0"/>
        <pt x="1027" y="1205" on="0"/>
        <pt x="973" y="1344" on="0"/>
        <pt x="887" y="1417" on="0"/>
        <pt x="825" y="1417" on="1"/>
        <pt x="763" y="1417" on="0"/>
        <pt x="658" y="1357" on="0"/>
        <pt x="573" y="1251" on="0"/>
        <pt x="509" y="1105" on="0"/>
        <pt x="465" y="934" on="0"/>
        <pt x="443" y="745" on="0"/>
        <pt x="443" y="648" on="1"/>
        <pt x="443" y="584" on="0"/>
        <pt x="450" y="453" on="0"/>
        <pt x="468" y="331" on="0"/>
        <pt x="500" y="225" on="0"/>
        <pt x="551" y="146" on="0"/>
        <pt x="622" y="101" on="0"/>
      </contour>
    </TTGlyph>
    <TTGlyph name="R" xMin="-13" yMin="-1" xMax="1430" yMax="1538">
      <contour>
        <pt x="-4" y="106" on="1"/>
        <pt x="137" y="136" on="1"/>
        <pt x="302" y="1386" on="1"/>
        <pt x="157" y="1412" on="1"/>
        <pt x="170" y="1522" on="1"/>
        <pt x="481" y="1522" on="1"/>
        <pt x="531" y="1522" on="0"/>
        <pt x="608" y="1527" on="0"/>
        <pt x="688" y="1533" on="0"/>
        <pt x="781" y="1538" on="0"/>
        <pt x="848" y="1538" on="1"/>
        <pt x="1003" y="1538" on="0"/>
        <pt x="1210" y="1486" on="0"/>
        <pt x="1333" y="1387" on="0"/>
        <pt x="1384" y="1245" on="0"/>
        <pt x="1384" y="1156" on="1"/>
        <pt x="1384" y="1075" on="0"/>
        <pt x="1337" y="934" on="0"/>
        <pt x="1250" y="818" on="0"/>
        <pt x="1125" y="730" on="0"/>
        <pt x="1046" y="702" on="1"/>
        <pt x="1066" y="679" on="0"/>
        <pt x="1110" y="592" on="0"/>
        <pt x="1152" y="494" on="0"/>
        <pt x="1187" y="399" on="0"/>
        <pt x="1199" y="369" on="1"/>
        <pt x="1229" y="302" on="0"/>
        <pt x="1275" y="204" on="0"/>
        <pt x="1323" y="139" on="0"/>
        <pt x="1384" y="107" on="0"/>
        <pt x="1430" y="106" on="1"/>
        <pt x="1420" y="-1" on="1"/>
        <pt x="1005" y="1" on="1"/>
        <pt x="995" y="1" on="0"/>
        <pt x="974" y="33" on="0"/>
        <pt x="951" y="86" on="0"/>
        <pt x="928" y="153" on="0"/>
        <pt x="915" y="188" on="1"/>
        <pt x="899" y="233" on="0"/>
        <pt x="864" y="331" on="0"/>
        <pt x="829" y="429" on="0"/>
        <pt x="796" y="520" on="0"/>
        <pt x="767" y="595" on="0"/>
        <pt x="742" y="650" on="0"/>
        <pt x="734" y="662" on="1"/>
        <pt x="701" y="661" on="0"/>
        <pt x="668" y="661" on="1"/>
        <pt x="551" y="661" on="1"/>
        <pt x="485" y="136" on="1"/>
        <pt x="669" y="106" on="1"/>
        <pt x="663" y="0" on="1"/>
        <pt x="-13" y="0" on="1"/>
      </contour>
      <contour>
        <pt x="570" y="800" on="1"/>
        <pt x="583" y="799" on="0"/>
        <pt x="625" y="798" on="0"/>
        <pt x="670" y="797" on="0"/>
        <pt x="709" y="797" on="0"/>
        <pt x="719" y="797" on="1"/>
        <pt x="789" y="797" on="0"/>
        <pt x="903" y="845" on="0"/>
        <pt x="981" y="941" on="0"/>
        <pt x="1020" y="1084" on="0"/>
        <pt x="1016" y="1178" on="1"/>
        <pt x="1011" y="1296" on="0"/>
        <pt x="878" y="1412" on="0"/>
        <pt x="766" y="1412" on="1"/>
        <pt x="758" y="1412" on="0"/>
        <pt x="730" y="1411" on="0"/>
        <pt x="698" y="1408" on="0"/>
        <pt x="665" y="1405" on="0"/>
        <pt x="651" y="1402" on="1"/>
      </contour>
    </TTGlyph>
    <TTGlyph name="Racute" xMin="-13" yMin="-1" xMax="1430" yMax="2014">
      <contour>
        <pt x="-4" y="106" on="1"/>
        <pt x="137" y="136" on="1"/>
        <pt x="302" y="1386" on="1"/>
        <pt x="157" y="1412" on="1"/>
        <pt x="170" y="1522" on="1"/>
        <pt x="481" y="1522" on="1"/>
        <pt x="531" y="1522" on="0"/>
        <pt x="608" y="1527" on="0"/>
        <pt x="688" y="1533" on="0"/>
        <pt x="781" y="1538" on="0"/>
        <pt x="848" y="1538" on="1"/>
        <pt x="1003" y="1538" on="0"/>
        <pt x="1210" y="1486" on="0"/>
        <pt x="1333" y="1387" on="0"/>
        <pt x="1384" y="1245" on="0"/>
        <pt x="1384" y="1156" on="1"/>
        <pt x="1384" y="1075" on="0"/>
        <pt x="1337" y="934" on="0"/>
        <pt x="1250" y="818" on="0"/>
        <pt x="1125" y="730" on="0"/>
        <pt x="1046" y="702" on="1"/>
        <pt x="1066" y="679" on="0"/>
        <pt x="1110" y="592" on="0"/>
        <pt x="1152" y="494" on="0"/>
        <pt x="1187" y="399" on="0"/>
        <pt x="1199" y="369" on="1"/>
        <pt x="1229" y="302" on="0"/>
        <pt x="1275" y="204" on="0"/>
        <pt x="1323" y="139" on="0"/>
        <pt x="1384" y="107" on="0"/>
        <pt x="1430" y="106" on="1"/>
        <pt x="1420" y="-1" on="1"/>
        <pt x="1005" y="1" on="1"/>
        <pt x="995" y="1" on="0"/>
        <pt x="974" y="33" on="0"/>
        <pt x="951" y="86" on="0"/>
        <pt x="928" y="153" on="0"/>
        <pt x="915" y="188" on="1"/>
        <pt x="899" y="233" on="0"/>
        <pt x="864" y="331" on="0"/>
        <pt x="829" y="429" on="0"/>
        <pt x="796" y="520" on="0"/>
        <pt x="767" y="595" on="0"/>
        <pt x="742" y="650" on="0"/>
        <pt x="734" y="662" on="1"/>
        <pt x="701" y="661" on="0"/>
        <pt x="668" y="661" on="1"/>
        <pt x="551" y="661" on="1"/>
        <pt x="485" y="136" on="1"/>
        <pt x="669" y="106" on="1"/>
        <pt x="663" y="0" on="1"/>
        <pt x="-13" y="0" on="1"/>
      </contour>
      <contour>
        <pt x="570" y="800" on="1"/>
        <pt x="583" y="799" on="0"/>
        <pt x="625" y="798" on="0"/>
        <pt x="670" y="797" on="0"/>
        <pt x="709" y="797" on="0"/>
        <pt x="719" y="797" on="1"/>
        <pt x="789" y="797" on="0"/>
        <pt x="903" y="845" on="0"/>
        <pt x="981" y="941" on="0"/>
        <pt x="1020" y="1084" on="0"/>
        <pt x="1016" y="1178" on="1"/>
        <pt x="1011" y="1296" on="0"/>
        <pt x="878" y="1412" on="0"/>
        <pt x="766" y="1412" on="1"/>
        <pt x="758" y="1412" on="0"/>
        <pt x="730" y="1411" on="0"/>
        <pt x="698" y="1408" on="0"/>
        <pt x="665" y="1405" on="0"/>
        <pt x="651" y="1402" on="1"/>
      </contour>
      <contour>
        <pt x="788" y="1672" on="1"/>
        <pt x="1064" y="2014" on="1"/>
        <pt x="1251" y="1829" on="1"/>
        <pt x="1231" y="1791" on="0"/>
        <pt x="1145" y="1711" on="0"/>
        <pt x="1043" y="1639" on="0"/>
        <pt x="940" y="1583" on="0"/>
        <pt x="904" y="1570" on="1"/>
      </contour>
    </TTGlyph>
    <TTGlyph name="Rcaron" xMin="-13" yMin="-1" xMax="1430" yMax="2014">
      <contour>
        <pt x="583" y="1956" on="1"/>
        <pt x="707" y="2014" on="1"/>
        <pt x="908" y="1842" on="1"/>
        <pt x="1231" y="2014" on="1"/>
        <pt x="1338" y="1957" on="1"/>
        <pt x="970" y="1599" on="1"/>
        <pt x="793" y="1599" on="1"/>
      </contour>
      <contour>
        <pt x="-4" y="106" on="1"/>
        <pt x="137" y="136" on="1"/>
        <pt x="302" y="1386" on="1"/>
        <pt x="157" y="1412" on="1"/>
        <pt x="170" y="1522" on="1"/>
        <pt x="481" y="1522" on="1"/>
        <pt x="531" y="1522" on="0"/>
        <pt x="608" y="1527" on="0"/>
        <pt x="688" y="1533" on="0"/>
        <pt x="781" y="1538" on="0"/>
        <pt x="848" y="1538" on="1"/>
        <pt x="1003" y="1538" on="0"/>
        <pt x="1210" y="1486" on="0"/>
        <pt x="1333" y="1387" on="0"/>
        <pt x="1384" y="1245" on="0"/>
        <pt x="1384" y="1156" on="1"/>
        <pt x="1384" y="1075" on="0"/>
        <pt x="1337" y="934" on="0"/>
        <pt x="1250" y="818" on="0"/>
        <pt x="1125" y="730" on="0"/>
        <pt x="1046" y="702" on="1"/>
        <pt x="1066" y="679" on="0"/>
        <pt x="1110" y="592" on="0"/>
        <pt x="1152" y="494" on="0"/>
        <pt x="1187" y="399" on="0"/>
        <pt x="1199" y="369" on="1"/>
        <pt x="1229" y="302" on="0"/>
        <pt x="1275" y="204" on="0"/>
        <pt x="1323" y="139" on="0"/>
        <pt x="1384" y="107" on="0"/>
        <pt x="1430" y="106" on="1"/>
        <pt x="1420" y="-1" on="1"/>
        <pt x="1005" y="1" on="1"/>
        <pt x="995" y="1" on="0"/>
        <pt x="974" y="33" on="0"/>
        <pt x="951" y="86" on="0"/>
        <pt x="928" y="153" on="0"/>
        <pt x="915" y="188" on="1"/>
        <pt x="899" y="233" on="0"/>
        <pt x="864" y="331" on="0"/>
        <pt x="829" y="429" on="0"/>
        <pt x="796" y="520" on="0"/>
        <pt x="767" y="595" on="0"/>
        <pt x="742" y="650" on="0"/>
        <pt x="734" y="662" on="1"/>
        <pt x="701" y="661" on="0"/>
        <pt x="668" y="661" on="1"/>
        <pt x="551" y="661" on="1"/>
        <pt x="485" y="136" on="1"/>
        <pt x="669" y="106" on="1"/>
        <pt x="663" y="0" on="1"/>
        <pt x="-13" y="0" on="1"/>
      </contour>
      <contour>
        <pt x="570" y="800" on="1"/>
        <pt x="583" y="799" on="0"/>
        <pt x="625" y="798" on="0"/>
        <pt x="670" y="797" on="0"/>
        <pt x="709" y="797" on="0"/>
        <pt x="719" y="797" on="1"/>
        <pt x="789" y="797" on="0"/>
        <pt x="903" y="845" on="0"/>
        <pt x="981" y="941" on="0"/>
        <pt x="1020" y="1084" on="0"/>
        <pt x="1016" y="1178" on="1"/>
        <pt x="1011" y="1296" on="0"/>
        <pt x="878" y="1412" on="0"/>
        <pt x="766" y="1412" on="1"/>
        <pt x="758" y="1412" on="0"/>
        <pt x="730" y="1411" on="0"/>
        <pt x="698" y="1408" on="0"/>
        <pt x="665" y="1405" on="0"/>
        <pt x="651" y="1402" on="1"/>
      </contour>
    </TTGlyph>
    <TTGlyph name="Rcommaaccent" xMin="-13" yMin="-560" xMax="1430" yMax="1538">
      <contour>
        <pt x="581" y="-490" on="1"/>
        <pt x="584" y="-464" on="1"/>
        <pt x="593" y="-459" on="0"/>
        <pt x="616" y="-438" on="0"/>
        <pt x="637" y="-405" on="0"/>
        <pt x="652" y="-362" on="0"/>
        <pt x="652" y="-335" on="1"/>
        <pt x="652" y="-316" on="0"/>
        <pt x="642" y="-281" on="0"/>
        <pt x="624" y="-253" on="0"/>
        <pt x="600" y="-236" on="0"/>
        <pt x="585" y="-234" on="1"/>
        <pt x="596" y="-141" on="1"/>
        <pt x="750" y="-37" on="1"/>
        <pt x="784" y="-44" on="0"/>
        <pt x="842" y="-83" on="0"/>
        <pt x="884" y="-139" on="0"/>
        <pt x="908" y="-210" on="0"/>
        <pt x="908" y="-249" on="1"/>
        <pt x="908" y="-313" on="0"/>
        <pt x="866" y="-421" on="0"/>
        <pt x="800" y="-502" on="0"/>
        <pt x="720" y="-553" on="0"/>
        <pt x="681" y="-560" on="1"/>
      </contour>
      <contour>
        <pt x="-4" y="106" on="1"/>
        <pt x="137" y="136" on="1"/>
        <pt x="302" y="1386" on="1"/>
        <pt x="157" y="1412" on="1"/>
        <pt x="170" y="1522" on="1"/>
        <pt x="481" y="1522" on="1"/>
        <pt x="531" y="1522" on="0"/>
        <pt x="608" y="1527" on="0"/>
        <pt x="688" y="1533" on="0"/>
        <pt x="781" y="1538" on="0"/>
        <pt x="848" y="1538" on="1"/>
        <pt x="1003" y="1538" on="0"/>
        <pt x="1210" y="1486" on="0"/>
        <pt x="1333" y="1387" on="0"/>
        <pt x="1384" y="1245" on="0"/>
        <pt x="1384" y="1156" on="1"/>
        <pt x="1384" y="1075" on="0"/>
        <pt x="1337" y="934" on="0"/>
        <pt x="1250" y="818" on="0"/>
        <pt x="1125" y="730" on="0"/>
        <pt x="1046" y="702" on="1"/>
        <pt x="1066" y="679" on="0"/>
        <pt x="1110" y="592" on="0"/>
        <pt x="1152" y="494" on="0"/>
        <pt x="1187" y="399" on="0"/>
        <pt x="1199" y="369" on="1"/>
        <pt x="1229" y="302" on="0"/>
        <pt x="1275" y="204" on="0"/>
        <pt x="1323" y="139" on="0"/>
        <pt x="1384" y="107" on="0"/>
        <pt x="1430" y="106" on="1"/>
        <pt x="1420" y="-1" on="1"/>
        <pt x="1005" y="1" on="1"/>
        <pt x="995" y="1" on="0"/>
        <pt x="974" y="33" on="0"/>
        <pt x="951" y="86" on="0"/>
        <pt x="928" y="153" on="0"/>
        <pt x="915" y="188" on="1"/>
        <pt x="899" y="233" on="0"/>
        <pt x="864" y="331" on="0"/>
        <pt x="829" y="429" on="0"/>
        <pt x="796" y="520" on="0"/>
        <pt x="767" y="595" on="0"/>
        <pt x="742" y="650" on="0"/>
        <pt x="734" y="662" on="1"/>
        <pt x="701" y="661" on="0"/>
        <pt x="668" y="661" on="1"/>
        <pt x="551" y="661" on="1"/>
        <pt x="485" y="136" on="1"/>
        <pt x="669" y="106" on="1"/>
        <pt x="663" y="0" on="1"/>
        <pt x="-13" y="0" on="1"/>
      </contour>
      <contour>
        <pt x="570" y="800" on="1"/>
        <pt x="583" y="799" on="0"/>
        <pt x="625" y="798" on="0"/>
        <pt x="670" y="797" on="0"/>
        <pt x="709" y="797" on="0"/>
        <pt x="719" y="797" on="1"/>
        <pt x="789" y="797" on="0"/>
        <pt x="903" y="845" on="0"/>
        <pt x="981" y="941" on="0"/>
        <pt x="1020" y="1084" on="0"/>
        <pt x="1016" y="1178" on="1"/>
        <pt x="1011" y="1296" on="0"/>
        <pt x="878" y="1412" on="0"/>
        <pt x="766" y="1412" on="1"/>
        <pt x="758" y="1412" on="0"/>
        <pt x="730" y="1411" on="0"/>
        <pt x="698" y="1408" on="0"/>
        <pt x="665" y="1405" on="0"/>
        <pt x="651" y="1402" on="1"/>
      </contour>
    </TTGlyph>
    <TTGlyph name="S" xMin="14" yMin="-23" xMax="1133" yMax="1541">
      <contour>
        <pt x="74" y="393" on="1"/>
        <pt x="280" y="393" on="1"/>
        <pt x="291" y="167" on="1"/>
        <pt x="325" y="141" on="0"/>
        <pt x="418" y="106" on="0"/>
        <pt x="482" y="106" on="1"/>
        <pt x="557" y="106" on="0"/>
        <pt x="659" y="138" on="0"/>
        <pt x="722" y="193" on="0"/>
        <pt x="749" y="267" on="0"/>
        <pt x="749" y="309" on="1"/>
        <pt x="749" y="357" on="0"/>
        <pt x="720" y="437" on="0"/>
        <pt x="658" y="512" on="0"/>
        <pt x="560" y="588" on="0"/>
        <pt x="490" y="633" on="1"/>
        <pt x="424" y="675" on="0"/>
        <pt x="305" y="772" on="0"/>
        <pt x="217" y="884" on="0"/>
        <pt x="165" y="1016" on="0"/>
        <pt x="165" y="1094" on="1"/>
        <pt x="165" y="1203" on="0"/>
        <pt x="250" y="1370" on="0"/>
        <pt x="402" y="1483" on="0"/>
        <pt x="611" y="1541" on="0"/>
        <pt x="734" y="1541" on="1"/>
        <pt x="815" y="1541" on="0"/>
        <pt x="942" y="1528" on="0"/>
        <pt x="1039" y="1507" on="0"/>
        <pt x="1109" y="1481" on="0"/>
        <pt x="1133" y="1467" on="1"/>
        <pt x="1079" y="1165" on="1"/>
        <pt x="888" y="1165" on="1"/>
        <pt x="858" y="1367" on="1"/>
        <pt x="828" y="1390" on="0"/>
        <pt x="761" y="1415" on="0"/>
        <pt x="709" y="1415" on="1"/>
        <pt x="600" y="1415" on="0"/>
        <pt x="482" y="1316" on="0"/>
        <pt x="482" y="1237" on="1"/>
        <pt x="482" y="1183" on="0"/>
        <pt x="516" y="1095" on="0"/>
        <pt x="585" y="1015" on="0"/>
        <pt x="692" y="935" on="0"/>
        <pt x="765" y="889" on="1"/>
        <pt x="828" y="849" on="0"/>
        <pt x="941" y="756" on="0"/>
        <pt x="1027" y="646" on="0"/>
        <pt x="1077" y="517" on="0"/>
        <pt x="1077" y="442" on="1"/>
        <pt x="1077" y="352" on="0"/>
        <pt x="1006" y="184" on="0"/>
        <pt x="861" y="55" on="0"/>
        <pt x="640" y="-23" on="0"/>
        <pt x="490" y="-23" on="1"/>
        <pt x="406" y="-23" on="0"/>
        <pt x="249" y="-3" on="0"/>
        <pt x="121" y="27" on="0"/>
        <pt x="31" y="61" on="0"/>
        <pt x="14" y="75" on="1"/>
      </contour>
      <contour>
        <pt x="200" y="276" on="1"/>
        <pt x="202" y="272" on="0"/>
        <pt x="205" y="267" on="0"/>
        <pt x="207" y="263" on="1"/>
      </contour>
    </TTGlyph>
    <TTGlyph name="Sacute" xMin="14" yMin="-23" xMax="1133" yMax="2014">
      <contour>
        <pt x="74" y="393" on="1"/>
        <pt x="280" y="393" on="1"/>
        <pt x="291" y="167" on="1"/>
        <pt x="325" y="141" on="0"/>
        <pt x="418" y="106" on="0"/>
        <pt x="482" y="106" on="1"/>
        <pt x="557" y="106" on="0"/>
        <pt x="659" y="138" on="0"/>
        <pt x="722" y="193" on="0"/>
        <pt x="749" y="267" on="0"/>
        <pt x="749" y="309" on="1"/>
        <pt x="749" y="357" on="0"/>
        <pt x="720" y="437" on="0"/>
        <pt x="658" y="512" on="0"/>
        <pt x="560" y="588" on="0"/>
        <pt x="490" y="633" on="1"/>
        <pt x="424" y="675" on="0"/>
        <pt x="305" y="772" on="0"/>
        <pt x="217" y="884" on="0"/>
        <pt x="165" y="1016" on="0"/>
        <pt x="165" y="1094" on="1"/>
        <pt x="165" y="1203" on="0"/>
        <pt x="250" y="1370" on="0"/>
        <pt x="402" y="1483" on="0"/>
        <pt x="611" y="1541" on="0"/>
        <pt x="734" y="1541" on="1"/>
        <pt x="815" y="1541" on="0"/>
        <pt x="942" y="1528" on="0"/>
        <pt x="1039" y="1507" on="0"/>
        <pt x="1109" y="1481" on="0"/>
        <pt x="1133" y="1467" on="1"/>
        <pt x="1079" y="1165" on="1"/>
        <pt x="888" y="1165" on="1"/>
        <pt x="858" y="1367" on="1"/>
        <pt x="828" y="1390" on="0"/>
        <pt x="761" y="1415" on="0"/>
        <pt x="709" y="1415" on="1"/>
        <pt x="600" y="1415" on="0"/>
        <pt x="482" y="1316" on="0"/>
        <pt x="482" y="1237" on="1"/>
        <pt x="482" y="1183" on="0"/>
        <pt x="516" y="1095" on="0"/>
        <pt x="585" y="1015" on="0"/>
        <pt x="692" y="935" on="0"/>
        <pt x="765" y="889" on="1"/>
        <pt x="828" y="849" on="0"/>
        <pt x="941" y="756" on="0"/>
        <pt x="1027" y="646" on="0"/>
        <pt x="1077" y="517" on="0"/>
        <pt x="1077" y="442" on="1"/>
        <pt x="1077" y="352" on="0"/>
        <pt x="1006" y="184" on="0"/>
        <pt x="861" y="55" on="0"/>
        <pt x="640" y="-23" on="0"/>
        <pt x="490" y="-23" on="1"/>
        <pt x="406" y="-23" on="0"/>
        <pt x="249" y="-3" on="0"/>
        <pt x="121" y="27" on="0"/>
        <pt x="31" y="61" on="0"/>
        <pt x="14" y="75" on="1"/>
      </contour>
      <contour>
        <pt x="200" y="276" on="1"/>
        <pt x="202" y="272" on="0"/>
        <pt x="205" y="267" on="0"/>
        <pt x="207" y="263" on="1"/>
      </contour>
      <contour>
        <pt x="613" y="1672" on="1"/>
        <pt x="889" y="2014" on="1"/>
        <pt x="1076" y="1829" on="1"/>
        <pt x="1056" y="1791" on="0"/>
        <pt x="970" y="1711" on="0"/>
        <pt x="868" y="1639" on="0"/>
        <pt x="765" y="1583" on="0"/>
        <pt x="729" y="1570" on="1"/>
      </contour>
    </TTGlyph>
    <TTGlyph name="Scaron" xMin="14" yMin="-23" xMax="1163" yMax="2014">
      <contour>
        <pt x="74" y="393" on="1"/>
        <pt x="280" y="393" on="1"/>
        <pt x="291" y="167" on="1"/>
        <pt x="325" y="141" on="0"/>
        <pt x="418" y="106" on="0"/>
        <pt x="482" y="106" on="1"/>
        <pt x="557" y="106" on="0"/>
        <pt x="659" y="138" on="0"/>
        <pt x="722" y="193" on="0"/>
        <pt x="749" y="267" on="0"/>
        <pt x="749" y="309" on="1"/>
        <pt x="749" y="357" on="0"/>
        <pt x="720" y="437" on="0"/>
        <pt x="658" y="512" on="0"/>
        <pt x="560" y="588" on="0"/>
        <pt x="490" y="633" on="1"/>
        <pt x="424" y="675" on="0"/>
        <pt x="305" y="772" on="0"/>
        <pt x="217" y="884" on="0"/>
        <pt x="165" y="1016" on="0"/>
        <pt x="165" y="1094" on="1"/>
        <pt x="165" y="1203" on="0"/>
        <pt x="250" y="1370" on="0"/>
        <pt x="402" y="1483" on="0"/>
        <pt x="611" y="1541" on="0"/>
        <pt x="734" y="1541" on="1"/>
        <pt x="815" y="1541" on="0"/>
        <pt x="942" y="1528" on="0"/>
        <pt x="1039" y="1507" on="0"/>
        <pt x="1109" y="1481" on="0"/>
        <pt x="1133" y="1467" on="1"/>
        <pt x="1079" y="1165" on="1"/>
        <pt x="888" y="1165" on="1"/>
        <pt x="858" y="1367" on="1"/>
        <pt x="828" y="1390" on="0"/>
        <pt x="761" y="1415" on="0"/>
        <pt x="709" y="1415" on="1"/>
        <pt x="600" y="1415" on="0"/>
        <pt x="482" y="1316" on="0"/>
        <pt x="482" y="1237" on="1"/>
        <pt x="482" y="1183" on="0"/>
        <pt x="516" y="1095" on="0"/>
        <pt x="585" y="1015" on="0"/>
        <pt x="692" y="935" on="0"/>
        <pt x="765" y="889" on="1"/>
        <pt x="828" y="849" on="0"/>
        <pt x="941" y="756" on="0"/>
        <pt x="1027" y="646" on="0"/>
        <pt x="1077" y="517" on="0"/>
        <pt x="1077" y="442" on="1"/>
        <pt x="1077" y="352" on="0"/>
        <pt x="1006" y="184" on="0"/>
        <pt x="861" y="55" on="0"/>
        <pt x="640" y="-23" on="0"/>
        <pt x="490" y="-23" on="1"/>
        <pt x="406" y="-23" on="0"/>
        <pt x="249" y="-3" on="0"/>
        <pt x="121" y="27" on="0"/>
        <pt x="31" y="61" on="0"/>
        <pt x="14" y="75" on="1"/>
      </contour>
      <contour>
        <pt x="200" y="276" on="1"/>
        <pt x="202" y="272" on="0"/>
        <pt x="205" y="267" on="0"/>
        <pt x="207" y="263" on="1"/>
      </contour>
      <contour>
        <pt x="408" y="1956" on="1"/>
        <pt x="532" y="2014" on="1"/>
        <pt x="733" y="1842" on="1"/>
        <pt x="1056" y="2014" on="1"/>
        <pt x="1163" y="1957" on="1"/>
        <pt x="795" y="1599" on="1"/>
        <pt x="618" y="1599" on="1"/>
      </contour>
    </TTGlyph>
    <TTGlyph name="Scedilla" xMin="14" yMin="-484" xMax="1133" yMax="1541">
      <contour>
        <pt x="74" y="393" on="1"/>
        <pt x="280" y="393" on="1"/>
        <pt x="291" y="167" on="1"/>
        <pt x="325" y="141" on="0"/>
        <pt x="418" y="106" on="0"/>
        <pt x="482" y="106" on="1"/>
        <pt x="557" y="106" on="0"/>
        <pt x="659" y="138" on="0"/>
        <pt x="722" y="193" on="0"/>
        <pt x="749" y="267" on="0"/>
        <pt x="749" y="309" on="1"/>
        <pt x="749" y="357" on="0"/>
        <pt x="720" y="437" on="0"/>
        <pt x="658" y="512" on="0"/>
        <pt x="560" y="588" on="0"/>
        <pt x="490" y="633" on="1"/>
        <pt x="424" y="675" on="0"/>
        <pt x="305" y="772" on="0"/>
        <pt x="217" y="884" on="0"/>
        <pt x="165" y="1016" on="0"/>
        <pt x="165" y="1094" on="1"/>
        <pt x="165" y="1203" on="0"/>
        <pt x="250" y="1370" on="0"/>
        <pt x="402" y="1483" on="0"/>
        <pt x="611" y="1541" on="0"/>
        <pt x="734" y="1541" on="1"/>
        <pt x="815" y="1541" on="0"/>
        <pt x="942" y="1528" on="0"/>
        <pt x="1039" y="1507" on="0"/>
        <pt x="1109" y="1481" on="0"/>
        <pt x="1133" y="1467" on="1"/>
        <pt x="1079" y="1165" on="1"/>
        <pt x="888" y="1165" on="1"/>
        <pt x="858" y="1367" on="1"/>
        <pt x="828" y="1390" on="0"/>
        <pt x="761" y="1415" on="0"/>
        <pt x="709" y="1415" on="1"/>
        <pt x="600" y="1415" on="0"/>
        <pt x="482" y="1316" on="0"/>
        <pt x="482" y="1237" on="1"/>
        <pt x="482" y="1183" on="0"/>
        <pt x="516" y="1095" on="0"/>
        <pt x="585" y="1015" on="0"/>
        <pt x="692" y="935" on="0"/>
        <pt x="765" y="889" on="1"/>
        <pt x="828" y="849" on="0"/>
        <pt x="941" y="756" on="0"/>
        <pt x="1027" y="646" on="0"/>
        <pt x="1077" y="517" on="0"/>
        <pt x="1077" y="442" on="1"/>
        <pt x="1077" y="356" on="0"/>
        <pt x="1013" y="197" on="0"/>
        <pt x="883" y="70" on="0"/>
        <pt x="686" y="-13" on="0"/>
        <pt x="552" y="-21" on="1"/>
        <pt x="559" y="-43" on="0"/>
        <pt x="571" y="-98" on="0"/>
        <pt x="580" y="-156" on="0"/>
        <pt x="585" y="-213" on="0"/>
        <pt x="585" y="-238" on="1"/>
        <pt x="585" y="-294" on="0"/>
        <pt x="553" y="-385" on="0"/>
        <pt x="482" y="-449" on="0"/>
        <pt x="369" y="-484" on="0"/>
        <pt x="287" y="-484" on="1"/>
        <pt x="267" y="-484" on="0"/>
        <pt x="206" y="-480" on="0"/>
        <pt x="146" y="-472" on="0"/>
        <pt x="97" y="-462" on="0"/>
        <pt x="89" y="-456" on="1"/>
        <pt x="124" y="-303" on="1"/>
        <pt x="137" y="-310" on="0"/>
        <pt x="179" y="-319" on="0"/>
        <pt x="202" y="-319" on="1"/>
        <pt x="240" y="-319" on="0"/>
        <pt x="305" y="-303" on="0"/>
        <pt x="354" y="-266" on="0"/>
        <pt x="383" y="-202" on="0"/>
        <pt x="385" y="-154" on="1"/>
        <pt x="387" y="-115" on="0"/>
        <pt x="382" y="-46" on="0"/>
        <pt x="378" y="-18" on="1"/>
        <pt x="311" y="-12" on="0"/>
        <pt x="191" y="9" on="0"/>
        <pt x="95" y="36" on="0"/>
        <pt x="28" y="63" on="0"/>
        <pt x="14" y="75" on="1"/>
      </contour>
      <contour>
        <pt x="200" y="276" on="1"/>
        <pt x="202" y="272" on="0"/>
        <pt x="205" y="267" on="0"/>
        <pt x="207" y="263" on="1"/>
      </contour>
    </TTGlyph>
    <TTGlyph name="Scircumflex" xMin="14" yMin="-23" xMax="1133" yMax="2014">
      <contour>
        <pt x="74" y="393" on="1"/>
        <pt x="280" y="393" on="1"/>
        <pt x="291" y="167" on="1"/>
        <pt x="325" y="141" on="0"/>
        <pt x="418" y="106" on="0"/>
        <pt x="482" y="106" on="1"/>
        <pt x="557" y="106" on="0"/>
        <pt x="659" y="138" on="0"/>
        <pt x="722" y="193" on="0"/>
        <pt x="749" y="267" on="0"/>
        <pt x="749" y="309" on="1"/>
        <pt x="749" y="357" on="0"/>
        <pt x="720" y="437" on="0"/>
        <pt x="658" y="512" on="0"/>
        <pt x="560" y="588" on="0"/>
        <pt x="490" y="633" on="1"/>
        <pt x="424" y="675" on="0"/>
        <pt x="305" y="772" on="0"/>
        <pt x="217" y="884" on="0"/>
        <pt x="165" y="1016" on="0"/>
        <pt x="165" y="1094" on="1"/>
        <pt x="165" y="1203" on="0"/>
        <pt x="250" y="1370" on="0"/>
        <pt x="402" y="1483" on="0"/>
        <pt x="611" y="1541" on="0"/>
        <pt x="734" y="1541" on="1"/>
        <pt x="815" y="1541" on="0"/>
        <pt x="942" y="1528" on="0"/>
        <pt x="1039" y="1507" on="0"/>
        <pt x="1109" y="1481" on="0"/>
        <pt x="1133" y="1467" on="1"/>
        <pt x="1079" y="1165" on="1"/>
        <pt x="888" y="1165" on="1"/>
        <pt x="858" y="1367" on="1"/>
        <pt x="828" y="1390" on="0"/>
        <pt x="761" y="1415" on="0"/>
        <pt x="709" y="1415" on="1"/>
        <pt x="600" y="1415" on="0"/>
        <pt x="482" y="1316" on="0"/>
        <pt x="482" y="1237" on="1"/>
        <pt x="482" y="1183" on="0"/>
        <pt x="516" y="1095" on="0"/>
        <pt x="585" y="1015" on="0"/>
        <pt x="692" y="935" on="0"/>
        <pt x="765" y="889" on="1"/>
        <pt x="828" y="849" on="0"/>
        <pt x="941" y="756" on="0"/>
        <pt x="1027" y="646" on="0"/>
        <pt x="1077" y="517" on="0"/>
        <pt x="1077" y="442" on="1"/>
        <pt x="1077" y="352" on="0"/>
        <pt x="1006" y="184" on="0"/>
        <pt x="861" y="55" on="0"/>
        <pt x="640" y="-23" on="0"/>
        <pt x="490" y="-23" on="1"/>
        <pt x="406" y="-23" on="0"/>
        <pt x="249" y="-3" on="0"/>
        <pt x="121" y="27" on="0"/>
        <pt x="31" y="61" on="0"/>
        <pt x="14" y="75" on="1"/>
      </contour>
      <contour>
        <pt x="200" y="276" on="1"/>
        <pt x="202" y="272" on="0"/>
        <pt x="205" y="267" on="0"/>
        <pt x="207" y="263" on="1"/>
      </contour>
      <contour>
        <pt x="346" y="1657" on="1"/>
        <pt x="713" y="2014" on="1"/>
        <pt x="891" y="2014" on="1"/>
        <pt x="1101" y="1657" on="1"/>
        <pt x="977" y="1599" on="1"/>
        <pt x="776" y="1806" on="1"/>
        <pt x="453" y="1600" on="1"/>
      </contour>
    </TTGlyph>
    <TTGlyph name="T" xMin="71" yMin="0" xMax="1540" yMax="1522">
      <contour>
        <pt x="245" y="106" on="1"/>
        <pt x="495" y="136" on="1"/>
        <pt x="663" y="1402" on="1"/>
        <pt x="424" y="1376" on="1"/>
        <pt x="259" y="937" on="1"/>
        <pt x="71" y="937" on="1"/>
        <pt x="170" y="1522" on="1"/>
        <pt x="1540" y="1522" on="1"/>
        <pt x="1455" y="939" on="1"/>
        <pt x="1274" y="937" on="1"/>
        <pt x="1256" y="1376" on="1"/>
        <pt x="1016" y="1402" on="1"/>
        <pt x="847" y="136" on="1"/>
        <pt x="1131" y="106" on="1"/>
        <pt x="1121" y="0" on="1"/>
        <pt x="232" y="0" on="1"/>
      </contour>
    </TTGlyph>
    <TTGlyph name="Tbar" xMin="71" yMin="0" xMax="1540" yMax="1522">
      <contour>
        <pt x="361" y="830" on="1"/>
        <pt x="587" y="830" on="1"/>
        <pt x="663" y="1402" on="1"/>
        <pt x="424" y="1376" on="1"/>
        <pt x="259" y="937" on="1"/>
        <pt x="71" y="937" on="1"/>
        <pt x="170" y="1522" on="1"/>
        <pt x="1540" y="1522" on="1"/>
        <pt x="1455" y="939" on="1"/>
        <pt x="1274" y="937" on="1"/>
        <pt x="1256" y="1376" on="1"/>
        <pt x="1016" y="1402" on="1"/>
        <pt x="939" y="830" on="1"/>
        <pt x="1175" y="830" on="1"/>
        <pt x="1159" y="680" on="1"/>
        <pt x="919" y="680" on="1"/>
        <pt x="847" y="136" on="1"/>
        <pt x="1131" y="106" on="1"/>
        <pt x="1121" y="0" on="1"/>
        <pt x="232" y="0" on="1"/>
        <pt x="245" y="106" on="1"/>
        <pt x="495" y="136" on="1"/>
        <pt x="567" y="680" on="1"/>
        <pt x="345" y="680" on="1"/>
      </contour>
    </TTGlyph>
    <TTGlyph name="Tcaron" xMin="71" yMin="0" xMax="1540" yMax="2014">
      <contour>
        <pt x="577" y="1956" on="1"/>
        <pt x="701" y="2014" on="1"/>
        <pt x="902" y="1842" on="1"/>
        <pt x="1225" y="2014" on="1"/>
        <pt x="1332" y="1957" on="1"/>
        <pt x="964" y="1599" on="1"/>
        <pt x="787" y="1599" on="1"/>
      </contour>
      <contour>
        <pt x="245" y="106" on="1"/>
        <pt x="495" y="136" on="1"/>
        <pt x="663" y="1402" on="1"/>
        <pt x="424" y="1376" on="1"/>
        <pt x="259" y="937" on="1"/>
        <pt x="71" y="937" on="1"/>
        <pt x="170" y="1522" on="1"/>
        <pt x="1540" y="1522" on="1"/>
        <pt x="1455" y="939" on="1"/>
        <pt x="1274" y="937" on="1"/>
        <pt x="1256" y="1376" on="1"/>
        <pt x="1016" y="1402" on="1"/>
        <pt x="847" y="136" on="1"/>
        <pt x="1131" y="106" on="1"/>
        <pt x="1121" y="0" on="1"/>
        <pt x="232" y="0" on="1"/>
      </contour>
    </TTGlyph>
    <TTGlyph name="Thorn" xMin="-8" yMin="0" xMax="1341" yMax="1522">
      <contour>
        <pt x="3" y="106" on="1"/>
        <pt x="141" y="136" on="1"/>
        <pt x="307" y="1386" on="1"/>
        <pt x="162" y="1412" on="1"/>
        <pt x="176" y="1522" on="1"/>
        <pt x="851" y="1522" on="1"/>
        <pt x="839" y="1412" on="1"/>
        <pt x="659" y="1386" on="1"/>
        <pt x="632" y="1185" on="1"/>
        <pt x="684" y="1188" on="0"/>
        <pt x="788" y="1194" on="0"/>
        <pt x="841" y="1194" on="1"/>
        <pt x="945" y="1194" on="0"/>
        <pt x="1099" y="1168" on="0"/>
        <pt x="1209" y="1123" on="0"/>
        <pt x="1279" y="1061" on="0"/>
        <pt x="1320" y="988" on="0"/>
        <pt x="1337" y="907" on="0"/>
        <pt x="1339" y="866" on="1"/>
        <pt x="1341" y="812" on="0"/>
        <pt x="1321" y="695" on="0"/>
        <pt x="1265" y="584" on="0"/>
        <pt x="1164" y="485" on="0"/>
        <pt x="1007" y="411" on="0"/>
        <pt x="785" y="367" on="0"/>
        <pt x="635" y="367" on="1"/>
        <pt x="590" y="367" on="0"/>
        <pt x="540" y="368" on="0"/>
        <pt x="524" y="370" on="1"/>
        <pt x="493" y="136" on="1"/>
        <pt x="667" y="106" on="1"/>
        <pt x="659" y="0" on="1"/>
        <pt x="-8" y="0" on="1"/>
      </contour>
      <contour>
        <pt x="732" y="1064" on="1"/>
        <pt x="712" y="1064" on="0"/>
        <pt x="646" y="1057" on="0"/>
        <pt x="614" y="1051" on="1"/>
        <pt x="541" y="504" on="1"/>
        <pt x="569" y="503" on="0"/>
        <pt x="620" y="504" on="0"/>
        <pt x="653" y="504" on="1"/>
        <pt x="718" y="504" on="0"/>
        <pt x="836" y="542" on="0"/>
        <pt x="923" y="623" on="0"/>
        <pt x="972" y="751" on="0"/>
        <pt x="969" y="840" on="1"/>
        <pt x="965" y="952" on="0"/>
        <pt x="840" y="1064" on="0"/>
      </contour>
    </TTGlyph>
    <TTGlyph name="U" xMin="122" yMin="-20" xMax="1579" yMax="1522">
      <contour>
        <pt x="157" y="428" on="1"/>
        <pt x="157" y="467" on="0"/>
        <pt x="159" y="548" on="0"/>
        <pt x="164" y="593" on="1"/>
        <pt x="267" y="1386" on="1"/>
        <pt x="122" y="1412" on="1"/>
        <pt x="136" y="1522" on="1"/>
        <pt x="827" y="1522" on="1"/>
        <pt x="817" y="1413" on="1"/>
        <pt x="619" y="1386" on="1"/>
        <pt x="518" y="623" on="1"/>
        <pt x="511" y="562" on="0"/>
        <pt x="501" y="457" on="0"/>
        <pt x="501" y="422" on="1"/>
        <pt x="501" y="351" on="0"/>
        <pt x="534" y="234" on="0"/>
        <pt x="600" y="150" on="0"/>
        <pt x="697" y="104" on="0"/>
        <pt x="761" y="104" on="1"/>
        <pt x="853" y="104" on="0"/>
        <pt x="984" y="173" on="0"/>
        <pt x="1075" y="306" on="0"/>
        <pt x="1131" y="501" on="0"/>
        <pt x="1148" y="626" on="1"/>
        <pt x="1252" y="1386" on="1"/>
        <pt x="1103" y="1413" on="1"/>
        <pt x="1114" y="1522" on="1"/>
        <pt x="1579" y="1522" on="1"/>
        <pt x="1564" y="1413" on="1"/>
        <pt x="1435" y="1386" on="1"/>
        <pt x="1338" y="627" on="1"/>
        <pt x="1315" y="450" on="0"/>
        <pt x="1214" y="204" on="0"/>
        <pt x="1054" y="50" on="0"/>
        <pt x="837" y="-20" on="0"/>
        <pt x="699" y="-20" on="1"/>
        <pt x="552" y="-20" on="0"/>
        <pt x="346" y="50" on="0"/>
        <pt x="216" y="171" on="0"/>
        <pt x="157" y="335" on="0"/>
      </contour>
    </TTGlyph>
    <TTGlyph name="Uacute" xMin="122" yMin="-20" xMax="1579" yMax="2014">
      <contour>
        <pt x="855" y="1672" on="1"/>
        <pt x="1131" y="2014" on="1"/>
        <pt x="1318" y="1829" on="1"/>
        <pt x="1298" y="1791" on="0"/>
        <pt x="1212" y="1711" on="0"/>
        <pt x="1110" y="1639" on="0"/>
        <pt x="1007" y="1583" on="0"/>
        <pt x="971" y="1570" on="1"/>
      </contour>
      <contour>
        <pt x="157" y="428" on="1"/>
        <pt x="157" y="467" on="0"/>
        <pt x="159" y="548" on="0"/>
        <pt x="164" y="593" on="1"/>
        <pt x="267" y="1386" on="1"/>
        <pt x="122" y="1412" on="1"/>
        <pt x="136" y="1522" on="1"/>
        <pt x="827" y="1522" on="1"/>
        <pt x="817" y="1413" on="1"/>
        <pt x="619" y="1386" on="1"/>
        <pt x="518" y="623" on="1"/>
        <pt x="511" y="562" on="0"/>
        <pt x="501" y="457" on="0"/>
        <pt x="501" y="422" on="1"/>
        <pt x="501" y="351" on="0"/>
        <pt x="534" y="234" on="0"/>
        <pt x="600" y="150" on="0"/>
        <pt x="697" y="104" on="0"/>
        <pt x="761" y="104" on="1"/>
        <pt x="853" y="104" on="0"/>
        <pt x="984" y="173" on="0"/>
        <pt x="1075" y="306" on="0"/>
        <pt x="1131" y="501" on="0"/>
        <pt x="1148" y="626" on="1"/>
        <pt x="1252" y="1386" on="1"/>
        <pt x="1103" y="1413" on="1"/>
        <pt x="1114" y="1522" on="1"/>
        <pt x="1579" y="1522" on="1"/>
        <pt x="1564" y="1413" on="1"/>
        <pt x="1435" y="1386" on="1"/>
        <pt x="1338" y="627" on="1"/>
        <pt x="1315" y="450" on="0"/>
        <pt x="1214" y="204" on="0"/>
        <pt x="1054" y="50" on="0"/>
        <pt x="837" y="-20" on="0"/>
        <pt x="699" y="-20" on="1"/>
        <pt x="552" y="-20" on="0"/>
        <pt x="346" y="50" on="0"/>
        <pt x="216" y="171" on="0"/>
        <pt x="157" y="335" on="0"/>
      </contour>
    </TTGlyph>
    <TTGlyph name="Ubreve" xMin="122" yMin="-20" xMax="1579" yMax="2014">
      <contour>
        <pt x="961" y="1633" on="1"/>
        <pt x="857" y="1633" on="0"/>
        <pt x="733" y="1694" on="0"/>
        <pt x="667" y="1787" on="0"/>
        <pt x="647" y="1897" on="0"/>
        <pt x="647" y="1946" on="1"/>
        <pt x="647" y="1981" on="0"/>
        <pt x="653" y="2014" on="1"/>
        <pt x="838" y="2014" on="1"/>
        <pt x="838" y="1979" on="0"/>
        <pt x="842" y="1919" on="0"/>
        <pt x="866" y="1875" on="0"/>
        <pt x="918" y="1850" on="0"/>
        <pt x="966" y="1850" on="1"/>
        <pt x="1021" y="1850" on="0"/>
        <pt x="1086" y="1884" on="0"/>
        <pt x="1120" y="1933" on="0"/>
        <pt x="1130" y="1990" on="0"/>
        <pt x="1130" y="2014" on="1"/>
        <pt x="1310" y="2014" on="1"/>
        <pt x="1310" y="1929" on="0"/>
        <pt x="1263" y="1789" on="0"/>
        <pt x="1173" y="1688" on="0"/>
        <pt x="1043" y="1633" on="0"/>
      </contour>
      <contour>
        <pt x="157" y="428" on="1"/>
        <pt x="157" y="467" on="0"/>
        <pt x="159" y="548" on="0"/>
        <pt x="164" y="593" on="1"/>
        <pt x="267" y="1386" on="1"/>
        <pt x="122" y="1412" on="1"/>
        <pt x="136" y="1522" on="1"/>
        <pt x="827" y="1522" on="1"/>
        <pt x="817" y="1413" on="1"/>
        <pt x="619" y="1386" on="1"/>
        <pt x="518" y="623" on="1"/>
        <pt x="511" y="562" on="0"/>
        <pt x="501" y="457" on="0"/>
        <pt x="501" y="422" on="1"/>
        <pt x="501" y="351" on="0"/>
        <pt x="534" y="234" on="0"/>
        <pt x="600" y="150" on="0"/>
        <pt x="697" y="104" on="0"/>
        <pt x="761" y="104" on="1"/>
        <pt x="853" y="104" on="0"/>
        <pt x="984" y="173" on="0"/>
        <pt x="1075" y="306" on="0"/>
        <pt x="1131" y="501" on="0"/>
        <pt x="1148" y="626" on="1"/>
        <pt x="1252" y="1386" on="1"/>
        <pt x="1103" y="1413" on="1"/>
        <pt x="1114" y="1522" on="1"/>
        <pt x="1579" y="1522" on="1"/>
        <pt x="1564" y="1413" on="1"/>
        <pt x="1435" y="1386" on="1"/>
        <pt x="1338" y="627" on="1"/>
        <pt x="1315" y="450" on="0"/>
        <pt x="1214" y="204" on="0"/>
        <pt x="1054" y="50" on="0"/>
        <pt x="837" y="-20" on="0"/>
        <pt x="699" y="-20" on="1"/>
        <pt x="552" y="-20" on="0"/>
        <pt x="346" y="50" on="0"/>
        <pt x="216" y="171" on="0"/>
        <pt x="157" y="335" on="0"/>
      </contour>
    </TTGlyph>
</ttFont>
